<?xml version="1.0" encoding="UTF-8" standalone="no"?>
<!DOCTYPE svg PUBLIC "-//W3C//DTD SVG 1.1//EN" "http://www.w3.org/Graphics/SVG/1.1/DTD/svg11.dtd">
<svg width="100%" height="100%" viewBox="0 0 1200 1200" version="1.1" xmlns="http://www.w3.org/2000/svg" xmlns:xlink="http://www.w3.org/1999/xlink" xml:space="preserve" xmlns:serif="http://www.serif.com/" style="fill-rule:evenodd;clip-rule:evenodd;stroke-linejoin:round;stroke-miterlimit:2;">
    <g>
        <g>
            <path d="M355.19,284.51C395.25,217.44 459.22,170.69 535.14,152.75C535.58,152.64 535.93,152.32 536.08,151.9C537.29,148.5 538.05,144.89 539.49,141.75C564.72,86.73 641.68,89.58 661.95,147.03C662.48,148.54 662.86,150.07 663.08,151.63C663.15,152.15 663.54,152.57 664.05,152.681C739.71,170.32 804.25,217.32 844.15,284.43C844.31,284.7 844.6,284.86 844.91,284.85C853.04,284.8 859.08,285.26 863.01,286.22C891.51,293.19 912.87,315.99 914.65,345.82C915.78,364.85 910.08,381.18 897.55,394.8C859.34,436.3 789.71,412.69 784.31,356.75C781.95,332.18 793.11,309.77 813.37,295.69C813.6,295.53 813.66,295.21 813.51,294.98C777.59,239.35 727.6,202.74 663.55,185.15C663.28,185.07 663,185.23 662.92,185.5C650.95,223.59 609.33,244.37 572.19,226.87C556.55,219.5 541.14,203.99 537.1,186.02C536.96,185.41 536.35,185.04 535.75,185.21C472.02,202.77 422.23,239.15 386.4,294.35C386.25,294.58 386.31,294.9 386.54,295.05C408.82,309.9 421.13,336.07 415.87,362.64C406.16,411.67 347.18,432.99 308.93,400.11C261.64,359.45 292.21,283.02 354.43,284.92C354.74,284.93 355.04,284.77 355.19,284.51ZM385.16,350.41C385.16,331.79 370.06,316.69 351.44,316.69C332.82,316.69 317.72,331.79 317.72,350.41C317.72,369.03 332.82,384.13 351.44,384.13C370.06,384.13 385.16,369.03 385.16,350.41ZM883.18,350.41C883.18,331.79 868.09,316.7 849.47,316.7C830.85,316.7 815.76,331.79 815.76,350.41C815.76,369.03 830.85,384.12 849.47,384.12C868.09,384.12 883.18,369.03 883.18,350.41ZM633.45,167.53C633.45,148.91 618.35,133.81 599.73,133.81C581.11,133.81 566.01,148.91 566.01,167.53C566.01,186.15 581.11,201.25 599.73,201.25C618.35,201.25 633.45,186.15 633.45,167.53Z" style="fill:rgb(168,206,145);"/>
            <path d="M141.05,861C142.43,860.15 143.11,859.15 143.1,857.99C142.87,841.06 142.76,824.12 142.76,807.19C142.73,632.84 142.72,458.49 142.72,284.14C142.72,282.56 143.8,279.35 141.06,279.75C143.64,257.02 154.21,239.85 172.76,228.25C184.93,220.64 196.81,219.28 212.56,219.27C254.58,219.22 281.23,219.22 292.5,219.26C311.61,219.32 313.71,247.74 294.2,250.65C291.92,250.99 288.04,251.13 282.56,251.06C257.93,250.77 233.29,250.7 208.66,250.86C192.56,250.96 180.25,258.07 174.69,273.62C172.79,278.96 173.26,284.08 173.26,289.81C173.08,477.24 172.99,664.68 173,852.11C173,855.39 172.81,860.97 173.68,864.38C178.51,883.21 191.91,890.9 210.37,890.78C218.76,890.73 227.13,890.72 235.49,890.76C235.76,890.76 235.99,890.53 235.98,890.26C235.85,879.55 242.17,872.73 252.66,872.74C303.25,872.76 353.84,872.76 404.43,872.74C406.91,872.74 410.45,872.66 415.06,872.51C420.68,872.32 424.22,872.42 425.68,872.8C434.45,875.07 438.73,880.81 438.51,890.04C438.5,890.43 438.81,890.75 439.2,890.75L761.69,890.75C761.96,890.75 762.18,890.53 762.19,890.25C762.45,878.46 768.49,872.58 780.32,872.61C846.56,872.82 902.45,872.86 948,872.71C958.54,872.68 965.09,879.53 965.09,890.18C965.08,890.46 965.31,890.69 965.59,890.69C974.56,890.71 983.45,890.72 992.26,890.71C1010.18,890.71 1021.7,882.58 1026.83,866.31C1027.28,864.89 1027.5,863.44 1027.5,861.95L1027.5,281.25C1027.5,266.04 1014.19,253.95 1000.7,251.48C998.17,251.01 991.52,250.78 980.74,250.77C959.1,250.74 937.46,250.74 915.82,250.75C912.12,250.76 909.44,250.48 907.78,249.91C894.22,245.28 894.18,224.76 907.8,220.18C909.65,219.55 912.82,219.24 917.3,219.24C943.12,219.26 968.94,219.27 994.76,219.27C1028.76,219.27 1059.15,246.4 1059.13,281.5C1059.04,474.25 1059.02,667 1059.06,859.75C1059.07,888.74 1037.77,914.59 1009.57,920.87C1005.73,921.73 1000.1,922.19 992.69,922.24C983.62,922.31 974.44,922.42 965.13,922.58C964.92,922.59 964.76,922.75 964.76,922.95L964.8,947.91C964.8,948.19 965.03,948.41 965.31,948.41C990.73,948.32 1016.14,948.37 1041.55,948.56C1045.4,948.59 1048.32,949.06 1050.32,949.98C1057.29,953.18 1059.05,958.59 1059.03,966.3C1058.95,994.13 1058.95,1012.78 1059.03,1022.25C1059.34,1060.33 1030.95,1091.74 993.46,1097.11C989.28,1097.71 982.62,1098.01 973.49,1098.01C722.08,1098 470.66,1097.99 219.25,1097.98C174.36,1097.97 141.67,1063.69 141.24,1019.25C141.09,1003.46 141.02,987.66 141.01,971.87C141.01,961.88 141.62,954.55 150.51,950.06C154.76,947.91 160.55,948.41 165.44,948.39C188.71,948.31 212.06,948.36 235.47,948.54C235.89,948.55 236.24,948.2 236.24,947.78L236.22,923.02C236.22,922.74 235.99,922.52 235.71,922.52C224.09,922.51 209.35,922.95 200.45,922.21C167.6,919.47 144.08,893.66 141.05,861ZM933.18,904.76C933.18,904.62 933.06,904.5 932.92,904.5L794.52,904.5C794.38,904.5 794.26,904.62 794.26,904.76L794.26,948.1C794.26,948.24 794.38,948.36 794.52,948.36L932.92,948.36C933.06,948.36 933.18,948.24 933.18,948.1L933.18,904.76ZM762.49,922.93C762.49,922.58 762.21,922.3 761.86,922.3L438.88,922.3C438.53,922.3 438.25,922.58 438.25,922.93L438.25,947.85C438.25,948.2 438.53,948.48 438.88,948.48L761.86,948.48C762.21,948.48 762.49,948.2 762.49,947.85L762.49,922.93ZM406.74,904.76C406.74,904.62 406.62,904.5 406.48,904.5L268.26,904.5C268.12,904.5 268,904.62 268,904.76L268,948.1C268,948.24 268.12,948.36 268.26,948.36L406.48,948.36C406.62,948.36 406.74,948.24 406.74,948.1L406.74,904.76ZM173,1020.18C173.13,1045.28 192.36,1066.24 217.75,1066.25C470.98,1066.26 724.21,1066.26 977.44,1066.25C984.67,1066.25 990.13,1065.78 993.81,1064.85C1006.24,1061.71 1015.76,1054.23 1022.37,1042.4C1025.78,1036.31 1027.49,1030.67 1027.5,1025.49C1027.53,1010.63 1027.51,995.72 1027.44,980.76C1027.44,980.48 1027.22,980.25 1026.94,980.25L173.99,980.25C173.61,980.25 173.29,980.37 173.13,980.58C172.89,980.87 172.87,981.21 173.07,981.58C173.26,981.95 173.35,982.26 173.34,982.5C173.05,995.07 172.93,1007.63 173,1020.18Z" style="fill:rgb(168,206,145);"/>
            <path d="M699.05,602.27C719.01,605.65 733.49,621.62 733.5,642.2L733.5,789.01C733.5,789.28 733.72,789.5 733.99,789.5L950.57,789.5C958.71,789.5 964.03,789 964.04,779.31C964.25,636.29 964.27,493.27 964.24,350.25C964.23,346.78 963.2,344.08 961.14,342.17C958.12,339.37 953.63,340.54 949.91,338.89C933.44,331.56 938.79,308.39 956.87,308.53C975.04,308.67 993.95,323.57 995.15,342.54C995.5,348.08 995.68,354.05 995.68,360.44C995.78,497.9 995.79,635.36 995.71,772.81C995.7,781.3 996.05,789.82 992.58,797.32C987.26,808.8 976.37,818.27 963.59,820.4C961.6,820.73 958.37,820.89 953.88,820.9C680.34,821.33 443.38,821.33 243,820.9C226.04,820.86 211.19,808.03 206.5,792.17C205.67,789.35 205.25,785.69 205.25,781.19L205.25,348.55C205.25,343.72 205.68,339.91 206.53,337.11C211.41,321.18 225.39,309.99 241.57,308.54C263.91,306.53 268.32,335.82 247.31,339.86C243.54,340.58 241.35,341.11 240.76,341.44C236.35,343.89 236.77,348.3 236.77,353.88C236.74,493.39 236.74,632.9 236.75,772.41C236.76,778.68 235.52,789.49 245.07,789.49C319.04,789.5 393.02,789.51 467.01,789.5C467.28,789.5 467.49,789.29 467.49,789.02C467.52,740.81 467.52,692.54 467.47,644.22C467.44,622.14 479.98,606.59 501.91,602.06C502.26,601.99 502.44,601.6 502.27,601.29C500.74,598.46 499.34,595.56 498.07,592.61C484.46,560.84 470.85,529.06 457.24,497.28C452.75,486.79 455.84,482.42 461.75,474.11C503.68,415.09 545.62,356.07 587.56,297.06C592.36,290.31 601.94,288.55 608.86,292.89C610.71,294.05 612.94,296.47 615.55,300.14C656.96,358.41 698.38,416.69 739.79,474.96C746.02,483.72 747.94,487.37 743.4,497.93C728.55,532.54 713.67,567.14 698.76,601.73C698.66,601.96 698.8,602.23 699.05,602.27ZM616.65,461.36C633.58,467.63 645.15,478.77 651.34,494.78C655.51,505.53 655.42,520.03 651.58,530.77C639.61,564.32 599.83,578.22 569.91,557.75C554.29,547.05 545.35,529.11 546.37,510.03C547.58,487.19 562.98,469.06 584.16,461.54C584.51,461.41 584.75,461.08 584.75,460.71L584.76,356.57C584.76,356.08 584.62,356.04 584.34,356.44L489.67,489.64C489.28,490.19 489.19,490.91 489.45,491.54C494.69,504.38 500.51,517.33 505.88,530.39C508.41,536.52 511.76,542.65 513.979,548.79C515.469,552.93 517.68,556.55 519.01,560.78C519.39,561.98 520.86,565.33 523.43,570.83C525.2,574.63 527.06,580.06 529.49,584.47C530.12,585.6 530.12,586.98 530.68,588.07C532.81,592.25 534.66,596.55 536.23,600.98C536.39,601.44 536.83,601.75 537.32,601.75L663.46,601.75C663.77,601.75 664.06,601.59 664.22,601.33C664.96,600.12 665.58,598.85 666.07,597.52C668.22,591.78 670.97,586.23 673.38,580.59C686.19,550.74 698.97,520.95 711.7,491.22C711.85,490.88 711.81,490.48 711.59,490.18L616.52,356.4C616.34,356.15 616.25,356.17 616.25,356.48L616.25,460.79C616.25,461.04 616.41,461.27 616.65,461.36ZM622.71,513.21C622.71,500.91 612.73,490.93 600.43,490.93C588.13,490.93 578.15,500.91 578.15,513.21C578.15,525.51 588.13,535.49 600.43,535.49C612.73,535.49 622.71,525.51 622.71,513.21ZM663.67,711.43C660.04,717.73 654.86,719.7 647.73,719.71C598.41,719.77 549.05,719.77 499.64,719.72C499.36,719.72 499.13,719.94 499.13,720.22L499.06,788.72C499.06,789 499.28,789.23 499.56,789.23L701.47,789.22C701.74,789.22 701.96,789 701.96,788.72C702.01,740.31 702.02,691.9 701.98,643.49C701.98,637.29 698.67,633.74 692.28,633.74C635.78,633.76 579.28,633.76 522.789,633.73C519.07,633.73 512.93,633.32 507.92,633.65C501.03,634.09 499.02,638.31 499.01,644.89C498.98,659.14 498.99,673.42 499.05,687.73C499.05,688.01 499.27,688.23 499.55,688.23C548.92,688.25 598.29,688.26 647.66,688.25C651.25,688.25 653.93,688.59 655.7,689.26C664.43,692.59 668.17,703.63 663.67,711.43Z" style="fill:rgb(168,206,145);"/>
            <path d="M746.27,1023.43C746.27,1032.02 739.3,1038.99 730.71,1038.99L470.11,1038.99C461.52,1038.99 454.55,1032.02 454.55,1023.43L454.55,1023.05C454.55,1014.46 461.52,1007.49 470.11,1007.49L730.71,1007.49C739.3,1007.49 746.27,1014.46 746.27,1023.05L746.27,1023.43Z" style="fill:rgb(168,206,145);"/>
        </g>
    </g>
</svg>
