<?xml version="1.0" encoding="UTF-8" standalone="no"?>
<!DOCTYPE svg PUBLIC "-//W3C//DTD SVG 1.1//EN" "http://www.w3.org/Graphics/SVG/1.1/DTD/svg11.dtd">
<svg width="100%" height="100%" viewBox="0 0 1448 1448" version="1.1" xmlns="http://www.w3.org/2000/svg" xmlns:xlink="http://www.w3.org/1999/xlink" xml:space="preserve" xmlns:serif="http://www.serif.com/" style="fill-rule:evenodd;clip-rule:evenodd;stroke-linejoin:round;stroke-miterlimit:2;">
    <g transform="matrix(1.73585,0,0,1.73585,-532.723,-532.52)">
        <g>
            <path d="M678.77,492.53C684.77,496.48 680.97,504.48 673.99,504.48C655.75,504.51 637.61,504.51 619.56,504.49C619.06,504.49 618.62,504.83 618.5,505.31C615.53,516.7 614.31,528.14 614.83,539.63C614.85,539.98 615.13,540.26 615.48,540.26C633.85,540.25 652.21,540.25 670.56,540.26C681.55,540.27 681.49,552.99 672.16,553.16C653.28,553.51 634.36,553.58 615.39,553.37C615.11,553.36 614.88,553.59 614.88,553.86L614.8,583.08C614.8,583.32 614.99,583.51 615.23,583.51C634.3,583.49 653.37,583.49 672.44,583.52C679,583.53 681.36,592.6 675.68,595.73C674.47,596.4 672.58,596.74 670.01,596.74C651.78,596.75 633.61,596.76 615.48,596.75C615.08,596.75 614.75,597.08 614.75,597.48L614.76,643.52C614.76,643.79 614.97,644 615.24,644L832.46,644C832.75,644 832.99,643.76 832.99,643.46C833,608.42 833,573.37 832.99,538.31C832.98,529.67 832.65,523.02 831.99,518.37C825.59,473.59 790.39,436.53 745.26,430.04C696.44,423.01 645.65,444.37 623.74,490.49C623.57,490.85 623.83,491.27 624.23,491.27C640.44,491.22 656.64,491.23 672.83,491.3C675.56,491.31 677.54,491.72 678.77,492.53Z" style="fill:rgb(168,206,145);"/>
            <path d="M378.54,665.55C384.02,692.3 389.39,719.06 394.64,745.85C395.81,751.81 400.44,757.73 407.24,754.34C411.69,752.12 412.41,747.58 413.15,743.08C420.68,696.97 428.24,650.86 435.82,604.76C435.97,603.89 436.13,603.13 436.32,602.47C436.56,601.63 436.76,601.64 436.92,602.5C444.2,641.92 451.4,681.35 458.51,720.79C459.82,728.02 467.12,735.16 474.02,727.98C475.24,726.71 475.99,725.46 476.26,724.25C481.85,699.34 487.35,674.4 492.75,649.44C492.98,648.34 493.35,647.39 493.86,646.58C494.19,646.04 494.46,646.07 494.66,646.68C497.88,656.65 501.1,666.27 504.33,675.54C506.89,682.92 508.22,689.06 517.729,689.03C534.19,688.98 550.98,688.98 568.11,689.01C568.6,689.01 569,689.41 569,689.9C569.01,708.11 569.01,726.4 569,744.77C568.99,753.23 569.28,759.88 569.87,764.72C577.8,830.22 629.2,879.19 694.58,886.2C694.82,886.22 695,886.42 695,886.66L695,1005.66C695,1006.13 694.62,1006.51 694.15,1006.51C669.3,1006.5 644.5,1006.5 619.75,1006.51C616.64,1006.52 614.43,1006.9 613.1,1007.66C608.35,1010.4 609.52,1019 616.39,1019L840.31,1019C847.03,1019 848,1010.94 843.66,1007.88C842.35,1006.96 840.27,1006.5 837.4,1006.5L753.3,1006.5C753,1006.5 752.75,1006.3 752.7,1006.02C752.2,1003.51 752.75,1000.27 752.75,998.56L752.75,886.8C752.75,886.46 753.01,886.17 753.36,886.13C818.86,879.42 869.93,829.79 877.88,764.45C878.47,759.55 878.77,752.9 878.77,744.49C878.76,726.44 878.77,708.32 878.82,690.12C878.83,689.48 879.34,688.97 879.97,688.97C896.43,688.99 913.06,689.01 929.87,689.02C939.47,689.03 940.75,683.54 943.67,674.99C944.57,672.36 953.06,645.95 953.65,646.2C953.89,646.3 954.09,646.59 954.18,646.98C959.73,671.79 965.29,696.58 970.88,721.37C973.68,733.82 986.52,734.15 988.88,721.39C996.2,681.79 1003.51,642.19 1010.81,602.58C1010.86,602.31 1011,602.09 1011.18,602.01C1012.02,601.66 1012.26,605.82 1012.37,606.48C1019.87,652.75 1027.36,699.01 1034.84,745.28C1036,752.45 1042.81,759.11 1049.88,752.86C1051.31,751.6 1052.13,750.4 1052.36,749.27C1058,721.37 1063.54,693.54 1068.97,665.79C1069.07,665.28 1069.52,664.92 1070.03,664.93C1080.32,665.08 1089.96,665.05 1098.94,664.85C1108.26,664.64 1108.76,651.58 1097.99,651.53C1087.5,651.48 1077.01,651.48 1066.52,651.53C1061.32,651.55 1058.23,652.31 1057.15,657.68C1053.06,678.03 1049.03,698.31 1045.04,718.53C1044.67,720.38 1044.34,720.38 1044.03,718.51C1035.88,668.66 1027.7,618.82 1019.48,568.99C1017.87,559.22 1005.53,558.23 1003.77,567.76C995.88,610.59 987.97,653.43 980.02,696.27C979.65,698.26 979.25,698.27 978.81,696.29C973.5,672.3 968.11,648.29 962.66,624.25C961.78,620.35 959.95,617.56 956.06,616.87C952.67,616.27 948.72,618.27 947.6,621.58C941.59,639.37 935.63,657.21 929.73,675.12C929.59,675.53 929.2,675.81 928.76,675.81C910.7,675.73 892.96,675.62 875.54,675.49C870.41,675.45 865.77,676.75 865.65,682.49C865.44,692.79 865.39,713.46 865.5,744.51C865.53,752.86 865.21,759.51 864.54,764.45C855.98,827.89 803.3,873.34 739.26,873.49C724.85,873.53 708.53,874.1 695.6,872.87C637.1,867.29 590.47,822.33 583.14,763.96C582.55,759.23 582.24,752.57 582.21,744C582.15,725.8 582.06,707.6 581.94,689.4C581.91,683.58 583.7,675.68 574.74,675.67C556.35,675.66 537.88,675.72 519.34,675.84C518.719,675.85 518.169,675.45 517.979,674.86C512.69,658.87 507.31,642.81 501.84,626.68C500.61,623.05 499.83,620.97 499.5,620.42C496.05,614.73 487.02,615.92 485.46,622.49C483.64,630.2 478.07,655.19 468.74,697.46C468.67,697.79 468.58,697.79 468.45,697.48C467.68,695.53 467.11,693.52 466.73,691.45C459.48,651.8 452.19,612.16 444.84,572.53C443.88,567.33 441.56,558.49 433.75,561.5C429.7,563.07 428.72,566.06 428.01,570.44C419.92,619.91 411.92,668.58 404.02,716.46C403.51,719.55 402.94,719.56 402.33,716.49C398.54,697.4 394.77,678.46 391.04,659.67C390.04,654.67 388.69,651.58 383.24,651.55C372.69,651.5 362.14,651.48 351.59,651.51C346.09,651.53 341.43,652.51 342.01,659.05C342.36,662.96 345.74,664.87 349.46,664.9C358.95,664.99 368.44,665.05 377.93,665.06C378.23,665.06 378.48,665.26 378.54,665.55Z" style="fill:rgb(168,206,145);"/>
            <path d="M832.98,657.93C832.98,657.69 832.78,657.49 832.54,657.49L615.2,657.49C614.96,657.49 614.76,657.69 614.76,657.93L614.76,673.07C614.76,673.31 614.96,673.51 615.2,673.51L832.54,673.51C832.78,673.51 832.98,673.31 832.98,673.07L832.98,657.93Z" style="fill:rgb(168,206,145);"/>
            <path d="M615.89,761.37C622.48,803.31 656.17,836.19 698.47,841.31C708.45,842.52 721.38,842.02 732.69,841.99C741.5,841.97 748.15,841.61 752.64,840.92C798.1,833.9 832.99,793.54 833,747.5L833,687.73C832.99,687.33 832.67,687 832.27,687L615.25,687C614.98,687 614.76,687.22 614.76,687.49C614.73,705.48 614.74,723.46 614.77,741.43C614.79,750.08 615.16,756.72 615.89,761.37Z" style="fill:rgb(168,206,145);"/>
            <path d="M733.95,829.51C735.22,830.46 736.66,830.92 738.25,830.87C785.16,829.46 821.4,793.38 821.68,746.25C821.75,734.66 821.76,723.08 821.73,711.51C821.72,708.8 821.36,706.82 820.63,705.57C818.83,702.46 814.64,701.29 811.51,703.49C808.84,705.37 808.48,707.48 808.49,710.95C808.55,730.01 810.75,753.87 804.22,770.95C793.59,798.74 769.03,816.29 738.78,817.63C731.9,817.93 727.68,824.81 733.95,829.51Z" style="fill:rgb(168,206,145);"/>
            <path d="M672.83,491.3C656.64,491.23 640.44,491.22 624.23,491.27C623.83,491.27 623.57,490.85 623.74,490.49C645.65,444.37 696.44,423.01 745.26,430.04C790.39,436.53 825.59,473.59 831.99,518.37C832.65,523.02 832.98,529.67 832.99,538.31C833,573.37 833,608.42 832.99,643.46C832.99,643.76 832.75,644 832.46,644L615.24,644C614.97,644 614.76,643.79 614.76,643.52L614.75,597.48C614.75,597.08 615.08,596.75 615.48,596.75C633.61,596.76 651.78,596.75 670.01,596.74C672.58,596.74 674.47,596.4 675.68,595.73C681.36,592.6 679,583.53 672.44,583.52C653.37,583.49 634.3,583.49 615.23,583.51C614.99,583.51 614.8,583.32 614.8,583.08L614.88,553.86C614.88,553.59 615.11,553.36 615.39,553.37C634.36,553.58 653.28,553.51 672.16,553.16C681.49,552.99 681.55,540.27 670.56,540.26C652.21,540.25 633.85,540.25 615.48,540.26C615.13,540.26 614.85,539.98 614.83,539.63C614.31,528.14 615.53,516.7 618.5,505.31C618.62,504.83 619.06,504.49 619.56,504.49C637.61,504.51 655.75,504.51 673.99,504.48C680.97,504.48 684.77,496.48 678.77,492.53C677.54,491.72 675.56,491.31 672.83,491.3Z" style="fill:rgb(168,206,145);"/>
            <path d="M377.93,665.06C368.44,665.05 358.95,664.99 349.46,664.9C345.74,664.87 342.36,662.96 342.01,659.05C341.43,652.51 346.09,651.53 351.59,651.51C362.14,651.48 372.69,651.5 383.24,651.55C388.69,651.58 390.04,654.67 391.04,659.67C394.77,678.46 398.54,697.4 402.33,716.49C402.94,719.56 403.51,719.55 404.02,716.46C411.92,668.58 419.92,619.91 428.01,570.44C428.72,566.06 429.7,563.07 433.75,561.5C441.56,558.49 443.88,567.33 444.84,572.53C452.19,612.16 459.48,651.8 466.73,691.45C467.11,693.52 467.68,695.53 468.45,697.48C468.58,697.79 468.67,697.79 468.74,697.46C478.07,655.19 483.64,630.2 485.46,622.49C487.02,615.92 496.05,614.73 499.5,620.42C499.83,620.97 500.61,623.05 501.84,626.68C507.31,642.81 512.69,658.87 517.979,674.86C518.169,675.45 518.719,675.85 519.34,675.84C537.88,675.72 556.35,675.66 574.74,675.67C583.7,675.68 581.91,683.58 581.94,689.4C582.06,707.6 582.15,725.8 582.21,744C582.24,752.57 582.55,759.23 583.14,763.96C590.47,822.33 637.1,867.29 695.6,872.87C708.53,874.1 724.85,873.53 739.26,873.49C803.3,873.34 855.98,827.89 864.54,764.45C865.21,759.51 865.53,752.86 865.5,744.51C865.39,713.46 865.44,692.79 865.65,682.49C865.77,676.75 870.41,675.45 875.54,675.49C892.96,675.62 910.7,675.73 928.76,675.81C929.2,675.81 929.59,675.53 929.73,675.12C935.63,657.21 941.59,639.37 947.6,621.58C948.72,618.27 952.67,616.27 956.06,616.87C959.95,617.56 961.78,620.35 962.66,624.25C968.11,648.29 973.5,672.3 978.81,696.29C979.25,698.27 979.65,698.26 980.02,696.27C987.97,653.43 995.88,610.59 1003.77,567.76C1005.53,558.23 1017.87,559.22 1019.48,568.99C1027.7,618.82 1035.88,668.66 1044.03,718.51C1044.34,720.38 1044.67,720.38 1045.04,718.53C1049.03,698.31 1053.06,678.03 1057.15,657.68C1058.23,652.31 1061.32,651.55 1066.52,651.53C1077.01,651.48 1087.5,651.48 1097.99,651.53C1108.76,651.58 1108.26,664.64 1098.94,664.85C1089.96,665.05 1080.32,665.08 1070.03,664.93C1069.52,664.92 1069.07,665.28 1068.97,665.79C1063.54,693.54 1058,721.37 1052.36,749.27C1052.13,750.4 1051.31,751.6 1049.88,752.86C1042.81,759.11 1036,752.45 1034.84,745.28C1027.36,699.01 1019.87,652.75 1012.37,606.48C1012.26,605.82 1012.02,601.66 1011.18,602.01C1011,602.09 1010.86,602.31 1010.81,602.58C1003.51,642.19 996.2,681.79 988.88,721.39C986.52,734.15 973.68,733.82 970.88,721.37C965.29,696.58 959.73,671.79 954.18,646.98C954.09,646.59 953.89,646.3 953.65,646.2C953.06,645.95 944.57,672.36 943.67,674.99C940.75,683.54 939.47,689.03 929.87,689.02C913.06,689.01 896.43,688.99 879.97,688.97C879.34,688.97 878.83,689.48 878.82,690.12C878.77,708.32 878.76,726.44 878.77,744.49C878.77,752.9 878.47,759.55 877.88,764.45C869.93,829.79 818.86,879.42 753.36,886.13C753.01,886.17 752.75,886.46 752.75,886.8L752.75,998.56C752.75,1000.27 752.2,1003.51 752.7,1006.02C752.75,1006.3 753,1006.5 753.3,1006.5L837.4,1006.5C840.27,1006.5 842.35,1006.96 843.66,1007.88C848,1010.94 847.03,1019 840.31,1019L616.39,1019C609.52,1019 608.35,1010.4 613.1,1007.66C614.43,1006.9 616.64,1006.52 619.75,1006.51C644.5,1006.5 669.3,1006.5 694.15,1006.51C694.62,1006.51 695,1006.13 695,1005.66L695,886.66C695,886.42 694.82,886.22 694.58,886.2C629.2,879.19 577.8,830.22 569.87,764.72C569.28,759.88 568.99,753.23 569,744.77C569.01,726.4 569.01,708.11 569,689.9C569,689.41 568.6,689.01 568.11,689.01C550.98,688.98 534.19,688.98 517.729,689.03C508.22,689.06 506.89,682.92 504.33,675.54C501.1,666.27 497.88,656.65 494.66,646.68C494.46,646.07 494.19,646.04 493.86,646.58C493.35,647.39 492.98,648.34 492.75,649.44C487.35,674.4 481.85,699.34 476.26,724.25C475.99,725.46 475.24,726.71 474.02,727.98C467.12,735.16 459.82,728.02 458.51,720.79C451.4,681.35 444.2,641.92 436.92,602.5C436.76,601.64 436.56,601.63 436.32,602.47C436.13,603.13 435.97,603.89 435.82,604.76C428.24,650.86 420.68,696.97 413.15,743.08C412.41,747.58 411.69,752.12 407.24,754.34C400.44,757.73 395.81,751.81 394.64,745.85C389.39,719.06 384.02,692.3 378.54,665.55C378.48,665.26 378.23,665.06 377.93,665.06Z" style="fill:rgb(168,206,145);"/>
            <path d="M832.98,673.07C832.98,673.31 832.78,673.51 832.54,673.51L615.2,673.51C614.96,673.51 614.76,673.31 614.76,673.07L614.76,657.93C614.76,657.69 614.96,657.49 615.2,657.49L832.54,657.49C832.78,657.49 832.98,657.69 832.98,657.93L832.98,673.07Z" style="fill:rgb(168,206,145);"/>
            <path d="M698.47,841.31C656.17,836.19 622.48,803.31 615.89,761.37C615.16,756.72 614.79,750.08 614.77,741.43C614.74,723.46 614.73,705.48 614.76,687.49C614.76,687.22 614.98,687 615.25,687L832.27,687C832.67,687 832.99,687.33 833,687.73L833,747.5C832.99,793.54 798.1,833.9 752.64,840.92C748.15,841.61 741.5,841.97 732.69,841.99C721.38,842.02 708.45,842.52 698.47,841.31ZM733.95,829.51C735.22,830.46 736.66,830.92 738.25,830.87C785.16,829.46 821.4,793.38 821.68,746.25C821.75,734.66 821.76,723.08 821.73,711.51C821.72,708.8 821.36,706.82 820.63,705.57C818.83,702.46 814.64,701.29 811.51,703.49C808.84,705.37 808.48,707.48 808.49,710.95C808.55,730.01 810.75,753.87 804.22,770.95C793.59,798.74 769.03,816.29 738.78,817.63C731.9,817.93 727.68,824.81 733.95,829.51Z" style="fill:rgb(168,206,145);"/>
            <path d="M733.95,829.51C727.68,824.81 731.9,817.93 738.78,817.63C769.03,816.29 793.59,798.74 804.22,770.95C810.75,753.87 808.55,730.01 808.49,710.95C808.48,707.48 808.84,705.37 811.51,703.49C814.64,701.29 818.83,702.46 820.63,705.57C821.36,706.82 821.72,708.8 821.73,711.51C821.76,723.08 821.75,734.66 821.68,746.25C821.4,793.38 785.16,829.46 738.25,830.87C736.66,830.92 735.22,830.46 733.95,829.51Z" style="fill:rgb(168,206,145);"/>
        </g>
    </g>
</svg>
