<?xml version="1.0" encoding="UTF-8" standalone="no"?>
<!DOCTYPE svg PUBLIC "-//W3C//DTD SVG 1.1//EN" "http://www.w3.org/Graphics/SVG/1.1/DTD/svg11.dtd">
<svg width="100%" height="100%" viewBox="0 0 1448 1448" version="1.1" xmlns="http://www.w3.org/2000/svg" xmlns:xlink="http://www.w3.org/1999/xlink" xml:space="preserve" xmlns:serif="http://www.serif.com/" style="fill-rule:evenodd;clip-rule:evenodd;stroke-linejoin:round;stroke-miterlimit:2;">
    <g>
        <path d="M396.226,576.257C420.953,549.186 460.353,533.693 494.72,530.9C497.79,530.65 500.64,530.14 503.26,529.37C546.85,516.5 590.63,503.58 634.58,490.61C634.89,490.52 634.99,490.14 634.77,489.91C567.2,420.23 568.11,300.07 640.54,234.3C667.26,210.05 703.8,197.93 739.83,202.63C805.53,211.21 849.88,271.39 860.15,333.07C869.68,390.31 853.57,448.75 812.74,490.51C812.62,490.63 812.68,490.84 812.84,490.89C856.9,503.77 900.97,516.62 945.05,529.45C947.7,530.22 950.6,530.74 953.73,531C1000,534.8 1055.68,561.91 1071.59,609.19C1071.7,609.51 1072,609.73 1072.35,609.73C1085.26,609.78 1100.6,608.6 1112.35,611.01C1141.61,617.01 1162.94,641.41 1164.62,671.25C1165.02,678.5 1165.04,685.73 1164.67,692.94C1164.65,693.18 1164.81,693.4 1165.04,693.46C1189.09,700.22 1207.17,718.79 1212.39,743.36C1213.29,747.61 1213.74,753.61 1213.74,761.37C1213.75,812.46 1213.76,863.55 1213.75,914.64C1213.74,928.22 1212.47,937.53 1207.03,948.71C1206.91,948.96 1206.99,949.27 1207.23,949.43C1256.35,983.15 1259.18,1056.36 1216.53,1095.51C1201.76,1109.07 1184.02,1115.85 1163.32,1115.85C1163.02,1115.85 1162.75,1116.05 1162.67,1116.33C1155.67,1140.1 1137.54,1158.11 1113.25,1163.29C1108.86,1164.23 1102.49,1164.71 1094.14,1164.74C1003.75,1165.05 913.32,1165.21 822.92,1164.94C822.64,1164.94 822.41,1165.17 822.4,1165.45C821.65,1187.91 829.25,1197.99 844.73,1213.29C845.03,1213.58 845.49,1213.75 846,1213.75L886.75,1213.75C887.03,1213.75 887.25,1213.97 887.25,1214.25L887.25,1246C887.25,1246.28 887.03,1246.5 886.75,1246.5L561.25,1246.5C560.97,1246.5 560.75,1246.28 560.75,1246L560.75,1214.25C560.75,1213.97 560.97,1213.75 561.25,1213.75L602,1213.75C602.55,1213.75 603.07,1213.54 603.44,1213.17C612.76,1203.83 621.67,1194.8 624.26,1182.76C625.29,1177.97 625.76,1172.15 625.69,1165.31C625.69,1165.04 625.46,1164.81 625.18,1164.82C606.43,1165.09 587.68,1165.12 568.93,1164.93C494.82,1164.16 412.68,1165.79 346.5,1164.79C317.91,1164.36 293.31,1144.04 285.35,1116.31C285.27,1116.02 285.01,1115.82 284.71,1115.82C228.34,1115.85 193.54,1060.78 203.22,1008.45C207.43,985.66 218.45,967 236.28,952.48C236.52,952.29 236.63,951.97 236.55,951.68C235.02,945.82 234.26,941.82 234.26,939.69C234.25,875.6 234.25,811.52 234.25,747.44C234.25,738.61 234.74,732.19 235.73,728.19C241.01,706.74 260.609,691.83 282.56,691.32C282.86,691.31 283.1,691.07 283.11,690.77C283.34,682.11 282.73,672.48 284,664.8C288.45,637.9 308.99,615.91 336.06,610.87C347.08,608.81 362.76,609.77 375.73,609.72C376.02,609.72 376.28,609.53 376.38,609.24C380.584,596.833 387.489,585.822 396.226,576.257C404.131,577.845 412.15,578.828 420.865,578.422C432.529,577.88 444.007,575.557 455.537,574.234C438.27,581.877 422.727,593.458 412.52,608.8C412.18,609.31 412.32,609.56 412.93,609.56C620.75,609.89 1035.93,609.43 1035.69,609.06C1019.09,583.87 987.77,568.84 958.87,564.4C952.03,563.35 945.63,563.8 938.82,561.82C894.2,548.85 849.6,535.83 805.02,522.76C804.78,522.69 804.54,522.87 804.52,523.13C803.89,537.39 799.03,549.66 789.93,559.93C757.18,596.89 699.74,599.69 663.58,565.55C651.04,553.71 643.95,539.7 643.43,522.42C643.42,522.18 643.2,522.01 642.97,522.08C597.19,535.51 551.44,548.87 505.71,562.16C503.16,562.9 500.35,563.39 497.27,563.63C483.45,564.724 468.972,568.287 455.537,574.234C444.007,575.557 432.529,577.88 420.865,578.422C412.15,578.828 404.131,577.845 396.226,576.257ZM724,495.14C782.51,495.14 829.94,436.78 829.94,364.78C829.94,292.78 782.51,234.42 724,234.42C665.49,234.42 618.06,292.78 618.06,364.78C618.06,436.78 665.49,495.14 724,495.14ZM687.3,542.97C703.26,556.42 724.7,560.51 744.07,552.89C758.12,547.36 773.06,535.49 771.7,518.81C771.67,518.42 771.31,518.17 771,518.3C739.67,531.42 708.33,531.43 677,518.32C676.77,518.22 676.51,518.37 676.47,518.63C675.22,528.21 680.22,537.01 687.3,542.97ZM478.44,691.42C507.17,691.49 528.23,713.61 528.24,741.75C528.27,803.4 528.27,865.04 528.22,926.69C528.21,936.25 527.82,942.89 527.03,946.6C522,970.14 500.96,985.55 477,985.46C441.11,985.31 405.24,985.24 369.39,985.25C368.82,985.25 368.68,985.48 368.98,985.95C381.73,1005.93 384.42,1027.28 377.04,1050C376.96,1050.25 377.19,1050.5 377.5,1050.5L1070.5,1050.5C1070.73,1050.5 1070.89,1050.27 1070.83,1050.02C1070.3,1047.78 1069.75,1045.54 1069.18,1043.31C1063.58,1021.63 1068.69,1004.89 1078.74,985.73C1078.85,985.52 1078.7,985.28 1078.48,985.28C1049.67,985.25 1020.87,985.23 992.06,985.24C983.23,985.25 976.6,984.79 972.16,983.88C939.44,977.14 919.83,949.58 919.79,916.75C919.73,866.44 919.73,816.13 919.78,765.82C919.79,756.37 920.12,749.72 920.75,745.87C926.12,713.49 953.99,691.31 986.75,691.29C1035.06,691.26 1083.38,691.24 1131.69,691.25C1131.96,691.25 1132.17,691.02 1132.16,690.74C1131.88,683.15 1132.64,674.09 1131.17,667.65C1127.98,653.67 1114.61,642.5 1100.5,642.5L352.88,642.5C342.27,642.5 334.67,643.95 327.22,650.46C314.39,661.66 315.93,675.3 316.05,690.76C316.05,691.04 316.27,691.26 316.55,691.26C370.52,691.22 424.49,691.27 478.44,691.42ZM267.51,937.74C291.05,933.49 314.51,939.44 334.87,952.27C335.14,952.44 335.46,952.53 335.78,952.53C381.53,952.49 427.27,952.49 473.02,952.52C478.57,952.52 482.51,952.1 484.83,951.26C494.66,947.68 495.49,939.37 495.49,929.1C495.5,868.47 495.5,807.85 495.49,747.22C495.49,737.44 494.74,729.33 485.5,725.55C482.96,724.51 478.39,723.99 471.78,723.99C410.96,724 350.14,724 289.32,724.01C274.87,724.01 267.01,727.9 267,743.66C266.99,808.21 267,872.76 267.03,937.33C267.03,937.59 267.26,937.79 267.51,937.74ZM952.74,919.18C952.79,937.9 966.96,952.45 985.76,952.46C1027.89,952.48 1070.04,952.5 1112.21,952.52C1112.54,952.52 1112.86,952.43 1113.14,952.25C1131.26,940.89 1153.56,934.06 1175.02,936.98C1175.66,937.07 1176.28,936.75 1176.59,936.17C1180.17,929.38 1180.99,924.36 1181,916.05C1181.01,864.57 1181,813.09 1180.99,761.6C1180.98,755.07 1180.5,750.26 1179.55,747.17C1175.17,733.03 1162.04,724.18 1147.25,724.15C1094.47,724.04 1041.69,723.99 988.92,724.02C967.59,724.03 952.61,736.77 952.52,758.75C952.44,779.38 952.51,832.85 952.74,919.18ZM238.65,1048.94C247.14,1072.37 269.15,1087.46 294.5,1081.75C320.4,1075.92 351.94,1050.91 347.95,1020.65C344.8,996.79 320.37,977.96 298.57,971.41C274.8,964.26 252.16,974.94 241.29,996.81C232.99,1013.52 232.11,1030.9 238.65,1048.94ZM1102.46,1040.29C1112.01,1064.66 1143.41,1086.01 1169.84,1082.74C1202.74,1078.67 1218.16,1041.98 1212.23,1012.78C1206.67,985.38 1182.74,963.41 1153.75,970.21C1124.84,977 1089.32,1006.74 1102.46,1040.29ZM1091.75,1083.25L707,1083.25L356.25,1083.24C355.91,1083.24 355.59,1083.37 355.36,1083.6C344.5,1094.35 332.02,1102.7 317.91,1108.65C317.63,1108.77 317.5,1109.09 317.61,1109.39C321.7,1120.48 329.03,1127.57 339.62,1130.65C342.72,1131.56 347.18,1132.01 353.01,1132.01C600.5,1132 848,1131.99 1095.5,1132C1112.32,1132 1124.08,1125.85 1130.45,1109.3C1130.56,1109.02 1130.43,1108.72 1130.17,1108.61C1116.06,1102.77 1103.6,1094.47 1092.8,1083.7C1092.51,1083.41 1092.13,1083.25 1091.75,1083.25ZM679.44,1213.53C719.74,1213.93 760.05,1213.33 800.34,1213.81C801.01,1213.82 801.15,1213.55 800.77,1213C791.06,1198.97 789.45,1182.88 789.47,1166.23C789.47,1165.51 788.88,1164.92 788.15,1164.92C763.58,1164.98 738.8,1164.95 713.82,1164.84C696.12,1164.76 677.5,1165.2 659.27,1164.72C658.99,1164.71 658.76,1164.93 658.75,1165.21C658.23,1182.94 657.21,1198.21 647.24,1213.21C647.05,1213.49 647.13,1213.63 647.46,1213.62C658.2,1213.46 668.86,1213.43 679.44,1213.53Z" style="fill:rgb(168,206,145);"/>
        <path d="M871,935.98C871,963.19 848.94,985.25 821.73,985.25L626.27,985.25C599.06,985.25 577,963.19 577,935.98L577,740.54C577,713.33 599.06,691.27 626.27,691.27L821.73,691.27C848.94,691.27 871,713.33 871,740.54L871,935.98ZM838.25,740.66C838.25,731.46 830.8,724.01 821.6,724.01L626.4,724.01C617.2,724.01 609.75,731.46 609.75,740.66L609.75,935.86C609.75,945.06 617.2,952.51 626.4,952.51L821.6,952.51C830.8,952.51 838.25,945.06 838.25,935.86L838.25,740.66Z" style="fill:rgb(168,206,145);fill-rule:nonzero;"/>
        <path d="M792.58,793.74C811.58,824.38 809.95,863.46 786.36,890.98C747.64,936.16 675.46,926.94 649.94,872.79C637.36,846.09 640.74,815.02 657.31,791.33C682.72,755.01 731.47,746.31 768.57,769.84C768.83,770 769.14,769.99 769.31,769.81L788.94,750.19C789.17,749.95 789.56,749.96 789.8,750.2L812.13,772.61C812.31,772.79 812.27,773.1 812.06,773.31L792.45,792.95C792.32,793.08 792.37,793.41 792.58,793.74ZM772.79,838.28C772.79,811.33 750.95,789.49 724,789.49C697.05,789.49 675.21,811.33 675.21,838.28C675.21,865.23 697.05,887.07 724,887.07C750.95,887.07 772.79,865.23 772.79,838.28Z" style="fill:rgb(168,206,145);fill-rule:nonzero;"/>
        <path d="M361.75,821.75L426,821.75C426.28,821.75 426.5,821.97 426.5,822.25L426.5,854.25C426.5,854.54 426.16,854.77 425.75,854.77L362,854.83C361.59,854.83 361.25,855.02 361.25,855.25L361.25,903C361.25,903.36 361.03,903.65 360.75,903.65L329,903.72C328.75,903.72 328.55,903.44 328.55,903.09C328.5,872.86 328.48,842.64 328.49,812.45C328.5,803.92 328.99,797.66 329.97,793.68C334.17,776.58 348.04,762.46 365.33,758.16C369.07,757.23 375.06,756.76 383.3,756.75C402.99,756.74 422.69,756.74 442.39,756.77C442.62,756.77 442.81,756.98 442.81,757.25L442.77,788.75C442.77,789.01 442.52,789.22 442.22,789.22C422.12,789.26 402.05,789.28 382.01,789.28C359.4,789.28 361.1,803.33 361.31,821.19C361.31,821.5 361.51,821.75 361.75,821.75Z" style="fill:rgb(168,206,145);fill-rule:nonzero;"/>
        <path d="M1001.95,762.97L1151.94,837.97C1152.17,838.09 1152.17,838.41 1151.94,838.53L1001.95,913.53C1001.74,913.63 1001.5,913.48 1001.5,913.25L1001.5,763.25C1001.5,763.02 1001.74,762.87 1001.95,762.97ZM1034.66,816.23C1034.45,816.13 1034.21,816.28 1034.21,816.51L1034.28,860.12C1034.29,860.35 1034.53,860.5 1034.73,860.4L1078.49,838.52C1078.72,838.4 1078.72,838.08 1078.49,837.96L1034.66,816.23Z" style="fill:rgb(168,206,145);fill-rule:nonzero;"/>
    </g>
</svg>
