<?xml version="1.0" encoding="UTF-8" standalone="no"?>
<!DOCTYPE svg PUBLIC "-//W3C//DTD SVG 1.1//EN" "http://www.w3.org/Graphics/SVG/1.1/DTD/svg11.dtd">
<svg width="100%" height="100%" viewBox="0 0 512 512" version="1.1" xmlns="http://www.w3.org/2000/svg" xmlns:xlink="http://www.w3.org/1999/xlink" xml:space="preserve" xmlns:serif="http://www.serif.com/" style="fill-rule:evenodd;clip-rule:evenodd;stroke-linejoin:round;stroke-miterlimit:2;">
    <g>
        <g transform="matrix(0.869337,0,0,0.869337,33.4497,33.351)">
            <path d="M512,91.06L512,384.56C510.44,399.46 499.31,410.47 484,410.47C428.85,410.49 373.78,410.5 318.77,410.5C318.48,410.5 318.25,410.72 318.25,411L318.25,468.5C318.25,468.78 318.48,469.02 318.76,469.03C325.59,469.29 332.41,469.36 339.24,469.24C351.66,469.01 350.94,484.25 339.75,484.25C283.18,484.26 226.62,484.26 170.07,484.23C159.54,484.23 158.34,469.26 170.71,469.26C177.61,469.25 184.47,469.25 191.28,469.24C191.68,469.24 192,468.91 192,468.5L192,411C192,410.72 191.78,410.5 191.51,410.5C138.5,410.49 85.5,410.5 32.509,410.51C26.92,410.51 22.63,410.06 19.65,409.16C8.47,405.78 1.92,397.71 0,384.94L0,90.69C1.98,77.78 8.55,69.68 19.72,66.39C22.95,65.44 28.03,64.96 34.96,64.97C62.05,65.01 89.14,65.02 116.25,65C126.78,64.99 127.57,79.99 115.46,79.99C87.96,80 60.46,80 32.95,80.01C20.81,80.01 15,83.03 15,95.63L15,327.9C15,328.23 15.27,328.5 15.6,328.5L399,328.5C409.65,328.5 410.84,343.5 398.22,343.5L15.73,343.5C15.33,343.5 15,343.83 15,344.23L15,377.22C14.99,390.2 17.93,395.5 31.22,395.5L478.52,395.5C491.12,395.5 496.96,392.99 496.99,379.76C497.01,367.84 497.01,355.92 496.99,343.99C496.99,343.72 496.78,343.51 496.51,343.51C477.64,343.49 458.73,343.49 439.76,343.51C437.05,343.52 435.11,343.18 433.92,342.49C428.45,339.36 429.36,331.41 434.97,329.23C436.2,328.76 438.46,328.52 441.75,328.52C459.62,328.49 477.74,328.49 496.12,328.5C496.61,328.5 497,328.11 497,327.63L497,97.33C497.01,84.6 493.06,80.01 480.4,80.01C441.52,80 402.63,79.99 363.73,80C363.12,80 363.01,80.24 363.38,80.72C422.01,156.43 388.07,266.6 297.27,296.29C253.11,310.74 203.09,300.95 167.75,271.5C107.53,221.33 100.31,131.87 152.95,73.44C189.4,32.99 245.56,18.14 297.45,34.52C308.8,38.11 304.3,52.43 293.31,48.93C202.87,20.08 115.42,99.24 135.34,191.25C147.21,246.09 195.34,286.1 251.25,287.8C327.89,290.15 388.34,221.8 375.98,145.81C370.88,114.42 353.89,86.62 328.51,67.42C326.1,65.59 323.2,63.88 322.06,61.08C319.26,54.26 327.07,48.15 333.48,52.57C338.82,56.24 343.89,60.27 348.68,64.64C348.92,64.86 349.23,64.98 349.55,64.98C391.3,65.02 433.04,65.02 474.78,64.97C483.19,64.96 489.12,65.46 492.55,66.48C503.62,69.77 510.1,77.97 512,91.06ZM303.25,411.05C303.25,410.75 303,410.5 302.7,410.5L207.54,410.5C207.24,410.5 206.99,410.75 206.99,411.05L206.99,468.69C206.99,468.99 207.24,469.24 207.54,469.24L302.7,469.24C303,469.24 303.25,468.99 303.25,468.69L303.25,411.05Z" style="fill:rgb(168,206,145);fill-rule:nonzero;"/>
        </g>
        <g transform="matrix(0.869337,0,0,0.869337,33.4497,33.351)">
            <path d="M294.86,232.07C294.31,232.06 294.21,232.27 294.54,232.7C301.64,242.01 295.13,255.36 283.5,255.25C276.02,255.171 269.81,248.94 269.82,241.57C269.83,238.68 270.72,235.71 272.51,232.66C272.8,232.17 272.63,231.92 272,231.93L243.75,231.98C243.28,231.98 242.9,232.12 242.82,232.33C242.67,232.74 242.79,233.07 243.2,233.32C243.57,233.55 243.83,233.79 243.94,234C246.34,238.83 246.51,243.28 244.44,247.35C235.55,264.83 209.26,250.261 220.92,232.63C221.46,231.82 221.25,231.51 220.3,231.72C213.28,233.28 209.88,229.9 208.63,223.32C201.42,185.12 194.18,146.84 186.93,108.47C186.64,106.96 185.73,106.13 184.2,106C180.38,105.67 174.99,106.42 171.91,104.64C167.59,102.14 167.48,94.85 171.61,92.27C174.84,90.24 185.37,90.53 189.14,91.71C199.95,95.11 201.02,103.29 203.19,113.25C203.25,113.54 203.5,113.75 203.8,113.75C239.71,113.76 275.6,113.76 311.48,113.75C320.53,113.75 325.53,116.71 323.72,126.33C319.43,149.14 315.12,171.95 310.77,194.75C309.9,199.28 305.99,200.73 301.53,200.74C274.38,200.75 247.33,200.76 220.36,200.75C219.97,200.75 219.68,201.11 219.75,201.5L222.63,216.57C222.68,216.82 222.88,217 223.12,217L301.5,217C307.84,217 310.5,226.03 305.63,230.06C302.88,232.34 298.4,232.16 294.86,232.07ZM284.05,129.06L282.53,149.25C282.51,149.52 282.73,149.75 283,149.75L303.69,149.74C303.89,149.74 304.06,149.56 304.11,149.32L307.96,129.24C308.01,128.95 307.82,128.69 307.56,128.69L284.5,128.73C284.26,128.73 284.07,128.87 284.05,129.06ZM232.14,149.06L230.71,129.25C230.69,128.97 230.38,128.75 230,128.75L206.75,128.75C206.38,128.75 206.09,129 206.14,129.27L209.91,149.31C209.96,149.56 210.2,149.75 210.5,149.75L231.5,149.75C231.87,149.75 232.17,149.43 232.14,149.06ZM267.5,149.25L268.98,129.25C269,128.98 268.78,128.75 268.5,128.75L246.5,128.75C246.06,128.75 245.7,129.09 245.73,129.5L247.1,148.93C247.13,149.39 247.52,149.75 248,149.75L266.75,149.75C267.15,149.75 267.48,149.53 267.5,149.25ZM213.01,165.75L216.67,185.31C216.72,185.56 216.96,185.75 217.25,185.75L234.25,185.75C234.57,185.75 234.81,185.4 234.78,185L233.37,165.18C233.35,164.94 233.08,164.75 232.75,164.75L213.75,164.75C213.27,164.75 212.91,165.23 213.01,165.75ZM264.9,185.32L266.39,165.49C266.42,165.09 266.12,164.75 265.75,164.75L249,164.75C248.66,164.75 248.39,164.98 248.41,165.25L249.83,185.24C249.85,185.53 250.14,185.75 250.5,185.75L264.5,185.75C264.7,185.75 264.88,185.56 264.9,185.32ZM281.37,165.18L279.95,185C279.92,185.44 280.2,185.81 280.56,185.81L296.69,185.75C296.99,185.75 297.24,185.54 297.29,185.26L301.05,165.51C301.13,165.12 300.86,164.75 300.5,164.75L281.75,164.75C281.56,164.75 281.39,164.94 281.37,165.18Z" style="fill:rgb(168,206,145);fill-rule:nonzero;"/>
        </g>
        <g transform="matrix(0.869337,0,0,0.869337,33.4497,33.351)">
            <path d="M436.93,149.81C431.64,149.81 418.25,150.98 414.09,148.13C410.15,145.43 410.32,138.38 414.59,135.86C418.5,133.54 431.79,134.75 436.77,134.75C437.16,134.76 437.48,134.44 437.48,134.05C437.51,129.15 436.32,116.33 438.39,112.38C441.25,106.92 449.28,107.28 451.64,112.8C453.64,117.46 452.52,128.5 452.49,133.99C452.49,134.4 452.83,134.74 453.24,134.74C458.71,134.73 464.29,134.75 469.98,134.78C481.72,134.85 481.27,149.42 470.18,149.69C467.65,149.75 461.93,149.78 453.04,149.78C452.76,149.78 452.53,150 452.53,150.27C452.5,156.12 452.46,161.94 452.39,167.73C452.3,175.46 442.97,179.13 438.72,172.41C436.29,168.55 437.49,155.29 437.44,150.31C437.44,150.03 437.21,149.81 436.93,149.81Z" style="fill:rgb(168,206,145);fill-rule:nonzero;"/>
        </g>
        <g transform="matrix(0.869337,0,0,0.869337,33.4497,33.351)">
            <path d="M100.62,267.91C100.62,271.92 97.37,275.17 93.36,275.17L48.78,275.17C44.77,275.17 41.52,271.92 41.52,267.91L41.52,267.51C41.52,263.5 44.77,260.25 48.78,260.25L93.36,260.25C97.37,260.25 100.62,263.5 100.62,267.51L100.62,267.91Z" style="fill:rgb(168,206,145);fill-rule:nonzero;"/>
        </g>
        <g transform="matrix(0.869337,0,0,0.869337,33.4497,33.351)">
            <path d="M138.98,301.62C138.98,305.68 135.68,308.98 131.62,308.98L48.86,308.98C44.8,308.98 41.5,305.68 41.5,301.62L41.5,301.36C41.5,297.3 44.8,294 48.86,294L131.62,294C135.68,294 138.98,297.3 138.98,301.36L138.98,301.62Z" style="fill:rgb(168,206,145);fill-rule:nonzero;"/>
        </g>
    </g>
</svg>
