<?xml version="1.0" encoding="UTF-8" standalone="no"?>
<!DOCTYPE svg PUBLIC "-//W3C//DTD SVG 1.1//EN" "http://www.w3.org/Graphics/SVG/1.1/DTD/svg11.dtd">
<svg width="100%" height="100%" viewBox="0 0 1200 1200" version="1.1" xmlns="http://www.w3.org/2000/svg" xmlns:xlink="http://www.w3.org/1999/xlink" xml:space="preserve" xmlns:serif="http://www.serif.com/" style="fill-rule:evenodd;clip-rule:evenodd;stroke-linejoin:round;stroke-miterlimit:2;">
    <g>
        <path d="M800.135,80.719C798.54,86.32 792.71,89.56 787.11,87.969L786.475,87.788C780.88,86.19 777.63,80.36 779.226,74.763L791.385,32.081C792.98,26.48 798.81,23.24 804.409,24.832L805.044,25.013C810.64,26.61 813.89,32.44 812.293,38.037L800.135,80.719Z" style="fill:rgb(168,206,145);fill-rule:nonzero;"/>
        <path d="M570.24,500.42C605.52,537.14 641.13,570.47 660.02,590.23C685.77,617.17 684.68,659.38 660.05,686.56C658.08,688.73 656.1,690.14 654.09,690.79C646.74,693.19 643.2,689.03 637.72,683.56C612.54,658.42 587.38,633.27 562.23,608.1C561.12,606.99 559.82,606.16 558.34,605.62C549.75,602.47 541.2,599.28 532.68,596.07C532.39,595.97 532.07,596.04 531.84,596.25C526.83,601.04 521.75,606.59 516.37,610.11C500.04,620.8 478.15,621.44 461.46,610.65C458.51,608.74 454.25,605.04 448.69,599.57C439.5,590.52 430.34,581.45 421.19,572.36C421,572.17 420.69,572.18 420.5,572.38C414.96,578.31 408.28,577.84 402.86,572.43C390.1,559.72 377.36,547.01 364.65,534.28C358.58,528.22 356.35,521.96 363.49,515.36C363.81,515.06 363.84,514.57 363.56,514.24C347.17,494.46 349.42,465.31 366.95,447.21C376.16,437.71 397.82,416.11 431.94,382.4C438.22,376.19 443.91,374.69 450.46,381.18C457.19,387.85 463.93,394.51 470.66,401.18C470.86,401.37 471.18,401.37 471.38,401.18L490.12,382.45C490.32,382.25 490.32,381.93 490.13,381.73C488.29,379.8 486.48,377.87 484.7,375.93C475.15,365.56 472.73,351.07 477.79,338.57C479.14,335.23 482.69,329.61 488.42,321.71C540.07,250.5 591.75,179.31 643.44,108.13C643.62,107.9 643.61,107.57 643.42,107.34C642.04,105.69 640.6,104.08 639.09,102.52C628.51,91.58 629.55,77.95 639.48,67.23C651.05,54.74 661.78,43.69 678.89,51.6C683.06,53.52 686.38,57.21 689.74,60.52C699.77,70.4 709.75,80.34 719.68,90.33C719.91,90.57 720.23,90.7 720.56,90.7C765.9,90.7 813.51,127.5 841.31,160.87C862.69,186.54 880.75,217.43 881.8,251.39C881.81,251.71 881.94,252.02 882.17,252.25C893.46,263.59 904.76,274.9 916.07,286.17C925.75,295.82 926.11,310.48 916.77,320.52C905.32,332.81 894.49,345.59 876.71,337.54C872.28,335.54 868.67,331.61 865.11,328.09C864.9,327.89 864.58,327.86 864.35,328.03C791.89,380.34 719.42,432.64 646.93,484.91C640.57,489.5 635.67,492.43 632.22,493.71C615.82,499.79 601.21,493.48 589.93,481C589.7,480.74 589.29,480.73 589.05,480.97L570.25,499.7C570.05,499.89 570.05,500.21 570.24,500.42ZM901.223,305.359C902.11,304.47 902.11,303.02 901.217,302.135L669.434,71.159C668.54,70.27 667.1,70.27 666.21,71.165L653.956,83.462C653.07,84.35 653.07,85.8 653.962,86.686L885.745,317.662C886.64,318.55 888.08,318.55 888.969,317.656L901.223,305.359ZM747.78,117.9L854.36,224.32C854.6,224.55 854.66,224.51 854.55,224.2C838.24,178.96 792.42,135.01 747.99,117.59C747.42,117.36 747.35,117.47 747.78,117.9ZM848.66,311.96C785.81,249.02 722.83,186.33 659.8,123.53C659.61,123.35 659.3,123.37 659.15,123.58C606.69,195.74 554.28,267.93 501.91,340.15C495.26,349.31 494.83,355.54 503.2,363.84C538.17,398.54 573.04,433.33 607.82,468.21C616.06,476.47 622.41,475.83 631.78,469.07C704.09,416.9 776.36,364.74 848.61,312.59C848.82,312.44 848.84,312.14 848.66,311.96ZM573.659,465.533C573.78,465.41 573.78,465.2 573.658,465.08L506.068,397.726C505.94,397.6 505.74,397.6 505.615,397.727L486.74,416.668C486.62,416.79 486.62,417 486.741,417.12L554.331,484.475C554.46,484.6 554.66,484.6 554.784,484.474L573.659,465.533ZM401.56,477.08C414.85,463.9 434.9,461.76 450.09,472.94C461.78,481.53 470.21,492.78 470.25,507.52C470.28,517.28 466.36,526.88 459.45,533.7C451.86,541.19 444.32,548.77 436.83,556.44C436.64,556.63 436.64,556.95 436.83,557.15C447.08,567.5 457.38,577.78 467.74,588.01C477.04,597.2 491.14,599.58 502.41,593.25C504.98,591.8 509.14,588.18 514.88,582.38C532.36,564.71 549.98,547.11 567.73,529.57C567.92,529.38 567.92,529.06 567.73,528.87L442.13,403.53C441.94,403.34 441.62,403.34 441.43,403.53C422.88,421.98 404.38,440.45 385.91,458.96C374.21,470.68 369.76,482.53 378.69,498.52C378.94,498.98 379.57,499.06 379.94,498.69C387.01,491.58 394.21,484.37 401.56,477.08ZM385.75,524.63L411.16,549.97C411.35,550.16 411.66,550.15 411.86,549.96C421.54,540.33 431.2,530.69 440.85,521.03C448.69,513.18 451,504.91 442.92,496C435.04,487.31 425.17,484.83 416.23,493.72C406.22,503.68 396.07,513.74 385.76,523.9C385.56,524.1 385.55,524.43 385.75,524.63ZM549.89,579.37C556.96,581.89 563.87,584.51 570.6,587.24C572.21,587.89 573.63,588.83 574.88,590.08C599.61,614.75 624.37,639.47 649.15,664.22C649.33,664.4 649.63,664.36 649.77,664.14C659.65,648.38 659.75,628.44 649.89,612.55C648.01,609.51 644.47,605.38 639.26,600.16C620.89,581.75 602.57,563.42 584.28,545.17C583.98,544.87 583.5,544.88 583.2,545.18L549.72,578.65C549.5,578.87 549.59,579.26 549.89,579.37Z" style="fill:rgb(168,206,145);fill-rule:nonzero;"/>
        <path d="M882.889,89.868C886.99,93.99 886.98,100.65 882.863,104.76L858.68,128.858C854.56,132.96 847.89,132.95 843.788,128.832L843.351,128.393C839.25,124.27 839.26,117.61 843.377,113.501L867.559,89.403C871.68,85.3 878.35,85.31 882.451,89.429L882.889,89.868Z" style="fill:rgb(168,206,145);fill-rule:nonzero;"/>
        <path d="M947.719,167.666C949.3,173.24 946.06,179.04 940.481,180.616L897.47,192.787C891.9,194.36 886.1,191.12 884.52,185.55L884.34,184.915C882.76,179.34 886,173.541 891.578,171.965L934.589,159.794C940.16,158.22 945.96,161.46 947.539,167.031L947.719,167.666Z" style="fill:rgb(168,206,145);fill-rule:nonzero;"/>
        <path d="M574.584,321.506C571.09,326.31 564.37,327.37 559.568,323.885L559.39,323.755C554.59,320.27 553.52,313.54 557.012,308.74L647.296,184.475C650.79,179.67 657.51,178.61 662.311,182.096L662.489,182.226C667.29,185.71 668.36,192.44 664.867,197.241L574.584,321.506Z" style="fill:rgb(168,206,145);fill-rule:nonzero;"/>
        <path d="M691,511.15C667.03,511.03 666.63,476.34 689.75,476.1C801.84,474.97 963.46,476.72 1051,475.97C1076.04,475.75 1098.59,492.66 1103.66,517.39C1104.39,520.92 1104.75,527.57 1104.75,537.32L1104.75,1073.75C1104.74,1099.48 1087.17,1121.03 1062.11,1126.09C1058.39,1126.84 1051.75,1127.21 1042.18,1127.22C915.78,1127.32 839.57,1127.31 813.56,1127.2C592.72,1126.23 371.85,1127.32 151,1127.25C125.44,1127.25 102.15,1110.31 97.26,1084.93C96.59,1081.4 96.25,1074.76 96.25,1065L96.25,533.25C96.25,527 96.29,519.61 98.3,513.41C105.03,492.66 123.87,476.33 146.56,476.25C195.43,476.07 244.29,475.99 293.15,476.01C302.96,476.01 312.82,475.87 322.64,476.11C325.98,476.2 328.64,476.71 330.63,477.66C344.4,484.25 343.35,505.16 328.42,510.2C326.39,510.89 323.02,511.23 318.32,511.23C263.97,511.26 209.61,511.26 155.26,511.24C149.55,511.24 145.45,511.73 142.94,512.71C133.7,516.32 131.75,524.07 131.75,533.76C131.76,712.19 131.75,890.62 131.74,1069.05C131.74,1073.76 132.19,1077.34 133.1,1079.77C136.07,1087.73 142.56,1091.71 152.57,1091.72C266.11,1091.77 379.65,1091.77 493.2,1091.71C543.76,1091.69 598.83,1091.2 663.25,1091.49C764.77,1091.96 892.8,1091.98 1047.34,1091.54C1056.84,1091.51 1064.25,1089.35 1067.79,1080.3C1068.76,1077.83 1069.25,1073.85 1069.25,1068.36L1069.25,533.75C1069.25,524.05 1067.25,516.3 1058.01,512.68C1055.55,511.72 1051.65,511.24 1046.31,511.24C927.87,511.26 809.44,511.77 691,511.15Z" style="fill:rgb(168,206,145);fill-rule:nonzero;"/>
        <path d="M883.54,703.87L688.94,857.23C688.69,857.43 688.52,857.72 688.46,858.04C675.05,936.51 566.29,938.77 549.01,860.95C548.97,860.75 548.82,860.58 548.63,860.5L360,781.45C359.64,781.3 359.23,781.47 359.07,781.83C330.51,849.87 230.61,835.89 223.05,762.43C222.27,754.84 222.89,747.13 224.9,739.3C236.75,693.15 290.63,671.63 330.96,697.02C347.89,707.68 358.54,723.19 362.9,743.54C362.96,743.84 363.18,744.09 363.47,744.22L552.2,823.31C552.44,823.41 552.71,823.3 552.8,823.06C575.64,766.54 652.95,763.25 681.37,816.62C681.56,816.98 682.03,817.07 682.35,816.82L876.45,663.69C876.69,663.5 876.85,663.23 876.91,662.92C882.49,630.88 907.22,605.37 940.49,602.67C988.47,598.79 1028.45,642.88 1015.03,690.77C997.82,752.15 913.66,760.93 884.17,704.01C884.05,703.78 883.74,703.71 883.54,703.87ZM981.39,672.37C981.39,653.35 965.98,637.94 946.96,637.94C927.94,637.94 912.53,653.35 912.53,672.37C912.53,691.39 927.94,706.8 946.96,706.8C965.98,706.8 981.39,691.39 981.39,672.37ZM327.79,756.23C327.79,737.21 312.38,721.8 293.36,721.8C274.34,721.8 258.93,737.21 258.93,756.23C258.93,775.25 274.34,790.66 293.36,790.66C312.38,790.66 327.79,775.25 327.79,756.23ZM652.96,848.42C652.96,829.4 637.55,813.99 618.53,813.99C599.51,813.99 584.1,829.4 584.1,848.42C584.1,867.44 599.51,882.85 618.53,882.85C637.55,882.85 652.96,867.44 652.96,848.42Z" style="fill:rgb(168,206,145);fill-rule:nonzero;"/>
        <path d="M497.04,1003C497.04,1012.68 489.2,1020.52 479.52,1020.52L240.46,1020.52C230.78,1020.52 222.94,1012.68 222.94,1003L222.94,1002.48C222.94,992.8 230.78,984.96 240.46,984.96L479.52,984.96C489.2,984.96 497.04,992.8 497.04,1002.48L497.04,1003Z" style="fill:rgb(168,206,145);fill-rule:nonzero;"/>
        <path d="M717.82,1003.23C717.82,1012.79 710.07,1020.54 700.51,1020.54L589.25,1020.54C579.69,1020.54 571.94,1012.79 571.94,1003.23L571.94,1002.29C571.94,992.73 579.69,984.98 589.25,984.98L700.51,984.98C710.07,984.98 717.82,992.73 717.82,1002.29L717.82,1003.23Z" style="fill:rgb(168,206,145);fill-rule:nonzero;"/>
        <path d="M1017.33,1003.07C1017.33,1012.73 1009.5,1020.56 999.84,1020.56L810.36,1020.56C800.7,1020.56 792.87,1012.73 792.87,1003.07L792.87,1002.43C792.87,992.77 800.7,984.94 810.36,984.94L999.84,984.94C1009.5,984.94 1017.33,992.77 1017.33,1002.43L1017.33,1003.07Z" style="fill:rgb(168,206,145);fill-rule:nonzero;"/>
    </g>
</svg>
