<?xml version="1.0" encoding="UTF-8" standalone="no"?>
<!DOCTYPE svg PUBLIC "-//W3C//DTD SVG 1.1//EN" "http://www.w3.org/Graphics/SVG/1.1/DTD/svg11.dtd">
<svg width="100%" height="100%" viewBox="0 0 512 512" version="1.1" xmlns="http://www.w3.org/2000/svg" xmlns:xlink="http://www.w3.org/1999/xlink" xml:space="preserve" xmlns:serif="http://www.serif.com/" style="fill-rule:evenodd;clip-rule:evenodd;stroke-linejoin:round;stroke-miterlimit:2;">
    <g>
        <path d="M265.546,47.124C265.55,47.37 265.35,47.56 265.108,47.566L239.468,47.655C239.23,47.66 239.03,47.46 239.027,47.217L238.993,37.497C238.99,37.25 239.19,37.06 239.431,37.055L265.071,36.966C265.31,36.96 265.51,37.16 265.513,37.404L265.546,47.124Z" style="fill:rgb(168,206,145);fill-rule:nonzero;"/>
        <path d="M303.008,46.917C303.01,47.31 302.69,47.63 302.299,47.628L276.979,47.673C276.59,47.67 276.27,47.36 276.268,46.964L276.252,37.724C276.25,37.33 276.57,37.01 276.96,37.013L302.28,36.968C302.67,36.97 302.99,37.28 302.991,37.677L303.008,46.917Z" style="fill:rgb(168,206,145);fill-rule:nonzero;"/>
        <path d="M340.266,47.024C340.27,47.33 340.02,47.57 339.718,47.576L314.078,47.665C313.77,47.67 313.53,47.42 313.526,47.117L313.493,37.597C313.49,37.29 313.74,37.05 314.041,37.045L339.681,36.956C339.99,36.95 340.23,37.2 340.233,37.504L340.266,47.024Z" style="fill:rgb(168,206,145);fill-rule:nonzero;"/>
        <path d="M377.546,47.124C377.55,47.37 377.35,47.57 377.098,47.576L351.478,47.665C351.23,47.67 351.03,47.46 351.027,47.217L350.993,37.497C350.99,37.25 351.19,37.05 351.441,37.045L377.061,36.956C377.31,36.95 377.51,37.16 377.513,37.404L377.546,47.124Z" style="fill:rgb(168,206,145);fill-rule:nonzero;"/>
        <path d="M415.008,46.977C415.01,47.33 414.72,47.62 414.369,47.618L388.909,47.663C388.56,47.66 388.27,47.38 388.268,47.024L388.251,37.664C388.25,37.31 388.54,37.02 388.89,37.023L414.35,36.978C414.7,36.98 414.99,37.26 414.991,37.617L415.008,46.977Z" style="fill:rgb(168,206,145);fill-rule:nonzero;"/>
        <path d="M85.75,441.25L85.75,399.75C85.75,399.31 85.5,398.95 85.19,398.95L43,398.99C42.59,398.99 42.25,398.66 42.25,398.25L42.25,114C42.25,113.72 42.47,113.5 42.75,113.5L85.25,113.5C85.53,113.5 85.75,113.28 85.75,113L85.75,71C85.75,70.72 85.53,70.5 85.25,70.5L48.25,70.5C47.94,70.5 47.68,70.3 47.68,70.06L47.74,60.5C47.74,60.22 47.97,60 48.25,60L472.81,59.99C473.05,59.99 473.25,60.22 473.25,60.5L473.25,70C473.25,70.28 472.91,70.5 472.5,70.5L435.75,70.5C435.34,70.5 435,70.84 435,71.25L435,112.75C435,113.16 435.34,113.5 435.75,113.5L478,113.5C478.28,113.5 478.5,113.72 478.5,114L478.5,398.5C478.5,398.77 478.25,398.99 477.94,398.99L435.5,399C435.22,399 435,399.22 435,399.5L435,441.25C435,441.55 435.2,441.79 435.44,441.79L472.5,441.76C472.86,441.76 473.16,441.95 473.16,442.18L473.16,452.07C473.16,452.31 472.86,452.5 472.5,452.5L48.25,452.5C47.97,452.5 47.75,452.28 47.75,452L47.75,442.25C47.75,441.97 47.97,441.75 48.25,441.75L85.25,441.75C85.53,441.75 85.75,441.53 85.75,441.25ZM153.5,71.14C153.5,70.79 153.21,70.5 152.86,70.5L97.14,70.5C96.79,70.5 96.5,70.79 96.5,71.14L96.5,112.86C96.5,113.21 96.79,113.5 97.14,113.5L152.86,113.5C153.21,113.5 153.5,113.21 153.5,112.86L153.5,71.14ZM221.25,71.11C221.25,70.77 220.98,70.5 220.64,70.5L164.86,70.5C164.52,70.5 164.25,70.77 164.25,71.11L164.25,112.89C164.25,113.23 164.52,113.5 164.86,113.5L220.64,113.5C220.98,113.5 221.25,113.23 221.25,112.89L221.25,71.11ZM289,71.06C289,70.75 288.75,70.5 288.44,70.5L232.56,70.5C232.25,70.5 232,70.75 232,71.06L232,112.94C232,113.25 232.25,113.5 232.56,113.5L288.44,113.5C288.75,113.5 289,113.25 289,112.94L289,71.06ZM356.74,71.24C356.74,70.83 356.41,70.5 356,70.5L300.24,70.5C299.83,70.5 299.5,70.83 299.5,71.24L299.5,112.76C299.5,113.17 299.83,113.5 300.24,113.5L356,113.5C356.41,113.5 356.74,113.17 356.74,112.76L356.74,71.24ZM424.25,71.05C424.25,70.75 424,70.5 423.7,70.5L367.8,70.5C367.5,70.5 367.25,70.75 367.25,71.05L367.25,112.95C367.25,113.25 367.5,113.5 367.8,113.5L423.7,113.5C424,113.5 424.25,113.25 424.25,112.95L424.25,71.05ZM467.76,124.5C467.76,124.23 467.54,124.01 467.27,124.01L53.49,124.01C53.22,124.01 53,124.23 53,124.5L53,387.76C53,388.03 53.22,388.25 53.49,388.25L467.27,388.25C467.54,388.25 467.76,388.03 467.76,387.76L467.76,124.5ZM153.5,399.5C153.5,399.22 153.27,398.99 152.99,398.99L97.01,398.99C96.73,398.99 96.5,399.22 96.5,399.5L96.5,441.24C96.5,441.52 96.73,441.75 97.01,441.75L152.99,441.75C153.27,441.75 153.5,441.52 153.5,441.24L153.5,399.5ZM221.25,399.38C221.25,399.16 221.08,398.99 220.86,398.99L164.64,398.99C164.42,398.99 164.25,399.16 164.25,399.38L164.25,441.36C164.25,441.58 164.42,441.75 164.64,441.75L220.86,441.75C221.08,441.75 221.25,441.58 221.25,441.36L221.25,399.38ZM356.75,399.63C356.75,399.28 356.46,398.99 356.11,398.99L300.15,398.99C299.8,398.99 299.51,399.28 299.51,399.63L299.51,441.11C299.51,441.46 299.8,441.75 300.15,441.75L356.11,441.75C356.46,441.75 356.75,441.46 356.75,441.11L356.75,399.63ZM424.26,399.49C424.26,399.21 424.04,398.99 423.76,398.99L367.76,398.99C367.48,398.99 367.26,399.21 367.26,399.49L367.26,441.25C367.26,441.53 367.48,441.75 367.76,441.75L423.76,441.75C424.04,441.75 424.26,441.53 424.26,441.25L424.26,399.49ZM289,399.39C289,399.17 288.83,399 288.61,399L232.39,399C232.17,399 232,399.17 232,399.39L232,441.37C232,441.59 232.17,441.76 232.39,441.76L288.61,441.76C288.83,441.76 289,441.59 289,441.37L289,399.39Z" style="fill:rgb(168,206,145);fill-rule:nonzero;"/>
        <path d="M103.99,150.25C103.99,150.66 103.66,150.99 103.25,150.99L77.99,150.99C77.58,150.99 77.25,150.66 77.25,150.25L77.25,140.99C77.25,140.58 77.58,140.25 77.99,140.25L103.25,140.25C103.66,140.25 103.99,140.58 103.99,140.99L103.99,150.25Z" style="fill:rgb(168,206,145);fill-rule:nonzero;"/>
        <path d="M141.25,150.17C141.25,150.62 140.88,150.99 140.43,150.99L115.31,150.99C114.86,150.99 114.49,150.62 114.49,150.17L114.49,141.07C114.49,140.62 114.86,140.25 115.31,140.25L140.43,140.25C140.88,140.25 141.25,140.62 141.25,141.07L141.25,150.17Z" style="fill:rgb(168,206,145);fill-rule:nonzero;"/>
        <path d="M178.51,150.36C178.51,150.71 178.23,150.99 177.88,150.99L152.48,150.99C152.13,150.99 151.85,150.71 151.85,150.36L151.85,140.88C151.85,140.53 152.13,140.25 152.48,140.25L177.88,140.25C178.23,140.25 178.51,140.53 178.51,140.88L178.51,150.36Z" style="fill:rgb(168,206,145);fill-rule:nonzero;"/>
        <path d="M215.99,150.25C215.99,150.66 215.66,150.99 215.25,150.99L189.99,150.99C189.58,150.99 189.25,150.66 189.25,150.25L189.25,140.99C189.25,140.58 189.58,140.25 189.99,140.25L215.25,140.25C215.66,140.25 215.99,140.58 215.99,140.99L215.99,150.25Z" style="fill:rgb(168,206,145);fill-rule:nonzero;"/>
        <path d="M253.25,150.17C253.25,150.62 252.88,150.99 252.43,150.99L227.31,150.99C226.86,150.99 226.49,150.62 226.49,150.17L226.49,141.07C226.49,140.62 226.86,140.25 227.31,140.25L252.43,140.25C252.88,140.25 253.25,140.62 253.25,141.07L253.25,150.17Z" style="fill:rgb(168,206,145);fill-rule:nonzero;"/>
        <path d="M290.518,150.327C290.52,150.68 290.23,150.97 289.879,150.968L264.499,151.013C264.15,151.01 263.86,150.73 263.858,150.374L263.841,140.914C263.84,140.56 264.13,140.27 264.48,140.273L289.86,140.228C290.21,140.23 290.5,140.51 290.501,140.867L290.518,150.327Z" style="fill:rgb(168,206,145);fill-rule:nonzero;"/>
        <path d="M327.99,150.25C327.99,150.66 327.66,150.99 327.25,150.99L301.99,150.99C301.58,150.99 301.25,150.66 301.25,150.25L301.25,140.99C301.25,140.58 301.58,140.25 301.99,140.25L327.25,140.25C327.66,140.25 327.99,140.58 327.99,140.99L327.99,150.25Z" style="fill:rgb(168,206,145);fill-rule:nonzero;"/>
        <path d="M365.25,150.17C365.25,150.62 364.88,150.99 364.43,150.99L339.31,150.99C338.86,150.99 338.49,150.62 338.49,150.17L338.49,141.07C338.49,140.62 338.86,140.25 339.31,140.25L364.43,140.25C364.88,140.25 365.25,140.62 365.25,141.07L365.25,150.17Z" style="fill:rgb(168,206,145);fill-rule:nonzero;"/>
        <path d="M402.51,150.36C402.51,150.71 402.23,150.99 401.88,150.99L376.48,150.99C376.13,150.99 375.85,150.71 375.85,150.36L375.85,140.88C375.85,140.53 376.13,140.25 376.48,140.25L401.88,140.25C402.23,140.25 402.51,140.53 402.51,140.88L402.51,150.36Z" style="fill:rgb(168,206,145);fill-rule:nonzero;"/>
        <path d="M439.98,150.25C439.98,150.66 439.65,150.99 439.24,150.99L413.98,150.99C413.57,150.99 413.24,150.66 413.24,150.25L413.24,140.99C413.24,140.58 413.57,140.25 413.98,140.25L439.24,140.25C439.65,140.25 439.98,140.58 439.98,140.99L439.98,150.25Z" style="fill:rgb(168,206,145);fill-rule:nonzero;"/>
        <path d="M451.772,175.791C451.77,176.18 451.46,176.49 451.073,176.492L441.733,176.509C441.35,176.51 441.03,176.2 441.032,175.81L440.987,150.45C440.99,150.06 441.3,149.75 441.686,149.749L451.026,149.732C451.41,149.73 451.73,150.04 451.727,150.431L451.772,175.791Z" style="fill:rgb(168,206,145);fill-rule:nonzero;"/>
        <path d="M79.772,179.411C79.77,179.76 79.49,180.05 79.133,180.052L69.693,180.069C69.34,180.07 69.05,179.78 69.052,179.43L69.007,154.15C69.01,153.8 69.29,153.51 69.646,153.509L79.086,153.492C79.44,153.49 79.73,153.78 79.727,154.131L79.772,179.411Z" style="fill:rgb(168,206,145);fill-rule:nonzero;"/>
        <path d="M354.5,256.16C354.5,308.13 312.37,350.26 260.4,350.26C208.43,350.26 166.3,308.13 166.3,256.16C166.3,204.19 208.43,162.06 260.4,162.06C312.37,162.06 354.5,204.19 354.5,256.16ZM343.84,256.16C343.84,210.08 306.48,172.72 260.4,172.72C214.32,172.72 176.96,210.08 176.96,256.16C176.96,302.24 214.32,339.6 260.4,339.6C306.48,339.6 343.84,302.24 343.84,256.16Z" style="fill:rgb(168,206,145);fill-rule:nonzero;"/>
        <path d="M33.026,204.141C33.03,204.47 32.759,204.74 32.427,204.742L22.867,204.759C22.54,204.76 22.27,204.49 22.266,204.16L22.233,184.86C22.23,184.53 22.5,184.26 22.832,184.259L32.392,184.242C32.72,184.24 32.99,184.51 32.993,184.841L33.026,204.141Z" style="fill:rgb(168,206,145);fill-rule:nonzero;"/>
        <path d="M451.76,213.16C451.76,213.49 451.49,213.76 451.16,213.76L441.6,213.76C441.27,213.76 441,213.49 441,213.16L441,187.6C441,187.27 441.27,187 441.6,187L451.16,187C451.49,187 451.76,187.27 451.76,187.6L451.76,213.16Z" style="fill:rgb(168,206,145);fill-rule:nonzero;"/>
        <path d="M79.771,216.651C79.77,217.12 79.39,217.5 78.923,217.503L69.883,217.518C69.41,217.52 69.03,217.14 69.031,216.67L68.988,191.61C68.99,191.14 69.37,190.76 69.836,190.758L78.876,190.743C79.35,190.74 79.73,191.12 79.728,191.591L79.771,216.651Z" style="fill:rgb(168,206,145);fill-rule:nonzero;"/>
        <path d="M225.96,206.88L313.91,255.9C314.12,256.02 314.12,256.32 313.91,256.44L225.96,305.46C225.75,305.58 225.5,305.43 225.5,305.19L225.5,207.15C225.5,206.91 225.75,206.76 225.96,206.88ZM236.76,225.1C236.53,224.97 236.25,225.13 236.25,225.39L236.25,286.95C236.25,287.21 236.53,287.37 236.76,287.24L291.97,256.47C292.2,256.34 292.2,256 291.97,255.87L236.76,225.1Z" style="fill:rgb(168,206,145);fill-rule:nonzero;"/>
        <path d="M32.99,354.51C32.99,354.78 32.78,354.99 32.509,354.99L22.73,354.99C22.46,354.99 22.25,354.78 22.25,354.51L22.25,216.23C22.25,215.96 22.46,215.75 22.73,215.75L32.509,215.75C32.78,215.75 32.99,215.96 32.99,216.23L32.99,354.51Z" style="fill:rgb(168,206,145);fill-rule:nonzero;"/>
        <path d="M451.728,250.36C451.73,250.72 451.44,251.011 451.076,251.009L441.636,250.992C441.28,250.99 440.99,250.701 440.988,250.341L441.032,225.101C441.03,224.74 441.32,224.45 441.683,224.452L451.123,224.469C451.48,224.47 451.77,224.76 451.772,225.12L451.728,250.36Z" style="fill:rgb(168,206,145);fill-rule:nonzero;"/>
        <path d="M79.75,254.09C79.75,254.46 79.45,254.761 79.08,254.761L69.68,254.761C69.31,254.761 69.01,254.46 69.01,254.09L69.01,228.69C69.01,228.32 69.31,228.02 69.68,228.02L79.08,228.02C79.45,228.02 79.75,228.32 79.75,228.69L79.75,254.09Z" style="fill:rgb(168,206,145);fill-rule:nonzero;"/>
        <path d="M451.727,287.83C451.73,288.21 451.42,288.52 451.036,288.519L441.676,288.502C441.3,288.5 440.99,288.19 440.987,287.811L441.032,262.431C441.03,262.05 441.34,261.74 441.723,261.742L451.083,261.759C451.46,261.76 451.77,262.07 451.772,262.45L451.727,287.83Z" style="fill:rgb(168,206,145);fill-rule:nonzero;"/>
        <path d="M79.772,291.411C79.77,291.76 79.49,292.05 79.133,292.052L69.693,292.069C69.34,292.07 69.05,291.78 69.052,291.43L69.007,266.15C69.01,265.8 69.29,265.51 69.646,265.509L79.086,265.492C79.44,265.49 79.73,265.78 79.727,266.131L79.772,291.411Z" style="fill:rgb(168,206,145);fill-rule:nonzero;"/>
        <path d="M390.271,302.911C390.27,303.24 390.01,303.5 389.682,303.502L380.102,303.519C379.78,303.52 379.51,303.26 379.511,302.93L379.489,290.35C379.49,290.02 379.75,289.76 380.078,289.759L389.658,289.742C389.98,289.74 390.25,290 390.249,290.331L390.271,302.911Z" style="fill:rgb(168,206,145);fill-rule:nonzero;"/>
        <path d="M451.76,325.16C451.76,325.49 451.49,325.76 451.16,325.76L441.6,325.76C441.27,325.76 441,325.49 441,325.16L441,299.6C441,299.27 441.27,299 441.6,299L451.16,299C451.49,299 451.76,299.27 451.76,299.6L451.76,325.16Z" style="fill:rgb(168,206,145);fill-rule:nonzero;"/>
        <path d="M79.771,328.651C79.77,329.12 79.39,329.5 78.923,329.503L69.883,329.518C69.41,329.52 69.03,329.14 69.031,328.67L68.988,303.61C68.99,303.14 69.37,302.76 69.836,302.758L78.876,302.743C79.35,302.74 79.73,303.12 79.728,303.591L79.771,328.651Z" style="fill:rgb(168,206,145);fill-rule:nonzero;"/>
        <path d="M376.741,316.342C376.74,316.71 376.45,317 376.08,317.001L363.6,316.98C363.24,316.98 362.94,316.68 362.941,316.318L362.958,306.898C362.96,306.53 363.25,306.24 363.619,306.24L376.099,306.261C376.46,306.26 376.76,306.56 376.758,306.922L376.741,316.342Z" style="fill:rgb(168,206,145);fill-rule:nonzero;"/>
        <path d="M406.798,316.338C406.8,316.7 406.51,316.99 406.149,316.99L393.669,317.011C393.31,317.01 393.02,316.72 393.018,316.362L393.001,306.922C393,306.56 393.29,306.27 393.65,306.271L406.13,306.25C406.49,306.25 406.78,306.54 406.781,306.898L406.798,316.338Z" style="fill:rgb(168,206,145);fill-rule:nonzero;"/>
        <path d="M390.271,332.932C390.27,333.34 389.94,333.67 389.534,333.674L380.274,333.707C379.87,333.71 379.53,333.38 379.531,332.969L379.488,320.509C379.49,320.1 379.82,319.77 380.225,319.767L389.485,319.734C389.89,319.73 390.23,320.06 390.228,320.472L390.271,332.932Z" style="fill:rgb(168,206,145);fill-rule:nonzero;"/>
        <path d="M451.728,362.36C451.73,362.72 451.44,363.01 451.076,363.009L441.636,362.992C441.28,362.99 440.99,362.7 440.988,362.341L441.032,337.101C441.03,336.74 441.32,336.45 441.683,336.452L451.123,336.469C451.48,336.47 451.77,336.76 451.772,337.12L451.728,362.36Z" style="fill:rgb(168,206,145);fill-rule:nonzero;"/>
        <path d="M69.56,340.06L79.25,340.01C79.53,340.01 79.75,340.34 79.75,340.75L79.75,361C79.75,361.28 79.97,361.5 80.25,361.5L102.75,361.5C103.13,361.5 103.44,361.72 103.44,362L103.42,371.57C103.42,371.8 103.12,371.99 102.74,372.01C94.7,372.32 86.32,371.67 78.45,372.28C76.97,372.39 76.5,371.27 77.03,368.9C77.36,367.43 76.87,366.7 75.56,366.71L70,366.74C69.45,366.75 69.01,366.41 69.01,366L69,341C69,340.48 69.25,340.07 69.56,340.06Z" style="fill:rgb(168,206,145);fill-rule:nonzero;"/>
        <path d="M140.75,371.44C140.75,371.77 140.48,372.04 140.15,372.04L114.61,372.04C114.28,372.04 114.01,371.77 114.01,371.44L114.01,362.1C114.01,361.77 114.28,361.5 114.61,361.5L140.15,361.5C140.48,361.5 140.75,361.77 140.75,362.1L140.75,371.44Z" style="fill:rgb(168,206,145);fill-rule:nonzero;"/>
        <path d="M178,371.64C178,371.97 177.73,372.24 177.4,372.24L152.06,372.24C151.73,372.24 151.46,371.97 151.46,371.64L151.46,362.1C151.46,361.77 151.73,361.5 152.06,361.5L177.4,361.5C177.73,361.5 178,361.77 178,362.1L178,371.64Z" style="fill:rgb(168,206,145);fill-rule:nonzero;"/>
        <path d="M215.478,371.567C215.48,371.8 215.29,372 215.049,371.998L189.189,372.043C188.95,372.04 188.76,371.85 188.758,371.614L188.741,361.954C188.74,361.72 188.93,361.52 189.17,361.523L215.03,361.478C215.27,361.48 215.46,361.67 215.461,361.907L215.478,371.567Z" style="fill:rgb(168,206,145);fill-rule:nonzero;"/>
        <path d="M252.757,371.377C252.76,371.84 252.39,372.21 251.929,372.209L226.849,372.252C226.39,372.25 226.02,371.88 226.017,371.424L226.002,362.344C226,361.88 226.37,361.51 226.83,361.512L251.91,361.469C252.37,361.47 252.74,361.84 252.742,362.297L252.757,371.377Z" style="fill:rgb(168,206,145);fill-rule:nonzero;"/>
        <path d="M290,371.64C290,371.97 289.73,372.24 289.4,372.24L264.06,372.24C263.73,372.24 263.46,371.97 263.46,371.64L263.46,362.1C263.46,361.77 263.73,361.5 264.06,361.5L289.4,361.5C289.73,361.5 290,361.77 290,362.1L290,371.64Z" style="fill:rgb(168,206,145);fill-rule:nonzero;"/>
        <path d="M327.47,371.57C327.47,371.82 327.27,372.02 327.02,372.02L301.2,372.02C300.95,372.02 300.75,371.82 300.75,371.57L300.75,361.95C300.75,361.7 300.95,361.5 301.2,361.5L327.02,361.5C327.27,361.5 327.47,361.7 327.47,361.95L327.47,371.57Z" style="fill:rgb(168,206,145);fill-rule:nonzero;"/>
        <path d="M364.75,371.44C364.75,371.77 364.48,372.04 364.15,372.04L338.61,372.04C338.28,372.04 338.01,371.77 338.01,371.44L338.01,362.1C338.01,361.77 338.28,361.5 338.61,361.5L364.15,361.5C364.48,361.5 364.75,361.77 364.75,362.1L364.75,371.44Z" style="fill:rgb(168,206,145);fill-rule:nonzero;"/>
        <path d="M402,371.64C402,371.97 401.73,372.24 401.4,372.24L376.06,372.24C375.73,372.24 375.46,371.97 375.46,371.64L375.46,362.1C375.46,361.77 375.73,361.5 376.06,361.5L401.4,361.5C401.73,361.5 402,361.77 402,362.1L402,371.64Z" style="fill:rgb(168,206,145);fill-rule:nonzero;"/>
        <path d="M439.481,371.614C439.48,371.87 439.27,372.08 439.01,372.083L413.21,372.038C412.95,372.04 412.74,371.83 412.741,371.567L412.758,361.947C412.76,361.69 412.97,361.48 413.229,361.478L439.029,361.523C439.29,361.52 439.5,361.73 439.498,361.994L439.481,371.614Z" style="fill:rgb(168,206,145);fill-rule:nonzero;"/>
        <path d="M210.223,476.747C210.22,477.04 209.98,477.28 209.691,477.275L195.511,477.226C195.22,477.22 194.98,476.99 194.983,476.694L195.016,467.234C195.02,466.94 195.26,466.7 195.548,466.706L209.728,466.755C210.02,466.76 210.26,466.99 210.256,467.287L210.223,476.747Z" style="fill:rgb(168,206,145);fill-rule:nonzero;"/>
        <path d="M183.24,476.98C183.24,477.13 183.12,477.25 182.97,477.25L58.77,477.25C58.62,477.25 58.5,477.13 58.5,476.98L58.5,467.02C58.5,466.87 58.62,466.75 58.77,466.75L182.97,466.75C183.12,466.75 183.24,466.87 183.24,467.02L183.24,476.98Z" style="fill:rgb(168,206,145);fill-rule:nonzero;"/>
    </g>
</svg>
