<?xml version="1.0" encoding="UTF-8" standalone="no"?>
<!DOCTYPE svg PUBLIC "-//W3C//DTD SVG 1.1//EN" "http://www.w3.org/Graphics/SVG/1.1/DTD/svg11.dtd">
<svg width="100%" height="100%" viewBox="0 0 512 512" version="1.1" xmlns="http://www.w3.org/2000/svg" xmlns:xlink="http://www.w3.org/1999/xlink" xml:space="preserve" xmlns:serif="http://www.serif.com/" style="fill-rule:evenodd;clip-rule:evenodd;stroke-linejoin:round;stroke-miterlimit:2;">
    <g>
        <path d="M288.74,180.22C303.08,189.71 317.4,199.24 331.69,208.8C334.43,210.63 335.65,212.74 336.04,216.19C338.22,235.45 340.36,254.71 342.47,273.97C342.5,274.29 342.69,274.57 342.97,274.72C356.97,282.44 366.04,291.77 367.78,308.45C368.54,315.78 365.93,319.97 358.38,319.98C340.83,320.01 323.27,320.01 305.72,319.98C303.45,319.98 301.74,319.7 300.57,319.13C294.49,316.18 294.58,307.68 300.69,304.8C301.8,304.27 303.43,304.01 305.58,304.01C320.39,304 335.19,303.99 349.99,304C350.32,304 350.55,303.66 350.41,303.36C341.96,284.3 323.42,287.97 306.43,288C300.81,288.01 297.05,286.52 296.08,280.74C293.66,266.42 291.25,252.1 288.85,237.77C288.8,237.48 288.57,237.21 288.23,237.04L268.18,227.09C267.83,226.92 267.4,227.09 267.21,227.47C260.519,241 253.94,254.16 247.48,266.96C246.03,269.83 243.69,271.44 240.48,271.78C218.22,274.17 195.97,276.46 173.72,278.65C173.4,278.68 173.13,278.88 173,279.16C165.97,294.35 154.05,302.64 137.25,304.05C130.22,304.64 128.009,299.36 128.009,293.07C128,276.35 128,259.63 128,242.92C128,235.77 130.119,232.03 137.52,232.01C148.26,231.99 160.35,233.06 170.87,231.02C180.68,229.11 190.5,227.21 200.33,225.32C200.76,225.24 201.09,224.9 201.16,224.47C203.31,211.44 205.5,198.32 207.73,185.1C208.84,178.53 211.1,176 217.72,176L271.51,176C271.78,176 271.99,175.79 271.99,175.52C272,166.73 272.01,157.89 272,149C271.99,141.87 279.43,139.01 285.22,142.51C294.59,148.18 303.98,153.83 313.37,159.48C313.65,159.65 313.98,159.72 314.3,159.68C329.05,157.81 343.79,155.95 358.52,154.09C361.63,153.7 363.78,153.04 364.98,152.13C370.09,148.22 368.21,140.17 362.1,138.76C360.86,138.47 358.8,138.54 355.92,138.95C344.11,140.64 332.31,142.33 320.5,144C318.53,144.28 315.97,143.02 314.23,141.62C302.03,131.85 289.82,122.09 277.61,112.32C277.35,112.11 277.03,112 276.71,112L223.26,112C219.09,112 214.94,112.34 210.83,113.01C198.67,115.01 186.52,117.03 174.37,119.06C174.07,119.11 173.82,119.32 173.71,119.6C167.82,135.14 162,150.68 156.23,166.23C154.61,170.59 160.48,174.43 164.36,172.51C165.45,171.97 166.54,170.79 167.63,168.98C173.43,159.4 179.23,149.82 185.02,140.24C187.13,136.76 189.65,136.03 193.84,136.02C201.06,136.01 208.28,135.99 215.49,135.98C225.27,135.97 224.06,145.81 223.98,152.5C223.9,160.48 212.66,162.65 208.79,155.31C208.33,154.42 208.4,153.42 207.95,152.46C207.82,152.18 207.54,152 207.25,152L197.25,152C196.77,152 196.33,152.26 196.09,152.67C191.94,159.68 187.74,166.69 183.5,173.68C180.19,179.15 177.38,182.8 175.08,184.61C160.39,196.15 139.56,184.69 140.39,166.42C140.52,163.55 141.5,159.71 143.32,154.9C148.44,141.37 153.5,127.84 158.5,114.29C159.38,111.9 160.39,109.57 161.54,107.29C162.36,105.66 163.67,104.7 165.47,104.39C181.76,101.61 198.13,98.87 214.58,96.17C216.09,95.93 218.09,96.21 219.79,95.8C220.04,95.74 220.17,95.47 220.05,95.25C214.92,85.53 215.95,77.07 215.98,64.23C215.99,56.08 216.34,50.45 217.01,47.34C220.32,32.07 232.86,19.82 248.31,16.81C254.77,15.54 265.49,15.83 271.5,15.98C278.37,16.15 279.99,20.78 279.99,27.05C280,44.28 280.01,61.52 280.01,78.75C280.01,84.26 278.68,89.76 276.01,95.26C275.68,95.93 275.89,96.2 276.62,96.08C280.6,95.44 283.23,96.34 286.5,98.95C298.29,108.37 310.08,117.8 321.85,127.24C322.1,127.44 322.42,127.52 322.74,127.48C332.11,126.22 341.46,124.91 350.79,123.54C357.16,122.6 361.82,122.4 364.75,122.93C381.25,125.89 389.37,144.99 380.25,159C374.11,168.44 366.2,169.25 354.1,170.78C340.07,172.55 326.03,174.31 312,176.04C308.5,176.47 292.7,165.73 288.78,163.32C288.27,163 288.01,163.14 288.01,163.75L288.05,179.57C288.05,179.68 288.33,179.95 288.74,180.22ZM263.38,32.11C250.63,31.15 238.7,34.44 233.5,47.5C233.4,47.73 233.57,47.99 233.81,47.99L263.25,48C263.66,48 264,47.78 264,47.5L264,32.75C264,32.42 263.73,32.14 263.38,32.11ZM231.99,79.99C232.28,100.46 262.47,101.35 264.02,80.74C264.16,78.89 264.11,73.51 263.88,64.6C263.87,64.27 263.59,64 263.25,64L232.5,64C232.3,64 232.13,64.27 232.12,64.6C231.96,69.81 231.92,74.94 231.99,79.99ZM254.07,218.03C257.519,211.16 260.019,205.28 268.45,209.26C271.71,210.79 280.73,215.3 295.52,222.79C300.33,225.23 303.18,226.44 304.03,231.49C306.2,244.49 308.42,257.81 310.67,271.44C310.72,271.76 310.97,272 311.25,272L325.75,272C326,272 326.18,271.74 326.15,271.44L320.67,222.01C320.57,221.11 320.11,220.32 319.41,219.85L278.17,192.34C277.84,192.12 277.51,192 277.25,192L223.25,192C222.97,192 222.73,192.18 222.69,192.42C220.46,206.02 218.15,219.6 215.76,233.15C215.09,236.92 212.92,239.19 209.24,239.96C205.33,240.78 194.46,242.89 176.64,246.28C176.27,246.35 176.01,246.65 176.01,247L176.05,262.07C176.05,262.25 176.4,262.37 176.81,262.33L234.26,256.57C234.65,256.53 235,256.27 235.19,255.891C241.4,243.34 247.69,230.72 254.07,218.03ZM144.61,286.36C161.57,279.48 160.38,263.58 159.9,248.6C159.89,248.27 159.71,248 159.5,248L144.5,248C144.22,248 144,248.22 144,248.5L144,286C144,286.29 144.32,286.48 144.61,286.36Z" style="fill:rgb(168,206,145);fill-rule:nonzero;"/>
        <path d="M128.69,437.2C144.04,429.74 156.6,415.96 164.02,400.75C164.19,400.41 163.93,400.01 163.55,400.01C133.89,400 104.12,400 74.25,400.01C64.68,400.01 58.04,399.64 54.33,398.9C36.22,395.26 21.29,380.84 17.19,362.5C16.4,358.99 16.01,353.58 16.01,346.29C16,268.78 15.99,191.27 16,113.76C16,104.04 16.45,97.41 17.36,93.87C20.81,80.31 31.93,69.1 45.54,65.44C49.04,64.49 54.76,64.02 62.71,64.02C105.08,63.99 147.44,63.99 189.81,64C203.38,64 203.16,79.98 190.39,79.99C146.98,80.01 103.56,80.01 60.15,79.99C47.7,79.98 37.52,83.84 33.36,96.48C32.45,99.26 31.99,103.32 31.99,108.66C32,189.53 32.02,270.39 32.04,351.25C32.04,366 41.13,378.74 55.28,382.76C58.17,383.58 62.73,383.991 68.96,383.991C196.43,384 323.9,384 451.37,384C456.66,384 460.7,383.55 463.47,382.64C476.35,378.4 480.03,368.1 480.02,355.44C479.99,331.01 479.99,306.59 480,282.16C480,279.81 480.24,278.07 480.72,276.93C483.44,270.49 492.4,270.46 495.22,276.83C495.73,277.97 495.98,279.67 495.99,281.92C496.01,307.61 496,333.31 495.97,359C495.95,377.6 484.25,393.88 466.24,398.61C462.77,399.52 456.87,399.97 448.53,399.98C415.18,400.01 381.83,400.01 348.48,399.99C348.07,399.99 347.81,400.42 347.99,400.78C356.92,419.04 370.78,432.1 389.56,439.96C393.54,441.63 399.39,443.97 407.12,446.981C414,449.66 422.54,446.89 429.72,448.82C438.73,451.24 444.5,456.89 447.03,465.76C448.61,471.33 447.99,478.77 448,485.05C448.01,492.14 445.86,496 438.49,496L234.16,496C231.82,496 230.08,495.76 228.94,495.29C222.44,492.56 222.44,483.42 228.94,480.71C230.07,480.24 231.81,480 234.15,480C299.84,479.971 365.55,479.76 431.23,480C431.52,480 431.76,479.79 431.79,479.51C432.78,470.53 432.23,464 421.31,464L91.29,464C80.1,464 79.02,469.71 80.23,479.5C80.26,479.78 80.51,479.991 80.8,479.991C119.82,480 158.83,480 197.83,479.991C211.34,479.991 211.18,495.99 198.38,495.99C157.23,496 116.08,496.01 74.93,496C67.76,496 64.03,493.89 64.019,486.47C64.01,479.62 63.28,471.32 65.1,465.3C67.62,456.99 73.04,451.58 81.37,449.08C88.73,446.871 97.77,449.73 104.98,446.99C115.98,442.8 123.88,439.53 128.69,437.2ZM368.6,447.17C350.85,435.84 338.16,420.36 330.53,400.71C330.36,400.28 329.95,400 329.5,400L182.06,400C181.86,400 181.67,400.14 181.59,400.34C173.96,420.29 161.13,435.96 143.08,447.371C142.42,447.79 142.48,448 143.25,448L368.25,448C369.36,448 369.47,447.72 368.6,447.17Z" style="fill:rgb(168,206,145);fill-rule:nonzero;"/>
        <path d="M303.75,80C293.87,79.99 292.79,64.01 305.31,64.01C355.29,64 405.27,64.03 455.25,64.12C473.77,64.16 489.8,75.71 494.57,93.59C495.5,97.08 495.97,102.94 495.98,111.16C496.01,156.05 496.01,200.95 496,245.84C495.99,248.18 495.75,249.921 495.27,251.06C492.55,257.48 483.6,257.56 480.77,251.18C480.26,250.041 480.01,248.34 480.01,246.07C480,200.28 480,154.48 480.01,108.68C480.01,103.33 479.56,99.28 478.65,96.51C474.49,83.85 464.32,79.99 451.86,79.99C402.49,80 353.12,80.01 303.75,80Z" style="fill:rgb(168,206,145);fill-rule:nonzero;"/>
        <path d="M95.88,160.27C95.88,164.51 92.44,167.95 88.2,167.95L55.78,167.95C51.54,167.95 48.1,164.51 48.1,160.27L48.1,159.73C48.1,155.49 51.54,152.05 55.78,152.05L88.2,152.05C92.44,152.05 95.88,155.49 95.88,159.73L95.88,160.27Z" style="fill:rgb(168,206,145);fill-rule:nonzero;"/>
        <path d="M464,303.79C464,308.32 460.32,312 455.79,312L424.21,312C419.68,312 416,308.32 416,303.79L416,176.21C416,171.68 419.68,168 424.21,168L455.79,168C460.32,168 464,171.68 464,176.21L464,303.79ZM447.987,184.576C447.99,184.25 447.72,183.99 447.396,183.988L432.576,184.013C432.25,184.01 431.99,184.28 431.987,184.604L432.012,199.424C432.01,199.75 432.28,200.01 432.604,200.013L447.424,199.988C447.75,199.99 448.01,199.72 448.012,199.396L447.987,184.576ZM447.987,216.576C447.99,216.25 447.72,215.99 447.396,215.988L432.576,216.013C432.25,216.01 431.99,216.28 431.987,216.604L432.012,231.424C432.01,231.75 432.28,232.01 432.604,232.013L447.424,231.988C447.75,231.99 448.01,231.72 448.012,231.396L447.987,216.576ZM447.987,248.576C447.99,248.25 447.72,247.99 447.396,247.988L432.576,248.013C432.25,248.01 431.99,248.28 431.987,248.604L432.012,263.424C432.01,263.75 432.28,264.01 432.604,264.013L447.424,263.988C447.75,263.99 448.01,263.72 448.012,263.396L447.987,248.576ZM447.987,280.576C447.99,280.25 447.72,279.99 447.396,279.988L432.576,280.013C432.25,280.01 431.99,280.28 431.987,280.604L432.012,295.424C432.01,295.75 432.28,296.01 432.604,296.013L447.424,295.988C447.75,295.99 448.01,295.72 448.012,295.396L447.987,280.576Z" style="fill:rgb(168,206,145);fill-rule:nonzero;"/>
        <path d="M95.88,192.27C95.88,196.51 92.44,199.95 88.2,199.95L55.78,199.95C51.54,199.95 48.1,196.51 48.1,192.27L48.1,191.73C48.1,187.49 51.54,184.05 55.78,184.05L88.2,184.05C92.44,184.05 95.88,187.49 95.88,191.73L95.88,192.27Z" style="fill:rgb(168,206,145);fill-rule:nonzero;"/>
        <path d="M95.88,224.27C95.88,228.51 92.44,231.95 88.2,231.95L55.78,231.95C51.54,231.95 48.1,228.51 48.1,224.27L48.1,223.73C48.1,219.49 51.54,216.05 55.78,216.05L88.2,216.05C92.44,216.05 95.88,219.49 95.88,223.73L95.88,224.27Z" style="fill:rgb(168,206,145);fill-rule:nonzero;"/>
        <path d="M87.86,256.31C87.86,260.52 84.45,263.93 80.24,263.93L55.74,263.93C51.53,263.93 48.12,260.52 48.12,256.31L48.12,255.69C48.12,251.481 51.53,248.07 55.74,248.07L80.24,248.07C84.45,248.07 87.86,251.481 87.86,255.69L87.86,256.31Z" style="fill:rgb(168,206,145);fill-rule:nonzero;"/>
        <path d="M79.841,288.335C79.86,292.49 76.5,295.88 72.337,295.891L55.697,295.949C51.54,295.96 48.16,292.6 48.141,288.446L48.138,287.666C48.12,283.51 51.48,280.12 55.642,280.11L72.282,280.051C76.44,280.04 79.82,283.4 79.838,287.555L79.841,288.335Z" style="fill:rgb(168,206,145);fill-rule:nonzero;"/>
        <path d="M153.83,335.32C161.85,314.56 190.02,315.57 198.36,335.54C198.48,335.82 198.75,336 199.04,336L421.82,336C435.37,336 435.16,351.99 422.38,351.99C348.02,352 273.66,352.01 199.3,352C198.99,352 198.7,352.16 198.55,352.43C197.84,353.67 197.14,354.89 196.45,356.1C186.21,374.13 161.51,370.58 153.57,352.5C153.45,352.23 153.18,352.05 152.87,352.04C137.3,351.99 121.78,351.98 106.3,352.01C103.85,352.02 102.03,351.76 100.85,351.25C94.53,348.51 94.46,339.74 100.69,336.8C101.8,336.27 103.43,336.01 105.57,336.01C121.3,336 137.06,336 152.83,336.01C153.28,336.01 153.67,335.74 153.83,335.32ZM183.92,344C183.92,339.62 180.37,336.07 175.99,336.07C171.61,336.07 168.06,339.62 168.06,344C168.06,348.38 171.61,351.93 175.99,351.93C180.37,351.93 183.92,348.38 183.92,344Z" style="fill:rgb(168,206,145);fill-rule:nonzero;"/>
    </g>
</svg>
