<?xml version="1.0" encoding="UTF-8" standalone="no"?>
<!DOCTYPE svg PUBLIC "-//W3C//DTD SVG 1.1//EN" "http://www.w3.org/Graphics/SVG/1.1/DTD/svg11.dtd">
<svg width="100%" height="100%" viewBox="0 0 512 512" version="1.1" xmlns="http://www.w3.org/2000/svg" xmlns:xlink="http://www.w3.org/1999/xlink" xml:space="preserve" xmlns:serif="http://www.serif.com/" style="fill-rule:evenodd;clip-rule:evenodd;stroke-linejoin:round;stroke-miterlimit:2;">
    <g>
        <path d="M197.44,113.19C197.51,98.74 197.53,84.28 197.5,69.81C197.5,67.42 199.69,65.45 201.86,64.07C229.99,46.2 258.13,28.35 286.29,10.52C287.85,9.53 289.73,9.73 291.92,11.12C320.47,29.11 348.99,47.17 377.46,65.3C379.16,66.39 380.01,67.95 380.01,70L380,113.25C380,113.52 380.21,113.74 380.47,113.74C408.24,113.77 436.05,113.76 463.9,113.73C469.11,113.72 473.13,114.16 475.97,115.05C489.04,119.15 494.54,129.73 494.58,142.92C494.82,226.63 494.84,310.35 494.64,394.06C494.61,407.96 489.1,419.15 475.2,423.41C472.26,424.3 468.04,424.75 462.54,424.75L319.72,424.75C319.13,424.75 318.66,425.2 318.66,425.75L318.66,461.25C318.66,461.66 319.07,461.99 319.58,461.99C328.69,462 337.94,462.01 347.34,462C351.45,462 355.44,463.23 355.46,467.81C355.55,483.5 355.55,492.81 355.48,495.75C355.35,500.91 351.56,502 346.93,502L164.9,502C159.16,502 156.56,500.38 156.53,494.53C156.45,480.6 156.45,471.93 156.52,468.51C156.62,463.03 160.22,461.98 165.15,461.99C174.38,462.01 183.46,462.01 192.38,461.99C192.92,461.98 193.36,461.54 193.36,461L193.35,425.25C193.35,425 193.11,424.79 192.81,424.79C143.7,424.74 94.6,424.74 45.5,424.78C32.419,424.79 20.98,416.72 17.84,403.96C17.29,401.69 17.01,397.98 17.01,392.84C17,310.95 17,229.07 16.99,147.19C16.99,140.49 17.47,135.58 18.44,132.46C22.18,120.37 32.43,113.96 45.04,113.92C95.67,113.77 146.3,113.69 196.94,113.69C197.22,113.69 197.44,113.47 197.44,113.19ZM215.09,70.64L288.3,117.22C288.6,117.41 288.96,117.42 289.23,117.25L362.14,70.86C362.53,70.61 362.55,70.05 362.18,69.81L289.46,23.52C289.07,23.27 288.53,23.3 288.08,23.59L215.04,70.03C214.83,70.17 214.86,70.49 215.09,70.64ZM367.6,81.63L295.69,127.44C295.11,127.81 294.75,128.4 294.75,129L294.75,212.25C294.75,212.65 294.92,212.74 295.26,212.52L367.33,166.59C367.75,166.32 368,165.82 368,165.25L368,81.75C368,81.5 367.87,81.46 367.6,81.63ZM282.33,127.75C258.4,112.37 234.39,97.2 210.34,81.95C209.78,81.6 209.5,81.78 209.5,82.5L209.5,165.5C209.5,165.91 209.69,166.27 210.01,166.48L282.11,212.36C282.56,212.65 282.78,212.53 282.78,212L282.76,128.5C282.76,128.21 282.6,127.92 282.33,127.75ZM44.31,125.81C36.42,125.87 29.01,131.95 29.01,140.06C29,216.27 29,292.49 29.01,368.7C29.01,369 29.23,369.25 29.5,369.25L81.94,369.24C82.25,369.24 82.5,369.02 82.5,368.75L82.51,126.44C82.51,126.08 82.25,125.78 81.93,125.78C69.48,125.71 56.94,125.72 44.31,125.81ZM381.26,125.94C380.82,125.95 380.47,126.3 380.47,126.74C380.52,141.25 380.44,155.39 380.22,169.18C380.18,171.71 379.51,173.38 378.2,174.21C349.84,192.19 321.51,210.21 293.2,228.28C290.45,230.04 287.7,230.05 284.94,228.3C257.049,210.69 229.17,193.05 201.32,175.38C199.05,173.94 197.25,172.33 197.25,169.75C197.26,155.19 197.25,140.68 197.24,126.23C197.24,125.96 197.02,125.75 196.75,125.75L95.31,125.75C94.86,125.75 94.5,126.09 94.5,126.5L94.5,368.75C94.5,369.03 94.72,369.25 95,369.25L482.5,369.25C482.78,369.25 483,369.03 483,368.76C483.01,294.2 483,219.64 482.99,145.09C482.99,132.42 478.98,126.13 465.54,125.97C437.61,125.64 409.52,125.63 381.26,125.94ZM482.31,381.5L29.56,381.491C29.25,381.491 29.01,381.78 29,382.14C28.95,399.66 27.06,412.75 49.19,412.75L463.07,412.75C484.96,412.75 483.1,399.3 482.98,382.09C482.98,381.76 482.68,381.5 482.31,381.5ZM306.74,425.35C306.74,425.02 306.47,424.75 306.14,424.75L205.96,424.75C205.63,424.75 205.36,425.02 205.36,425.35L205.36,461.39C205.36,461.72 205.63,461.99 205.96,461.99L306.14,461.99C306.47,461.99 306.74,461.72 306.74,461.39L306.74,425.35ZM343.5,474.67C343.5,474.3 343.2,474 342.83,474L169.17,474C168.8,474 168.5,474.3 168.5,474.67L168.5,489.33C168.5,489.7 168.8,490 169.17,490L342.83,490C343.2,490 343.5,489.7 343.5,489.33L343.5,474.67Z" style="fill:rgb(168,206,145);fill-rule:nonzero;"/>
        <path d="M71.93,164.71C71.93,173.51 64.79,180.65 55.99,180.65C47.19,180.65 40.05,173.51 40.05,164.71C40.05,155.91 47.19,148.77 55.99,148.77C64.79,148.77 71.93,155.91 71.93,164.71ZM55.74,167.929C57.71,167.87 59.25,166.07 59.188,163.891C59.13,161.72 57.49,160 55.52,160.052C53.55,160.11 52.01,161.91 52.071,164.09C52.13,166.26 53.77,167.98 55.74,167.929Z" style="fill:rgb(168,206,145);fill-rule:nonzero;"/>
        <path d="M430.09,210C420.73,247.83 354.85,264.55 322.56,267.84C319.14,268.19 312.93,269.74 310.07,268.07C304.58,264.84 307.97,257.47 314.18,257.01C334.29,255.511 353.82,251.261 372.75,244.27C392.93,236.81 432.61,215.46 414.39,187.62C408.76,179.02 400.5,172.46 392.21,166.54C387.49,163.17 392.31,154.27 398.44,156.79C399.26,157.13 401.13,158.3 404.04,160.31C420,171.33 435.19,189.38 430.09,210Z" style="fill:rgb(168,206,145);fill-rule:nonzero;"/>
        <path d="M273.42,257.41C271.22,255.141 267.69,252.35 267.32,249.28C266.87,245.52 270.86,241.94 274.57,242.94C278.54,244.02 288.33,255.44 291.7,258.82C295.43,262.55 295.96,265.38 292.19,269.18C287.24,274.15 282.28,279.11 277.3,284.06C273.38,287.95 266.41,283.83 267.64,278.38C268.28,275.56 271.76,272.9 273.89,270.69C274.47,270.1 274.34,269.78 273.51,269.74C249.75,268.63 226.65,264.19 204.2,256.42C186.86,250.421 166.49,239.77 155.68,225.43C135.45,198.59 154.63,173.23 177.89,158.37C182.42,155.47 187.96,159.33 186.82,164.46C186.14,167.52 182.09,170.08 179.73,171.71C169.86,178.5 158.52,190.57 158.98,202.84C159.76,223.66 189.24,238.79 206.23,244.83C227.88,252.52 250.21,256.86 273.22,257.84C273.65,257.86 273.71,257.72 273.42,257.41Z" style="fill:rgb(168,206,145);fill-rule:nonzero;"/>
        <path d="M71.92,206.34C71.92,215.16 64.769,222.31 55.95,222.31C47.13,222.31 39.98,215.16 39.98,206.34C39.98,197.52 47.13,190.37 55.95,190.37C64.769,190.37 71.92,197.52 71.92,206.34ZM55.842,210.296C57.84,210.2 59.37,208.36 59.265,206.184C59.16,204.01 57.45,202.33 55.457,202.425C53.46,202.52 51.93,204.36 52.034,206.537C52.14,208.71 53.85,210.39 55.842,210.296Z" style="fill:rgb(168,206,145);fill-rule:nonzero;"/>
        <path d="M71.93,247.98C71.93,256.78 64.79,263.92 55.99,263.92C47.19,263.92 40.05,256.78 40.05,247.98C40.05,239.18 47.19,232.04 55.99,232.04C64.79,232.04 71.93,239.18 71.93,247.98ZM54.579,251.837C56.6,252.59 58.9,251.41 59.717,249.217C60.53,247.02 59.55,244.63 57.521,243.884C55.5,243.13 53.2,244.31 52.382,246.504C51.57,248.7 52.55,251.09 54.579,251.837Z" style="fill:rgb(168,206,145);fill-rule:nonzero;"/>
        <path d="M71.93,289.27C71.93,298.07 64.79,305.21 55.99,305.21C47.19,305.21 40.05,298.07 40.05,289.27C40.05,280.47 47.19,273.33 55.99,273.33C64.79,273.33 71.93,280.47 71.93,289.27ZM59.98,289.25C59.98,287.04 58.18,285.24 55.97,285.24C53.76,285.24 51.96,287.04 51.96,289.25C51.96,291.46 53.76,293.26 55.97,293.26C58.18,293.26 59.98,291.46 59.98,289.25Z" style="fill:rgb(168,206,145);fill-rule:nonzero;"/>
        <path d="M433.75,345.64C433.75,349.15 430.9,352 427.39,352L150.11,352C146.6,352 143.75,349.15 143.75,345.64L143.75,321.12C143.75,317.61 146.6,314.76 150.11,314.76L427.39,314.76C430.9,314.76 433.75,317.61 433.75,321.12L433.75,345.64ZM421.75,327.34C421.75,327.02 421.49,326.76 421.17,326.76L156.33,326.76C156.01,326.76 155.75,327.02 155.75,327.34L155.75,339.42C155.75,339.74 156.01,340 156.33,340L421.17,340C421.49,340 421.75,339.74 421.75,339.42L421.75,327.34Z" style="fill:rgb(168,206,145);fill-rule:nonzero;"/>
        <path d="M71.92,330.93C71.92,339.73 64.79,346.86 55.99,346.86C47.19,346.86 40.06,339.73 40.06,330.93C40.06,322.13 47.19,315 55.99,315C64.79,315 71.92,322.13 71.92,330.93ZM56.316,334.78C58.25,334.78 59.81,333.03 59.81,330.884C59.81,328.74 58.24,327 56.303,327C54.37,327 52.81,328.75 52.81,330.897C52.81,333.04 54.38,334.78 56.316,334.78Z" style="fill:rgb(168,206,145);fill-rule:nonzero;"/>
    </g>
</svg>
