<?xml version="1.0" encoding="UTF-8" standalone="no"?>
<!DOCTYPE svg PUBLIC "-//W3C//DTD SVG 1.1//EN" "http://www.w3.org/Graphics/SVG/1.1/DTD/svg11.dtd">
<svg width="100%" height="100%" viewBox="0 0 512 512" version="1.1" xmlns="http://www.w3.org/2000/svg" xmlns:xlink="http://www.w3.org/1999/xlink" xml:space="preserve" xmlns:serif="http://www.serif.com/" style="fill-rule:evenodd;clip-rule:evenodd;stroke-linejoin:round;stroke-miterlimit:2;">
    <g>
        <path d="M255.94,304.44C256.019,287.11 256.04,269.79 255.99,252.46C255.93,233.28 265.28,223.94 284.46,223.99C294.03,224.02 303.57,224.01 313.08,223.98C313.31,223.98 313.5,223.82 313.55,223.59C314.64,217.87 315.75,212.31 316.9,206.91C319.36,195.36 323.85,188.02 335.4,184.75C335.76,184.64 336,184.34 336,184L336,168.5C336,168.25 335.7,168.05 335.34,168.05C315.29,167.98 295.27,167.97 275.26,168.01C267.96,168.03 264.01,166.09 264.01,158.43C264,122.6 263.99,86.76 264,50.93C264,43.81 266.12,40 273.52,40L447.5,40C454.34,40 455.99,44.9 455.99,51.06C456,65.87 456.01,80.69 456,95.52C456,95.78 456.2,95.98 456.46,95.99C466.76,96.02 477.11,96.01 487.5,95.98C494.29,95.95 496,100.93 496,107.05L496,324.95C496,332.34 493.7,336.31 485.74,336C483.43,335.91 476.38,335.93 464.61,336.07C464.34,336.08 464.12,336.3 464.11,336.58C464.02,341.42 464.28,346.62 462.84,351C458.43,364.42 448.27,368 435.11,368L400.49,368C400.22,368 400,368.22 400,368.5L400,389.25C400,389.56 400.1,389.89 400.29,390.2L462.47,491.24C462.66,491.56 462.61,491.94 462.34,492.11L449.52,500.03C449.36,500.13 449.07,499.96 448.88,499.65C428.67,466.9 408.48,434.14 388.33,401.38C387.42,399.9 386.13,399.48 384.46,400.12C384.18,400.23 384,400.48 384,400.75L384,427.75C384,428.38 384.17,428.99 384.49,429.51L422.48,491.24C422.67,491.55 422.61,491.94 422.34,492.11L409.52,500.03C409.35,500.14 409.09,500.04 408.95,499.8L384.49,460.01C384.17,459.48 384.01,459.5 384.01,460.06L384,495.5C384,495.781 383.78,496 383.5,496L368.5,496C368.22,496 368,495.66 368,495.25L368,400.5C368,400.22 367.78,400 367.5,400L352.5,400C352.22,400 352,400.34 352,400.75L352,495.25C352,495.66 351.78,496 351.5,496L336.5,496C336.22,496 336,495.781 336,495.5L335.99,460.06C335.99,459.47 335.82,459.45 335.49,460L319.24,486.49C319.04,486.81 318.95,487.17 319,487.5L319.89,494.07C319.95,494.52 319.67,494.93 319.25,494.99L305,497.02C304.49,497.09 304.03,496.75 303.96,496.26L298.72,457.76C298.68,457.47 298.36,457.28 298.02,457.35L232.59,470.44C232.25,470.51 232,470.85 232,471.25L232,495.25C232,495.66 231.78,496 231.5,496L216.5,496C216.22,496 216,495.66 216,495.25L216,384.31C216,384.14 216.14,384.01 216.31,384.01L231.5,384C231.78,384 232,384.22 232,384.5L232,453.94C232,454.11 232.16,454.25 232.32,454.21L295.51,441.57C296.04,441.46 296.39,440.9 296.31,440.29C293.35,418.36 290.41,396.62 287.49,375.06C283.49,345.46 263.15,321.74 234.25,313.99C213.13,308.32 192,302.67 170.86,297.04C168.29,296.35 165.67,296.01 163.01,296C144.92,295.97 126.82,295.99 108.72,296.05C106.12,296.06 103.56,296.4 101.04,297.07C80.61,302.52 60.18,308 39.77,313.49C32.349,315.49 26.8,317.51 20.71,320.95C20.32,321.17 19.84,321.04 19.62,320.66L12.28,307.98C12.11,307.68 12.2,307.31 12.49,307.15C20.23,302.88 28.41,299.62 37.02,297.39C56.49,292.34 75.95,287.21 95.38,282.01C95.74,281.92 96,281.7 96,281.5L96,252.25C96,252.03 95.77,251.69 95.39,251.37C79.72,237.8 69.78,220.82 65.58,200.43C65.53,200.19 65.33,200.03 65.11,200.02C57.37,199.96 47.57,200.91 40.82,198.79C27.89,194.73 23.94,184.49 23.98,171.89C24.01,164.14 24.02,156.38 24.01,148.63C24,138.83 25.04,132.71 31.65,126.32C31.88,126.1 32.009,125.79 32.009,125.48C32,112.37 31.11,98.86 33.91,85.8C41.78,49.19 72.55,20.63 110.17,16.57C113.75,16.18 119.64,15.99 127.85,16.02C139.44,16.04 152.62,15.33 163.02,16.78C206.21,22.79 238.01,57.32 239.93,101.06C240.06,104.02 240.07,112.16 239.98,125.49C239.98,125.8 240.11,126.1 240.34,126.32C246.81,132.59 247.95,138.65 247.97,148.21C247.99,155.92 248.01,163.63 248.03,171.34C248.05,184.24 244.34,194.74 231.05,198.82C224.4,200.87 214.73,199.94 207.05,200.03C206.73,200.04 206.45,200.24 206.39,200.53C202.18,220.89 192.25,237.83 176.6,251.36C176.23,251.68 176,252.02 176,252.25L176,281.25C176,281.59 176.26,281.89 176.62,281.98C213.17,291.65 236.3,296.6 255.47,304.74C255.69,304.83 255.94,304.68 255.94,304.44ZM150.23,48.55C185.83,53.24 209.27,83.23 207.94,118.82C207.91,119.46 208.39,120 209,120L223.5,120C223.72,120 223.89,119.73 223.9,119.39C224.11,111.82 224.11,105.71 223.91,101.06C222.46,66.98 197.63,39.15 164.15,33.14C159.77,32.35 153.48,31.97 145.28,31.98C132.47,32 117.61,31.19 106.41,33.34C73.03,39.76 49.17,68.34 48,102.51C47.9,105.5 47.93,111.13 48.09,119.39C48.1,119.73 48.28,120 48.5,120L63.25,120C63.69,120 64.05,119.65 64.03,119.23C62.52,80.91 90.06,48.58 129,47.98C134.59,47.9 143.95,47.72 150.23,48.55ZM440,56.57C440,56.26 439.74,56 439.43,56L280.57,56C280.26,56 280,56.26 280,56.57L280,151.43C280,151.74 280.26,152 280.57,152L439.43,152C439.74,152 440,151.74 440,151.43L440,56.57ZM190.59,102.42C185.52,80.74 166.48,65.08 144.05,64.15C138.72,63.93 133.39,63.94 128.07,64.17C105.92,65.13 86.47,80.45 81.44,102.18C80.51,106.21 80.03,112.84 80.01,122.05C79.98,140.52 79.99,158.98 80.02,177.44C80.03,186.22 80.48,192.85 81.35,197.34C84.6,214.09 92.93,228.2 106.33,239.66C106.59,239.88 106.91,240 107.25,240L164.75,240C165.04,240 165.34,239.88 165.59,239.67C179.88,227.51 188.39,212.44 191.11,194.46C191.71,190.47 192.01,183.82 192.01,174.51C192.02,157.11 192,139.71 191.97,122.32C191.96,112.93 191.5,106.29 190.59,102.42ZM448,216.5L448,224.75C448,225.17 448.21,225.53 448.53,225.68C455.58,228.84 460.24,233.69 462.52,240.24C463.52,243.11 464.02,248.01 464.01,254.93C463.98,276.38 463.99,297.84 464.04,319.33C464.04,319.7 464.25,320 464.5,320L479.5,320C479.78,320 480,319.78 480,319.5L480,112.75C480,112.34 479.78,112 479.5,112L456.31,112.01C456.13,112.01 455.99,112.22 455.99,112.49C456.01,127.82 456.01,143.15 455.98,158.48C455.97,165.85 452.18,168.02 445.06,168.01C424.95,167.97 404.82,167.98 384.67,168.05C384.3,168.05 384,168.25 384,168.5L384,184C384,184.33 384.25,184.63 384.61,184.73C396.14,188.05 400.63,195.4 403.11,206.97C404.27,212.35 405.38,217.89 406.45,223.59C406.5,223.84 406.73,224.02 407,224.02L431.44,224.08C431.75,224.08 432,223.7 432,223.24L432,216.5C432,216.22 432.34,216 432.75,216L447.5,216C447.78,216 448,216.22 448,216.5ZM45.2,183.42C46.17,183.81 47.19,184 48.25,184L63.5,184C63.78,184 64,183.78 64,183.5L64,136.75C64,136.42 63.75,136.14 63.44,136.13C54.65,135.83 49.1,135.81 46.81,136.06C41.18,136.68 40.01,141.37 40,146.57C39.99,155.58 40,164.6 40.01,173.62C40.01,178.61 40.52,181.53 45.2,183.42ZM228.4,137.33C227.09,136.45 225.62,136.01 224,136.01L208.5,136C208.22,136 208,136.22 208,136.5L208,183.25C208,183.58 208.25,183.86 208.56,183.87C217.36,184.16 222.67,184.19 224.49,183.97C230.83,183.2 231.99,179.23 232,173.29C232.01,163.86 232,154.43 231.97,145.01C231.96,141.43 231.26,139.25 228.4,137.33ZM367.987,168.576C367.99,168.25 367.72,167.99 367.396,167.988L352.576,168.013C352.25,168.01 351.99,168.28 351.987,168.604L352.012,183.424C352.01,183.75 352.28,184.01 352.604,184.013L367.424,183.988C367.75,183.99 368.01,183.72 368.012,183.396L367.987,168.576ZM272.51,316.26C283.9,325.85 292.33,337.58 297.8,351.47C297.92,351.77 298.21,351.97 298.54,351.97C344.61,351.98 390.7,351.86 436.77,352.02C442.73,352.04 448.01,350.42 448.01,343.75C447.99,313.28 447.99,282.8 448.01,252.32C448.01,245.41 446.92,240.03 438.99,240.02C426.56,240 414.14,239.99 401.72,240C395.08,240.01 392.92,237.41 391.63,230.91C390.07,223.04 388.48,215.17 386.86,207.31C385.67,201.54 382.4,200.02 376.59,200.01C365.08,199.98 353.56,199.99 342.04,200.02C336.38,200.04 334.05,202.77 332.94,208.28C331.26,216.58 329.59,224.88 327.92,233.18C326.77,238.87 322.65,240.01 317.14,240C305.27,239.99 293.39,240 281.52,240.01C274.09,240.03 272,243.77 272,250.94L272,314.76C272,315.43 272.19,315.99 272.51,316.26ZM160,256.6C160,256.27 159.73,256 159.4,256L112.6,256C112.27,256 112,256.27 112,256.6L112,279.4C112,279.73 112.27,280 112.6,280L159.4,280C159.73,280 160,279.73 160,279.4L160,256.6ZM308.96,407.73L319.71,390.2C319.9,389.89 320,389.56 320,389.25L320,368.5C320,368.22 319.78,368 319.5,368L303.76,368C303.15,368 302.67,368.5 302.75,369.05L308,407.5C308.13,408.49 308.45,408.56 308.96,407.73ZM384,368.6C384,368.27 383.73,368 383.4,368L336.6,368C336.27,368 336,368.27 336,368.6L336,383.4C336,383.73 336.27,384 336.6,384L383.4,384C383.73,384 384,383.73 384,383.4L384,368.6ZM331.69,401.19C325.18,411.91 318.59,422.62 311.94,433.31C311.72,433.66 311.62,434 311.66,434.26L315.27,461C315.38,461.79 315.65,461.81 316.1,461.08L335.72,429.2C335.9,428.9 336,428.57 336,428.25L336,400.75C336,400.48 335.82,400.23 335.54,400.13C333.8,399.47 332.52,399.82 331.69,401.19Z" style="fill:rgb(168,206,145);fill-rule:nonzero;"/>
        <path d="M410.858,141.268C410.59,141.53 410.16,141.53 409.897,141.268L346.752,78.123C346.49,77.86 346.49,77.43 346.752,77.162L357.161,66.753C357.43,66.49 357.86,66.49 358.122,66.753L421.267,129.898C421.53,130.16 421.53,130.59 421.267,130.859L410.858,141.268Z" style="fill:rgb(168,206,145);fill-rule:nonzero;"/>
        <path d="M418.896,109.207C418.6,109.5 418.13,109.5 417.835,109.207L386.793,78.165C386.5,77.87 386.5,77.4 386.793,77.104L397.103,66.794C397.4,66.5 397.87,66.5 398.164,66.794L429.206,97.836C429.5,98.13 429.5,98.6 429.206,98.897L418.896,109.207Z" style="fill:rgb(168,206,145);fill-rule:nonzero;"/>
        <path d="M400,327.79C400,332.32 396.32,336 391.79,336L296.21,336C291.68,336 288,332.32 288,327.79L288,264.21C288,259.68 291.68,256 296.21,256L391.79,256C396.32,256 400,259.68 400,264.21L400,327.79ZM384,272.6C384,272.27 383.73,272 383.4,272L304.6,272C304.27,272 304,272.27 304,272.6L304,319.4C304,319.73 304.27,320 304.6,320L383.4,320C383.73,320 384,319.73 384,319.4L384,272.6Z" style="fill:rgb(168,206,145);fill-rule:nonzero;"/>
        <path d="M432.013,271.466C432.01,271.75 431.78,271.99 431.494,271.987L416.534,272.013C416.25,272.01 416.01,271.78 416.013,271.494L415.987,256.534C415.99,256.25 416.22,256.01 416.506,256.014L431.466,255.987C431.75,255.99 431.99,256.22 431.986,256.506L432.013,271.466Z" style="fill:rgb(168,206,145);fill-rule:nonzero;"/>
        <path d="M432.012,303.396C432.01,303.72 431.75,303.99 431.424,303.988L416.604,304.013C416.28,304.01 416.01,303.75 416.012,303.424L415.987,288.604C415.99,288.28 416.25,288.01 416.576,288.013L431.396,287.988C431.72,287.99 431.99,288.25 431.987,288.576L432.012,303.396Z" style="fill:rgb(168,206,145);fill-rule:nonzero;"/>
        <path d="M432.012,335.296C432.01,335.68 431.71,335.99 431.324,335.988L416.704,336.013C416.32,336.01 416.01,335.71 416.012,335.324L415.987,320.704C415.99,320.32 416.29,320.01 416.676,320.013L431.296,319.988C431.68,319.99 431.99,320.29 431.987,320.676L432.012,335.296Z" style="fill:rgb(168,206,145);fill-rule:nonzero;"/>
        <path d="M18.54,449.93C25.57,451.25 32.419,452.87 39.47,454.01C39.75,454.06 40,453.81 40,453.5L40,384.5C40,384.22 40.22,384 40.5,384L55.5,384C55.78,384 56,384.22 56,384.5L56,495.5C56,495.781 55.78,496 55.5,496L40.5,496C40.22,496 40,495.781 40,495.5L40,471C40,470.73 39.81,470.5 39.56,470.45L14.94,465.55C14.65,465.49 14.46,465.24 14.51,465L17.34,450.76C17.45,450.2 17.99,449.82 18.54,449.93Z" style="fill:rgb(168,206,145);fill-rule:nonzero;"/>
    </g>
</svg>
