<?xml version="1.0" encoding="UTF-8" standalone="no"?>
<!DOCTYPE svg PUBLIC "-//W3C//DTD SVG 1.1//EN" "http://www.w3.org/Graphics/SVG/1.1/DTD/svg11.dtd">
<svg width="100%" height="100%" viewBox="0 0 512 512" version="1.1" xmlns="http://www.w3.org/2000/svg" xmlns:xlink="http://www.w3.org/1999/xlink" xml:space="preserve" xmlns:serif="http://www.serif.com/" style="fill-rule:evenodd;clip-rule:evenodd;stroke-linejoin:round;stroke-miterlimit:2;">
    <g>
        <g transform="matrix(0.859644,0,0,0.859644,35.9312,35.9312)">
            <path d="M23.81,0L300.31,0C312.12,1.71 319.64,7.66 322.87,17.86C323.8,20.79 324.26,25.1 324.26,30.8C324.25,135.51 324.25,240.22 324.25,344.93C324.25,349.22 323.16,354.45 320.43,357.18C302.56,375.07 284.68,392.95 266.79,410.83C261.78,415.84 258.019,418.28 251.25,418.28C175.92,418.27 100.57,417.82 25.25,418.06C11.96,418.1 1.36,407.56 0,394.19L0,23.69C2.11,9.95 10.05,2.05 23.81,0ZM17.19,25.44C16.94,62.35 16.89,99.23 17.06,136.08C17.06,136.31 17.26,136.5 17.5,136.5L306.5,136.5C306.91,136.5 307.25,136.13 307.25,135.67C307.26,100.14 307.25,64.65 307.24,29.21C307.24,22.21 305.54,17.01 297.75,17C208.14,16.99 118.52,17 28.91,17.01C22.83,17.01 17.23,18.62 17.19,25.44ZM306.46,341.31C306.89,341.32 307.25,340.95 307.25,340.5L307.25,154C307.25,153.72 307.03,153.5 306.75,153.5L17.75,153.5C17.34,153.5 17,153.83 17,154.23C16.99,232.83 17,311.42 17.01,390.01C17.01,397.97 19.97,401 28.22,401L247,401C247.27,401 247.48,400.79 247.48,400.52C247.53,390.48 247.52,380.44 247.47,370.41C247.41,357.69 252.31,346.86 264.92,342.83C268.3,341.75 274.58,341.22 283.76,341.23C291.28,341.24 298.85,341.27 306.46,341.31ZM273.84,358.52C268.38,358.56 264.52,361.86 264.51,367.5C264.5,374.48 264.5,381.43 264.51,388.35C264.51,388.85 264.69,388.92 265.06,388.56L294.44,359.19C294.88,358.74 294.76,358.52 294.09,358.52C287.11,358.49 280.36,358.49 273.84,358.52Z" style="fill:rgb(168,206,145);fill-rule:nonzero;"/>
        </g>
        <g transform="matrix(0.859644,0,0,0.859644,35.9312,35.9312)">
            <path d="M365.31,0L488.06,0C502.06,2.01 510.04,10.03 512,24.06L512,215.56C509.87,227.29 503.9,234.62 494.11,237.56C490.85,238.54 484.23,239.03 474.24,239.02C439,238.99 403.75,238.99 368.49,239.02C351.85,239.04 341.48,227.74 341.45,211C341.34,152.33 341.26,93.67 341.23,35.01C341.22,26.74 341.74,20.95 342.78,17.66C345.91,7.71 353.42,1.82 365.31,0ZM494.99,25.65C494.99,20.88 491.13,17.02 486.36,17.02L367.12,17.02C362.35,17.02 358.49,20.88 358.49,25.65L358.49,213.13C358.49,217.9 362.35,221.76 367.12,221.76L486.36,221.76C491.13,221.76 494.99,217.9 494.99,213.13L494.99,25.65Z" style="fill:rgb(168,206,145);fill-rule:nonzero;"/>
        </g>
        <g transform="matrix(0.859644,0,0,0.859644,35.9312,35.9312)">
            <path d="M119.4,76.79C119.4,100.31 100.33,119.38 76.81,119.38C53.29,119.38 34.22,100.31 34.22,76.79C34.22,53.27 53.29,34.2 76.81,34.2C100.33,34.2 119.4,53.27 119.4,76.79ZM102.31,76.79C102.31,62.7 90.88,51.27 76.79,51.27C62.7,51.27 51.27,62.7 51.27,76.79C51.27,90.88 62.7,102.31 76.79,102.31C90.88,102.31 102.31,90.88 102.31,76.79Z" style="fill:rgb(168,206,145);fill-rule:nonzero;"/>
        </g>
        <g transform="matrix(0.859644,0,0,0.859644,35.9312,35.9312)">
            <path d="M281.48,42.85C281.48,47.48 277.73,51.23 273.1,51.23L144.96,51.23C140.33,51.23 136.58,47.48 136.58,42.85L136.58,42.63C136.58,38 140.33,34.25 144.96,34.25L273.1,34.25C277.73,34.25 281.48,38 281.48,42.63L281.48,42.85Z" style="fill:rgb(168,206,145);fill-rule:nonzero;"/>
        </g>
        <g transform="matrix(0.859644,0,0,0.859644,35.9312,35.9312)">
            <path d="M392.5,110.95C392.5,115.54 388.78,119.26 384.19,119.26L383.81,119.26C379.22,119.26 375.5,115.54 375.5,110.95L375.5,42.57C375.5,37.98 379.22,34.26 383.81,34.26L384.19,34.26C388.78,34.26 392.5,37.98 392.5,42.57L392.5,110.95Z" style="fill:rgb(168,206,145);fill-rule:nonzero;"/>
        </g>
        <g transform="matrix(0.859644,0,0,0.859644,35.9312,35.9312)">
            <path d="M460.71,111.16C460.71,115.7 457.03,119.38 452.49,119.38L452.01,119.38C447.47,119.38 443.79,115.7 443.79,111.16L443.79,68.06C443.79,63.52 447.47,59.84 452.01,59.84L452.49,59.84C457.03,59.84 460.71,63.52 460.71,68.06L460.71,111.16Z" style="fill:rgb(168,206,145);fill-rule:nonzero;"/>
        </g>
        <g transform="matrix(0.859644,0,0,0.859644,35.9312,35.9312)">
            <path d="M196.16,77C196.16,81.54 192.48,85.22 187.94,85.22L144.82,85.22C140.28,85.22 136.6,81.54 136.6,77L136.6,76.52C136.6,71.98 140.28,68.3 144.82,68.3L187.94,68.3C192.48,68.3 196.16,71.98 196.16,76.52L196.16,77Z" style="fill:rgb(168,206,145);fill-rule:nonzero;"/>
        </g>
        <g transform="matrix(0.859644,0,0,0.859644,35.9312,35.9312)">
            <path d="M426.67,111C426.67,115.52 423,119.19 418.48,119.19L417.78,119.19C413.26,119.19 409.59,115.52 409.59,111L409.59,85.12C409.59,80.6 413.26,76.93 417.78,76.93L418.48,76.93C423,76.93 426.67,80.6 426.67,85.12L426.67,111Z" style="fill:rgb(168,206,145);fill-rule:nonzero;"/>
        </g>
        <g transform="matrix(0.859644,0,0,0.859644,35.9312,35.9312)">
            <path d="M221.72,111.17C221.72,115.75 218,119.47 213.42,119.47L144.9,119.47C140.32,119.47 136.6,115.75 136.6,111.17L136.6,110.81C136.6,106.23 140.32,102.51 144.9,102.51L213.42,102.51C218,102.51 221.72,106.23 221.72,110.81L221.72,111.17Z" style="fill:rgb(168,206,145);fill-rule:nonzero;"/>
        </g>
        <g transform="matrix(0.859644,0,0,0.859644,35.9312,35.9312)">
            <path d="M443.67,170.66C443.67,189.48 428.42,204.73 409.6,204.73C390.78,204.73 375.53,189.48 375.53,170.66C375.53,151.84 390.78,136.59 409.6,136.59C428.42,136.59 443.67,151.84 443.67,170.66ZM426.6,170.68C426.6,161.29 418.99,153.68 409.6,153.68C400.21,153.68 392.6,161.29 392.6,170.68C392.6,180.07 400.21,187.68 409.6,187.68C418.99,187.68 426.6,180.07 426.6,170.68Z" style="fill:rgb(168,206,145);fill-rule:nonzero;"/>
        </g>
        <g transform="matrix(0.859644,0,0,0.859644,35.9312,35.9312)">
            <path d="M264.44,187.83C264.44,192.47 260.67,196.24 256.03,196.24L68.21,196.24C63.57,196.24 59.8,192.47 59.8,187.83L59.8,187.67C59.8,183.03 63.57,179.26 68.21,179.26L256.03,179.26C260.67,179.26 264.44,183.03 264.44,187.67L264.44,187.83Z" style="fill:rgb(168,206,145);fill-rule:nonzero;"/>
        </g>
        <g transform="matrix(0.859644,0,0,0.859644,35.9312,35.9312)">
            <path d="M247.39,230.47C247.39,235.17 243.58,238.98 238.88,238.98L85.36,238.98C80.66,238.98 76.85,235.17 76.85,230.47L76.85,230.29C76.85,225.59 80.66,221.78 85.36,221.78L238.88,221.78C243.58,221.78 247.39,225.59 247.39,230.29L247.39,230.47Z" style="fill:rgb(168,206,145);fill-rule:nonzero;"/>
        </g>
        <g transform="matrix(0.859644,0,0,0.859644,35.9312,35.9312)">
            <path d="M247.28,264.6C247.28,269.24 243.52,273 238.88,273L85.22,273C80.58,273 76.82,269.24 76.82,264.6L76.82,264.4C76.82,259.76 80.58,256 85.22,256L238.88,256C243.52,256 247.28,259.76 247.28,264.4L247.28,264.6Z" style="fill:rgb(168,206,145);fill-rule:nonzero;"/>
        </g>
        <g transform="matrix(0.859644,0,0,0.859644,35.9312,35.9312)">
            <path d="M512,297.06L512,488.31C509.85,502.16 501.83,510.06 487.94,512L365.19,512C353.38,510.11 345.92,504.24 342.81,494.39C341.75,491.04 341.22,484.89 341.23,475.94C341.26,417.8 341.26,359.65 341.25,301.5C341.24,289.18 346.68,278.53 358.68,274.55C361.83,273.5 367.6,272.98 375.97,272.99C409.85,273.02 443.72,273.01 477.59,272.98C485.45,272.97 491.01,273.47 494.26,274.48C504.3,277.61 510.21,285.13 512,297.06ZM369.95,290.8C393.72,316.52 417.38,342.2 440.93,367.83C451.41,379.24 455.96,392.32 448.55,406.91C446.97,410.02 443.86,414.09 439.21,419.13C416.07,444.25 392.98,469.32 369.94,494.34C369.54,494.78 369.64,495 370.23,495C407.68,495.01 445.12,495 482.56,494.99C489.32,494.99 494.99,493.38 495,485.75C495.01,424.26 495,362.76 494.99,301.26C494.99,294.34 492.64,290.25 485.07,290.25C446.72,290.26 408.43,290.25 370.2,290.23C369.67,290.23 369.59,290.42 369.95,290.8ZM358.47,305L358.47,480.5C358.47,481.23 358.74,481.3 359.29,480.71C382.51,455.56 405.79,430.28 429.12,404.89C433.99,399.58 436.69,394.49 434.26,387.75C433.47,385.56 430.94,382.14 426.67,377.5C404.25,353.14 381.86,328.83 359.5,304.58C358.81,303.83 358.47,303.97 358.47,305Z" style="fill:rgb(168,206,145);fill-rule:nonzero;"/>
        </g>
        <g transform="matrix(0.859644,0,0,0.859644,35.9312,35.9312)">
            <path d="M247.4,298.84C247.4,303.47 243.64,307.23 239.01,307.23L85.23,307.23C80.6,307.23 76.84,303.47 76.84,298.84L76.84,298.64C76.84,294.01 80.6,290.25 85.23,290.25L239.01,290.25C243.64,290.25 247.4,294.01 247.4,298.64L247.4,298.84Z" style="fill:rgb(168,206,145);fill-rule:nonzero;"/>
        </g>
        <g transform="matrix(0.859644,0,0,0.859644,35.9312,35.9312)">
            <path d="M247.29,332.85C247.29,337.49 243.53,341.25 238.89,341.25L85.23,341.25C80.59,341.25 76.83,337.49 76.83,332.85L76.83,332.65C76.83,328.01 80.59,324.25 85.23,324.25L238.89,324.25C243.53,324.25 247.29,328.01 247.29,332.65L247.29,332.85Z" style="fill:rgb(168,206,145);fill-rule:nonzero;"/>
        </g>
        <g transform="matrix(0.859644,0,0,0.859644,35.9312,35.9312)">
            <path d="M273.94,512L23.94,512C10.05,509.99 2.07,502.05 0,488.19L0,467.69C2.45,450.52 13.64,443.74 29.7,443.74C110.55,443.75 191.4,443.76 272.25,443.75C286.48,443.74 297.59,451.91 312.52,461.15C316.83,463.82 319.68,466.09 321.07,467.94C325.39,473.72 325.24,482.63 320.66,488.32C319.34,489.95 316.81,491.91 313.08,494.21C300.96,501.66 288.59,510.87 273.94,512ZM17.11,486.43C17.23,491.38 21.16,494.93 26.02,494.97C37,495.06 48.04,495.04 59.14,494.89C59.48,494.88 59.75,494.71 59.75,494.5L59.75,461.25C59.75,461.03 59.47,460.86 59.13,460.85C49.05,460.72 38.97,460.7 28.88,460.77C22.66,460.82 17.54,462.22 17.06,469.06C16.88,471.65 16.9,477.44 17.11,486.43ZM247.5,461.38C247.5,461.04 247.22,460.76 246.88,460.76L77.38,460.76C77.04,460.76 76.76,461.04 76.76,461.38L76.76,494.38C76.76,494.72 77.04,495 77.38,495L246.88,495C247.22,495 247.5,494.72 247.5,494.38L247.5,461.38ZM264.81,494.8C280.99,496.85 293.59,486.01 306.51,478.25C306.82,478.06 306.82,477.62 306.51,477.43C300.79,473.99 295.05,470.55 289.28,467.11C280.59,461.92 274.51,459.7 265.03,460.98C264.73,461.02 264.5,461.24 264.5,461.5L264.5,494.5C264.5,494.65 264.63,494.78 264.81,494.8Z" style="fill:rgb(168,206,145);fill-rule:nonzero;"/>
        </g>
    </g>
</svg>
