<?xml version="1.0" encoding="UTF-8" standalone="no"?>
<!DOCTYPE svg PUBLIC "-//W3C//DTD SVG 1.1//EN" "http://www.w3.org/Graphics/SVG/1.1/DTD/svg11.dtd">
<svg width="100%" height="100%" viewBox="0 0 512 512" version="1.1" xmlns="http://www.w3.org/2000/svg" xmlns:xlink="http://www.w3.org/1999/xlink" xml:space="preserve" xmlns:serif="http://www.serif.com/" style="fill-rule:evenodd;clip-rule:evenodd;stroke-linejoin:round;stroke-miterlimit:2;">
    <g>
        <g transform="matrix(0.897307,0,0,0.897307,26.2834,26.9954)">
            <path d="M194.75,402.25C194.75,401.97 194.5,401.75 194.2,401.75C146.28,401.76 98.37,401.75 50.46,401.73C44,401.73 39.11,401.27 35.8,400.34C22.88,396.72 12.43,386.19 9.06,373.15C8.2,369.82 7.77,364.32 7.76,356.63C7.74,279.26 7.75,201.88 7.779,124.5C7.779,102.12 24,84.74 46.44,84.67C47.06,84.66 47.57,84.18 47.6,83.56C47.87,77.6 51.09,74.74 57.26,74.97C61.29,75.13 65.08,74.3 68.63,72.47C70.14,71.69 70.51,70.54 69.73,69.03C67.96,65.58 65.61,62.6 62.7,60.1C59.7,57.52 57.86,53.92 59.98,50.5C66.86,39.4 76.52,30.04 88.95,22.43C93.54,19.61 97.31,20.38 100.34,24.58C102.95,28.21 106.31,30.84 110.42,32.47C111.2,32.78 112.08,32.46 112.49,31.72C114.62,27.85 115.72,23.75 115.79,19.42C115.91,12.61 116.79,9.44 123.68,8.3C136.21,6.23 148.65,6.48 161.01,9.07C165.63,10.04 168.28,13.05 167.46,17.76C166.75,21.89 167.06,25.98 168.41,30.01C169.18,32.32 170.73,33.09 173.04,32.31C179.79,30.02 183.55,17.04 192.57,23.18C203.3,30.48 212.2,39.97 219.26,51.66C221.89,56.02 220.16,59.7 216.58,62.5C213.12,65.21 210.53,68.55 208.8,72.54C208.45,73.34 208.78,74.28 209.55,74.69C212.61,76.32 215.83,77.07 219.2,76.94C225.24,76.7 229.34,77.32 230.71,84.01C230.77,84.3 231.02,84.51 231.3,84.51C308.96,84.5 386.61,84.5 464.24,84.51C482.84,84.52 499.05,96.04 503.19,114.27C503.88,117.34 504.23,122.56 504.24,129.92C504.26,207.37 504.27,284.81 504.26,362.25C504.26,380.08 493.42,395.45 476.12,400.35C472.89,401.26 468.22,401.72 462.12,401.73C414.08,401.76 366.03,401.77 317.98,401.74C317.58,401.74 317.25,402.08 317.25,402.5L317.25,436.25C317.25,436.46 317.51,436.63 317.84,436.64C324.55,436.76 331.22,436.8 337.85,436.75C354.72,436.64 362.3,443.22 362.25,460.43C362.24,466.92 362.24,473.41 362.26,479.901C362.32,497.15 354.53,503.5 337.82,503.5C283.81,503.5 229.8,503.5 175.79,503.51C169.24,503.51 164.61,503 161.92,501.99C152.11,498.32 149.7,490.09 149.74,479.98C149.82,461.06 144.37,436.78 172.73,436.75C179.9,436.74 187.07,436.74 194.24,436.75C194.52,436.75 194.75,436.53 194.75,436.25L194.75,402.25ZM201.29,152.51C186.58,135.99 193.59,114.05 216.98,114.27C217.52,114.28 217.98,113.87 218.05,113.32C218.87,107.07 219.15,100.79 218.89,94.5C218.86,93.67 218.2,93.01 217.39,93C195.8,92.75 188.02,70.58 203.54,55.78C203.87,55.47 203.92,54.96 203.66,54.57C199.99,49.08 195.59,44.23 190.48,40.02C190.16,39.76 189.7,39.78 189.41,40.06C173.45,55.88 152.54,46.81 153.05,24.47C153.06,23.88 152.61,23.36 152,23.27C145.51,22.3 139.01,22.22 132.5,23.03C132.29,23.05 132.09,23.28 132.02,23.6C131.05,27.85 130.86,31.99 128.729,36.17C120.87,51.62 104.65,50.06 93.66,39.25C93.35,38.95 92.9,38.89 92.59,39.1C87.07,42.85 82.18,47.28 77.91,52.41C77.76,52.6 77.79,52.9 78,53.12C93.39,69.43 85.24,90.52 62.22,89.81C61.69,89.79 61.24,90.12 61.18,90.57C60.33,97.13 60.27,103.69 60.99,110.25C61.04,110.68 61.38,111.02 61.81,111.04C83.84,112.39 92.72,132.05 76.53,148.31C76.21,148.64 76.18,149.16 76.45,149.55C80.1,154.92 84.4,159.7 89.36,163.9C89.8,164.27 90.46,164.22 90.89,163.8C95.98,158.76 101.9,156.15 108.67,155.96C120.58,155.64 126.26,171.09 126.35,180.88C126.36,181.24 126.5,181.52 126.69,181.55C133.39,182.46 140.1,182.53 146.83,181.75C147.1,181.72 147.33,181.44 147.36,181.08C148.03,174.27 150.18,168.69 153.83,164.33C162.63,153.81 177.19,157.67 185.34,166.07C185.78,166.52 186.48,166.59 187,166.24C192.41,162.55 197.19,158.17 201.35,153.1C201.48,152.94 201.46,152.69 201.29,152.51ZM49.3,124.68C48.32,123.9 47.72,122.92 47.51,121.75C46.3,115.24 45.71,108.65 45.74,101.98C45.74,100.42 44.99,99.8 43.49,100.12C33.78,102.21 27.52,107.31 24.72,115.42C23.73,118.27 23.24,122.88 23.24,129.25C23.25,199.06 23.25,268.82 23.25,338.51C23.25,338.78 23.47,339 23.75,339L488.25,339C488.53,339 488.76,338.78 488.76,338.51C488.74,268.6 488.74,198.68 488.77,128.77C488.77,123.1 488.31,118.81 487.39,115.89C484.05,105.28 476.17,99.98 463.74,99.99C386.6,100 309.61,100.01 232.78,100C232.35,100 232,100.35 232.01,100.77C232.06,109.3 231.14,117.21 229.27,124.51C228.03,129.35 221.62,129.02 216.52,128.24C214.19,127.88 211.48,128.54 208.4,130.22C202.9,133.22 208.79,140.2 211.82,142.61C216.63,146.44 219.4,150.25 215.17,156.19C208.12,166.07 199.41,174.33 189.02,180.96C181.76,185.61 179.02,182.65 174.57,176.95C172.78,174.67 167.75,170.52 164.54,172.26C161.24,174.06 160.96,183.11 161.2,186.28C162.36,201.42 124.11,198.39 115.17,195.1C111.07,193.6 110.66,189.78 111.21,185.56C111.86,180.59 110.91,166.62 102.04,174.75C97.21,179.17 92.94,186.7 85.28,181.22C74.89,173.81 66.35,164.69 59.64,153.87C56.99,149.59 57.63,145.53 61.44,142.47C65.08,139.56 67.44,137.08 69.51,132.79C70.07,131.63 69.8,130.71 68.71,130.02C62.88,126.35 54.85,129.09 49.3,124.68ZM51.7,386.29C188.74,386.15 325.79,386.57 462.83,386.21C467.33,386.2 470.85,385.76 473.38,384.87C487.58,379.92 488.89,368.2 488.73,354.95C488.72,354.7 488.51,354.5 488.25,354.5L24,354.5C23.74,354.5 23.53,354.72 23.5,355C22.05,367.89 25.48,380.38 38.47,384.86C41.25,385.82 45.66,386.3 51.7,386.29ZM301.75,402.26C301.75,402.12 301.63,402 301.49,402L210.51,402C210.37,402 210.25,402.12 210.25,402.26L210.25,436.24C210.25,436.38 210.37,436.5 210.51,436.5L301.49,436.5C301.63,436.5 301.75,436.38 301.75,436.24L301.75,402.26ZM346.75,456.34C346.75,454.16 344.99,452.4 342.81,452.4L169.21,452.4C167.03,452.4 165.27,454.16 165.27,456.34L165.27,484.06C165.27,486.24 167.03,488 169.21,488L342.81,488C344.99,488 346.75,486.24 346.75,484.06L346.75,456.34Z" style="fill:rgb(168,206,145);fill-rule:nonzero;"/>
        </g>
        <g transform="matrix(0.897307,0,0,0.897307,26.2834,26.9954)">
            <path d="M190.75,103.17C190.75,131.83 167.52,155.06 138.86,155.06C110.2,155.06 86.97,131.83 86.97,103.17C86.97,74.51 110.2,51.28 138.86,51.28C167.52,51.28 190.75,74.51 190.75,103.17ZM175.27,103.17C175.27,83.06 158.97,66.76 138.86,66.76C118.75,66.76 102.45,83.06 102.45,103.17C102.45,123.28 118.75,139.58 138.86,139.58C158.97,139.58 175.27,123.28 175.27,103.17Z" style="fill:rgb(168,206,145);fill-rule:nonzero;"/>
        </g>
        <g transform="matrix(0.897307,0,0,0.897307,26.2834,26.9954)">
            <path d="M278.5,319.5C267.89,319.5 258.04,311.91 254.48,301.85C253.51,299.12 253.03,294.78 253.02,288.84C252.99,244.27 252.98,199.69 252.99,155.1C252.99,135.45 263.45,124.96 283.1,124.87C336.07,124.65 389.03,124.67 442,124.92C455.13,124.98 466.12,130.19 470.17,143.22C471.22,146.6 471.75,152.72 471.75,161.57C471.74,202.8 471.75,244.03 471.77,285.27C471.77,291.68 471.3,296.45 470.37,299.59C466.35,313.06 455.24,319.51 441.45,319.5L278.5,319.5ZM281.23,140.51C273.8,140.51 268.55,145.03 268.51,152.77C268.47,160.56 268.48,168.38 268.54,176.25C268.55,176.53 268.75,176.75 269,176.75L455.81,176.76C456,176.77 456.15,176.56 456.15,176.3C456.29,168.95 456.35,161.52 456.34,154.01C456.33,144.38 450.48,140.5 441.69,140.5C388.2,140.5 334.71,140.5 281.23,140.51ZM273.19,301.56C275.32,303.19 277.03,304 278.32,304C332.62,304 386.93,304 441.24,304.01C450.29,304.01 456.15,299.89 456.17,289.99C456.24,257.74 456.26,225.5 456.24,193.27C456.24,192.83 455.94,192.48 455.56,192.48L269,192.48C268.73,192.48 268.51,192.72 268.51,193.01C268.49,225.92 268.49,258.68 268.52,291.29C268.52,295.86 269.72,298.93 273.19,301.56Z" style="fill:rgb(168,206,145);fill-rule:nonzero;"/>
        </g>
        <g transform="matrix(0.897307,0,0,0.897307,26.2834,26.9954)">
            <path d="M378.49,159.29C378.49,163.4 375.15,166.74 371.04,166.74L286.74,166.74C282.63,166.74 279.29,163.4 279.29,159.29L279.29,158.71C279.29,154.6 282.63,151.26 286.74,151.26L371.04,151.26C375.15,151.26 378.49,154.6 378.49,158.71L378.49,159.29Z" style="fill:rgb(168,206,145);fill-rule:nonzero;"/>
        </g>
        <g transform="matrix(0.897307,0,0,0.897307,26.2834,26.9954)">
            <path d="M410.987,159.573C410.97,163.58 407.7,166.81 403.699,166.785L394.459,166.736C390.46,166.71 387.23,163.45 387.247,159.448L387.252,158.448C387.27,154.44 390.54,151.21 394.54,151.236L403.78,151.285C407.78,151.31 411.01,154.57 410.992,158.573L410.987,159.573Z" style="fill:rgb(168,206,145);fill-rule:nonzero;"/>
        </g>
        <g transform="matrix(0.897307,0,0,0.897307,26.2834,26.9954)">
            <path d="M444.432,159.438C444.45,163.42 441.24,166.67 437.25,166.696L427.81,166.745C423.82,166.77 420.57,163.55 420.552,159.563L420.547,158.583C420.53,154.6 423.74,151.35 427.729,151.325L437.169,151.276C441.16,151.25 444.41,154.47 444.427,158.458L444.432,159.438Z" style="fill:rgb(168,206,145);fill-rule:nonzero;"/>
        </g>
        <g transform="matrix(0.897307,0,0,0.897307,26.2834,26.9954)">
            <path d="M349.29,283.65C345.52,280.65 345.48,277.34 346.74,272.66C351.84,253.701 356.94,234.73 362.03,215.76C364.89,205.1 379.7,208.09 376.37,221.2C371.76,239.34 367.11,257.47 362.41,275.6C360.96,281.22 358.62,284.61 352.69,284.78C351.42,284.81 350.28,284.44 349.29,283.65Z" style="fill:rgb(168,206,145);fill-rule:nonzero;"/>
        </g>
        <g transform="matrix(0.897307,0,0,0.897307,26.2834,26.9954)">
            <path d="M322.3,246.97C327.57,252.451 333.2,257.55 338.34,263.16C346.22,271.75 335.41,281.81 327.58,273.96C320.77,267.13 313.94,260.31 307.11,253.49C302.01,248.4 302.18,244.63 307.14,239.83C311.46,235.64 329.09,216.65 333.75,216.47C337.86,216.31 341.3,219.15 341.91,223.21C342.45,226.8 340.61,228.81 338.16,231.16C332.9,236.23 327.62,241.29 322.31,246.33C322.13,246.51 322.12,246.79 322.3,246.97Z" style="fill:rgb(168,206,145);fill-rule:nonzero;"/>
        </g>
        <g transform="matrix(0.897307,0,0,0.897307,26.2834,26.9954)">
            <path d="M401.2,246.07C395.37,240.63 389.63,235.12 383.97,229.54C377.05,222.7 387,211.27 395.59,219.53C402.5,226.18 409.42,232.81 416.34,239.44C421.78,244.64 422.13,248.28 416.85,253.541C410.2,260.17 403.53,266.76 396.82,273.31C394.9,275.19 393.28,276.32 391.97,276.69C386.85,278.17 381.27,272.54 382.66,267.62C384.12,262.47 397.02,251.61 401.23,247.34C401.58,246.99 401.57,246.41 401.2,246.07Z" style="fill:rgb(168,206,145);fill-rule:nonzero;"/>
        </g>
        <g transform="matrix(0.897307,0,0,0.897307,26.2834,26.9954)">
            <path d="M214.78,256.01C242.63,268.86 239.89,309.51 210.36,318.17C207.36,319.05 203.2,319.49 197.88,319.49C159.33,319.5 120.78,319.51 82.24,319.5C75.21,319.5 70.1,319.01 66.91,318.04C40.88,310.09 34.7,274.58 57.64,259.06C63.77,254.921 71.12,252.84 79.69,252.82C117.52,252.731 155.36,252.71 193.19,252.77C200.57,252.78 207.36,252.59 214.78,256.01ZM66.46,300.28C69.53,302.75 72.38,303.99 75,303.99C116.36,304 157.72,304 199.09,303.99C224.94,303.98 225.17,268.5 198.69,268.5C158.46,268.5 118.22,268.5 77.98,268.51C60.49,268.51 52.03,288.66 66.46,300.28Z" style="fill:rgb(168,206,145);fill-rule:nonzero;"/>
        </g>
        <g transform="matrix(0.897307,0,0,0.897307,26.2834,26.9954)">
            <path d="M164.45,286.51C164.45,290.65 161.1,294 156.96,294L87.46,294C83.32,294 79.97,290.65 79.97,286.51L79.97,285.99C79.97,281.85 83.32,278.5 87.46,278.5L156.96,278.5C161.1,278.5 164.45,281.85 164.45,285.99L164.45,286.51Z" style="fill:rgb(168,206,145);fill-rule:nonzero;"/>
        </g>
        <g transform="matrix(0.897307,0,0,0.897307,26.2834,26.9954)">
            <path d="M275.249,371.264C275.24,375.29 271.97,378.55 267.946,378.541L244.026,378.5C240,378.49 236.74,375.22 236.749,371.197L236.75,370.277C236.76,366.25 240.03,362.99 244.053,363L267.973,363.041C272,363.05 275.26,366.32 275.25,370.344L275.249,371.264Z" style="fill:rgb(168,206,145);fill-rule:nonzero;"/>
        </g>
    </g>
</svg>
