<?xml version="1.0" encoding="UTF-8" standalone="no"?>
<!DOCTYPE svg PUBLIC "-//W3C//DTD SVG 1.1//EN" "http://www.w3.org/Graphics/SVG/1.1/DTD/svg11.dtd">
<svg width="100%" height="100%" viewBox="0 0 1200 1200" version="1.1" xmlns="http://www.w3.org/2000/svg" xmlns:xlink="http://www.w3.org/1999/xlink" xml:space="preserve" xmlns:serif="http://www.serif.com/" style="fill-rule:evenodd;clip-rule:evenodd;stroke-linejoin:round;stroke-miterlimit:2;">
    <g>
        <path d="M688.65,277.28C688.65,326 649.16,365.49 600.44,365.49C551.72,365.49 512.229,326 512.229,277.28C512.229,228.56 551.72,189.07 600.44,189.07C649.16,189.07 688.65,228.56 688.65,277.28ZM656.93,277.28C656.93,246.08 631.63,220.78 600.43,220.78C569.23,220.78 543.93,246.08 543.93,277.28C543.93,308.48 569.23,333.78 600.43,333.78C631.63,333.78 656.93,308.48 656.93,277.28Z" style="fill:rgb(168,206,145);fill-rule:nonzero;"/>
        <path d="M454.35,310.95C454.35,355.75 418.04,392.06 373.24,392.06C328.44,392.06 292.13,355.75 292.13,310.95C292.13,266.15 328.44,229.84 373.24,229.84C418.04,229.84 454.35,266.15 454.35,310.95ZM422.67,310.95C422.67,283.66 400.54,261.53 373.25,261.53C345.96,261.53 323.83,283.66 323.83,310.95C323.83,338.24 345.96,360.37 373.25,360.37C400.54,360.37 422.67,338.24 422.67,310.95Z" style="fill:rgb(168,206,145);fill-rule:nonzero;"/>
        <path d="M908.78,310.95C908.78,355.75 872.47,392.06 827.67,392.06C782.87,392.06 746.56,355.75 746.56,310.95C746.56,266.15 782.87,229.84 827.67,229.84C872.47,229.84 908.78,266.15 908.78,310.95ZM877.1,310.95C877.1,283.66 854.97,261.53 827.68,261.53C800.39,261.53 778.26,283.66 778.26,310.95C778.26,338.24 800.39,360.37 827.68,360.37C854.97,360.37 877.1,338.24 877.1,310.95Z" style="fill:rgb(168,206,145);fill-rule:nonzero;"/>
        <path d="M433.19,558.81C427.7,554.99 427.03,550.38 427.02,543.45C426.97,510.94 426.96,491.71 427.01,485.75C427.4,433.93 466.89,391.91 517.58,386.43C521.63,386 528.29,385.78 537.56,385.77C581.04,385.74 624.52,385.74 668,385.78C682.59,385.79 696,387.39 709.45,392.76C738.51,404.35 758.4,425.08 769.11,454.93C773.35,466.74 773.92,478.77 773.97,493.24C774.03,510.83 774.04,528.41 774,546C773.96,564.12 748.98,567.72 743.48,551.06C742.85,549.15 742.54,545.86 742.53,541.19C742.52,523.72 742.49,506.24 742.44,488.76C742.33,454.21 719.87,425.44 685.85,418.81C681.43,417.95 674.79,417.52 665.93,417.51C622.96,417.5 579.98,417.49 537,417.49C527.81,417.49 521.159,417.82 517.06,418.49C489.22,422.98 467.48,443.39 460.22,470.7C458.69,476.46 458.5,485.97 458.5,493.47C458.51,509.3 458.5,525.13 458.49,540.96C458.48,545.49 458.21,548.66 457.67,550.46C454.5,560.99 442.12,565.04 433.19,558.81Z" style="fill:rgb(168,206,145);fill-rule:nonzero;"/>
        <path d="M405.25,407.5C415.88,407.51 422.15,419.99 418.6,429.09C415.29,437.57 407.99,438.99 399,438.99C369.33,439 339.67,439 310,438.99C283.76,438.98 261.75,452.78 251.24,476.99C247.46,485.7 246.51,493.75 246.5,504.18C246.49,527.05 246.5,549.92 246.51,572.79C246.52,577.18 246.08,580.42 245.2,582.51C238.2,599.18 214.52,592.71 214.62,574.69C214.74,551.55 214.8,528.41 214.8,505.27C214.8,496.79 215.21,490.15 216.04,485.34C222.74,446.34 253.17,415.27 292.38,408.69C297.07,407.9 303.72,407.51 312.31,407.51C343.29,407.5 374.27,407.49 405.25,407.5Z" style="fill:rgb(168,206,145);fill-rule:nonzero;"/>
        <path d="M797.01,438.98C776.47,438.97 775.02,407.49 798.72,407.5C831.4,407.51 864.08,407.51 896.75,407.5C906.91,407.49 917.62,409.9 928.87,414.73C958.39,427.37 978.72,452.68 984.69,484.18C985.54,488.66 985.97,494.45 985.98,501.55C986.01,526.26 986.01,550.97 985.99,575.68C985.98,597.46 954.34,597.37 954.29,575.32C954.24,551.56 954.23,527.78 954.27,503.99C954.28,498.79 954.14,491.48 952.66,485.88C945.42,458.45 921.73,439.3 893,439.18C861,439.05 829,438.99 797.01,438.98Z" style="fill:rgb(168,206,145);fill-rule:nonzero;"/>
        <path d="M525.06,612.49C525.76,611.13 526.39,609.38 526.94,607.23C528.36,601.7 531.74,591.74 534.53,585.79C550.99,550.55 592.63,534.94 628.65,549.82C652.6,559.71 665.85,578.8 672.7,603.43C673.57,606.56 674.72,609.58 676.16,612.5C676.31,612.8 676.38,612.78 676.38,612.44C676.57,569.79 676.6,535.4 676.47,509.25C676.46,506.16 676.48,503.71 678.21,501.08C683.96,492.33 695.8,490.41 703.18,498.04C706.89,501.89 707.99,506.07 707.99,511.76C708,562.09 708,612.43 707.99,662.76C707.99,663.13 708.23,663.46 708.58,663.58C713.32,665.24 718.31,666.1 723.56,666.15C735.62,666.26 747.68,666.29 759.74,666.24C768.73,666.19 775.38,666.51 779.69,667.19C842.67,677.151 864,758.35 812.65,797.15C808.28,800.45 796.88,808.78 778.47,822.15C759.94,835.59 752.54,852.89 761.19,875.83C763.66,882.38 767.97,895.75 774.12,915.96C779.02,932.08 778.16,949.96 771.62,965.03C752.96,1007.99 700.24,1023.23 661.8,995.95C654.06,990.46 643.93,983.13 631.4,973.96C624.63,969 619.42,965.78 615.79,964.31C597.51,956.87 584.13,963.18 569.07,974.27C560.26,980.77 551.38,987.18 542.43,993.5C535.37,998.49 529.67,1001.92 525.34,1003.79C471.67,1027.04 412.92,979.13 425.21,921.82C425.73,919.39 427.65,913 430.98,902.67C434.37,892.13 437.77,881.6 441.2,871.09C445.66,857.43 443.02,843.56 434.21,832.58C431.96,829.77 428.16,826.4 422.79,822.46C413.42,815.57 404.03,808.7 394.63,801.84C387.48,796.63 382.36,792.38 379.27,789.11C338.72,746.11 363.89,676.211 421.29,667.19C425.57,666.52 432.22,666.19 441.24,666.22C450.39,666.25 462.31,666.24 477,666.21C482.5,666.2 487.68,665.26 492.53,663.39C492.81,663.28 493,663.01 493,662.7L493,516.12C493.01,509.51 493.53,505.01 494.56,502.62C497.42,496.04 503.99,492.7 511.12,493.54C522.539,494.89 525.08,504.27 524.72,514.53C523.65,545.37 524.49,576.63 524.58,607.5C524.58,609.15 524.64,610.8 524.77,612.45C524.8,612.79 524.89,612.8 525.06,612.49ZM404.21,769.04C405.73,770.49 407.33,771.83 409.02,773.06C416.85,778.79 425.17,784.87 433.99,791.29C442.83,797.73 448.15,801.74 449.94,803.32C472.46,823.14 480.49,853.54 471.07,882.07C467.78,892.06 464.49,902.05 461.2,912.04C460.14,915.26 459.07,919.38 457.8,923.03C444.33,961.63 488.82,993.59 521.289,969.8C531.8,962.1 542.33,954.45 552.9,946.86C560.11,941.671 565.76,938.141 569.83,936.27C594.42,924.95 622.26,928.14 644.07,943.94C655.04,951.9 666.02,959.86 677.01,967.81C684.62,973.31 690.37,976.53 698.88,977.7C717.3,980.26 734.58,969.32 742.34,952.76C747.07,942.66 745.83,931.17 742.38,920.51C738.01,907 733.67,893.48 729.38,879.95C721.5,855.14 727.52,828.4 744.87,809.25C747.91,805.88 752.99,801.59 760.1,796.36C769.96,789.1 779.82,781.85 789.68,774.6C804.18,763.95 810.99,753.01 809.27,734.44C807.78,718.48 795.83,704.29 780.88,699.69C777.61,698.69 773.14,698.13 767.45,698C753.73,697.7 740,697.62 726.26,697.75C691.32,698.1 665.46,679.56 653.65,647.14C649.1,634.67 645.23,621.7 641.23,609.03C639.36,603.14 637.48,598.64 635.57,595.55C616.99,565.51 572.3,570.97 561.05,604.78C559.69,608.85 555.97,620.34 549.88,639.25C547.12,647.82 544.75,654.04 542.78,657.9C530.79,681.31 505.97,698.12 478.75,697.82C451.22,697.51 434.8,697.56 429.5,697.98C394.03,700.8 377.94,744.13 404.21,769.04Z" style="fill:rgb(168,206,145);fill-rule:nonzero;"/>
        <path d="M307.1,553.53C324.6,544.06 344.89,541.68 364,547.19C389.75,554.62 406.24,573.25 414.35,598.97C417.22,608.1 420.14,617.23 423.1,626.34C424.44,630.46 426.01,634.71 425.18,638.98C421.88,655.88 399.96,656.7 394.47,640.29C391.05,630.06 387.65,619.82 384.26,609.58C381.73,601.91 379.44,596.56 377.41,593.52C358.16,564.77 313.61,572.82 303.78,605.57C299.48,619.88 294.44,634.09 289.76,648.3C281.48,673.43 260.16,691.31 234.93,696.4C230.49,697.29 224.3,697.74 216.36,697.75C204.99,697.76 193.62,697.76 182.25,697.77C173.22,697.77 163.74,698.12 155.49,702.78C128.929,717.76 126.69,754.66 151.47,772.78C161.93,780.43 172.42,788.02 182.94,795.55C200.54,808.16 211.99,822.47 216.51,844.24C219.41,858.16 217.79,868.78 213.72,881.91C209.39,895.85 204.95,909.76 200.39,923.63C195.71,937.88 198.4,952.12 208.06,963.12C219.72,976.4 237.58,981.82 254.43,975.13C257.9,973.75 262.53,970.95 268.33,966.74C279.57,958.58 290.81,950.44 302.06,942.33C325.82,925.19 359.27,925.68 383.44,941.56C388.82,945.09 395.08,949.59 402.23,955.06C405.56,957.61 407.77,959.85 408.88,961.76C417.42,976.55 399.09,991.49 384.97,981.55C376.9,975.87 367.77,967.88 359.12,964.41C344.89,958.72 331.2,960.61 318.06,970.07C308.07,977.26 298.09,984.44 288.1,991.61C280.78,996.86 275.17,1000.45 271.26,1002.36C248.94,1013.29 223.35,1012.02 202.01,999.03C183.39,987.69 171.87,970.76 167.46,948.23C165.05,935.88 167,927.1 169.84,915.38C170.94,910.84 172.89,906.56 174.2,902C177.09,891.9 180.09,883.24 184.2,870.83C188.76,857.05 185.57,842.5 176.5,831.84C174.05,828.97 168.94,824.71 161.16,819.07C145.24,807.54 135.56,800.48 132.12,797.89C110.11,781.35 98.17,754.22 103.57,726.86C109.77,695.52 132.09,672.17 164.06,667.19C177.37,665.12 194.96,666.24 209.75,666.28C219.17,666.31 225.81,665.9 229.66,665.05C244.89,661.69 255.19,652.01 260.54,636.02C262.38,630.53 266.8,616.89 273.79,595.1C274.46,593.04 274.79,590.93 274.78,588.77C274.75,567.14 274.73,545.53 274.74,523.92C274.75,519.46 275.13,516.23 275.88,514.23C280.83,501.09 300.62,501.01 305.5,514.25C306.17,516.09 306.51,519.14 306.51,523.39C306.5,533.27 306.49,543.2 306.5,553.18C306.5,553.49 306.83,553.68 307.1,553.53Z" style="fill:rgb(168,206,145);fill-rule:nonzero;"/>
        <path d="M893.5,553.52C893.73,553.64 894,553.48 894,553.23C894,542.58 894.01,532.17 894.04,522C894.08,503.11 917.53,497.18 925.24,514.46C925.75,515.6 926,516.8 926,518.05C925.97,541.8 925.99,565.56 926.04,589.31C926.05,591.39 926.38,593.42 927.05,595.39C931.78,609.42 935.08,619.38 936.93,625.27C939.45,633.26 941.73,641.75 946.11,648.11C951.98,656.61 959.85,662.15 969.72,664.73C973.52,665.72 979.63,666.23 988.04,666.25C1000.36,666.27 1012.68,666.29 1025,666.3C1057.4,666.33 1083.73,685.211 1094.47,716.02C1103.41,741.69 1096.95,770.29 1078.08,789.73C1075.18,792.72 1070.02,796.92 1062.61,802.35C1052.77,809.55 1042.94,816.76 1033.11,823.99C1019.59,833.93 1011.02,850.45 1015.73,867.51C1016.96,871.99 1020.6,883.38 1026.63,901.68C1030.1,912.23 1032.09,918.6 1032.58,920.78C1047.1,984.92 974.5,1034.07 920.28,996.97C916.31,994.25 906.14,986.9 889.77,974.93C882.12,969.33 876.5,965.79 872.91,964.31C848.84,954.36 833.27,969.13 814.73,982.49C813.67,983.26 812.25,983.9 810.46,984.41C796.71,988.41 785.38,973.58 792.31,961.4C793.27,959.7 795.03,957.87 797.6,955.91C803.2,951.62 808.91,947.47 814.74,943.46C838.34,927.21 865.88,924.87 891.18,937.891C895.02,939.86 900.59,943.511 907.89,948.84C917.62,955.95 927.38,963.03 937.17,970.09C957.37,984.68 984.13,978.23 996.91,957.49C1003.96,946.06 1003.93,934.08 999.86,921.66C995.83,909.37 991.82,897.07 987.81,884.77C983.37,871.12 981.43,857.97 984.47,843.74C988.41,825.29 997.96,810.49 1013.11,799.36C1023.3,791.87 1033.49,784.38 1043.69,776.89C1050.9,771.6 1055.74,767.42 1058.2,764.37C1075.6,742.76 1065.14,707.87 1037.84,699.73C1033.92,698.56 1027.31,697.94 1018,697.87C1008.65,697.8 995.73,697.78 979.25,697.81C951.45,697.85 926.17,680.98 914.33,656.19C909.23,645.52 905,629.53 900.68,616.49C897.16,605.84 894.92,599.56 893.96,597.67C878.84,567.8 833.96,569.11 819.98,599.9C817.06,606.32 814.93,614.15 812.88,621.19C811.84,624.78 810.27,628.11 809.33,631.69C807.77,637.62 805.47,645.37 800.64,648.96C791.26,655.93 778.07,650.83 775.87,639.42C774.84,634.1 777.03,628.09 778.85,622.84C783.64,609.06 787.22,593.04 794.17,580.92C814.2,545.92 858.06,534.09 893.5,553.52Z" style="fill:rgb(168,206,145);fill-rule:nonzero;"/>
    </g>
</svg>
