<?xml version="1.0" encoding="UTF-8" standalone="no"?>
<!DOCTYPE svg PUBLIC "-//W3C//DTD SVG 1.1//EN" "http://www.w3.org/Graphics/SVG/1.1/DTD/svg11.dtd">
<svg width="100%" height="100%" viewBox="0 0 1200 1200" version="1.1" xmlns="http://www.w3.org/2000/svg" xmlns:xlink="http://www.w3.org/1999/xlink" xml:space="preserve" xmlns:serif="http://www.serif.com/" style="fill-rule:evenodd;clip-rule:evenodd;stroke-linejoin:round;stroke-miterlimit:2;">
    <g>
        <g transform="matrix(1,0,0,1,-0.000208615,0.00875538)">
            <path d="M913.95,264.24C913.88,290.14 879.59,289.31 879.55,266C879.51,244 879.49,222 879.5,200C879.51,190.33 879.18,183.69 878.53,180.07C874.53,157.94 856.26,140.37 833.91,137.13C831.08,136.72 824.43,136.52 813.94,136.52C615.13,136.49 416.31,136.48 217.5,136.47C196.01,136.47 179.84,145.31 168.98,163C162.65,173.311 162.01,182.85 162.01,196.41C162,418.34 161.99,640.28 162,862.21C162,866.82 161.66,870.14 160.99,872.16C155.83,887.66 134.61,888.91 128.369,873.75C127.46,871.54 127,868.26 127,863.93C127.01,641.29 127,418.65 126.99,196.01C126.99,187.59 127.4,180.95 128.229,176.08C134.65,138.2 164.42,107.62 203.34,102.74C207.28,102.25 213.94,102 223.31,102C420.29,102.01 617.27,102 814.25,101.99C824.01,101.99 830.67,102.16 834.23,102.5C872.51,106.2 903.12,132.9 912.07,170.69C913.55,176.92 913.98,186.36 913.99,194.13C914.03,217.5 914.02,240.87 913.95,264.24Z" style="fill:rgb(168,206,145);fill-rule:nonzero;"/>
        </g>
        <g transform="matrix(1,0,0,1,-0.000208615,0.00875538)">
            <path d="M768.77,303.82C768.77,313.18 761.19,320.76 751.83,320.76L289.21,320.76C279.85,320.76 272.27,313.18 272.27,303.82L272.27,228.7C272.27,219.34 279.85,211.76 289.21,211.76L751.83,211.76C761.19,211.76 768.77,219.34 768.77,228.7L768.77,303.82ZM734.25,246.51C734.25,246.37 734.13,246.25 733.99,246.25L307.27,246.25C307.13,246.25 307.01,246.37 307.01,246.51L307.01,286.23C307.01,286.37 307.13,286.49 307.27,286.49L733.99,286.49C734.13,286.49 734.25,286.37 734.25,286.23L734.25,246.51Z" style="fill:rgb(168,206,145);fill-rule:nonzero;"/>
        </g>
        <g transform="matrix(1,0,0,1,-0.000208615,0.00875538)">
            <path d="M715.93,508.56C575.52,508.48 435.1,508.47 294.67,508.52C289.35,508.52 285.46,508.04 283.01,507.08C268.7,501.47 268.85,481.12 283.02,475.3C285.12,474.43 288.05,474 291.8,474L749.51,474C750.38,474 751.22,473.65 751.83,473.04C812.12,412.77 872.58,352.32 933.22,291.71C939.93,285 946.63,280.72 956.22,285.04C956.81,285.3 957.49,285.17 957.94,284.71C964.62,277.9 972.11,269.61 979.54,265.03C994.14,256.01 1011.56,255.17 1027.43,261.64C1057.39,273.87 1073.95,310.14 1057.26,339.92C1052.62,348.2 1043.95,356.14 1036.54,363.26C1036.11,363.67 1035.99,364.3 1036.22,364.83C1040.64,375.01 1036.09,381.47 1029.05,388.55C1005.92,411.76 967.7,449.98 914.37,503.21C914.15,503.43 914.02,503.74 914.02,504.07C914,624.28 913.99,744.48 913.99,864.68C913.99,872.67 910.31,876.75 903.52,881.27C796.33,952.75 689.14,1024.23 581.95,1095.71C579.27,1097.5 575.46,1097.99 571.83,1097.99C452.97,1098 334.11,1097.98 215.25,1097.93C171.71,1097.91 136.04,1067.4 128.33,1024.77C125.91,1011.38 127,994.86 126.99,980.32C126.99,975.67 127.45,972.18 128.36,969.87C134.21,955.1 154.7,955.12 160.53,969.79C161.45,972.11 161.93,975.45 161.97,979.8C162.06,989.95 162.11,1000.1 162.13,1010.25C162.18,1026.3 167.96,1039.48 179.48,1049.8C189.68,1058.93 201.96,1063.5 216.32,1063.5C329.29,1063.51 442.27,1063.51 555.26,1063.49C555.53,1063.49 555.75,1063.28 555.75,1063.01C555.75,1019.4 555.75,975.73 555.74,932C555.74,927.17 556.26,922.41 557.29,917.71C564.94,882.93 592.13,855.67 627.37,849.07C631.98,848.2 638.14,847.77 645.84,847.77C723.56,847.74 801.28,847.74 879,847.76C879.28,847.76 879.5,847.54 879.5,847.26L879.5,539.46C879.5,538.56 879.18,538.43 878.54,539.07C860.61,557.04 842.86,574.78 825.29,592.29C811.2,606.32 788.51,592.75 796.23,574.4C797.21,572.07 799.47,569.14 803.02,565.59C852.12,516.51 901.14,467.49 950.07,418.54C950.37,418.24 950.37,417.75 950.07,417.45L903.69,371.04C903.43,370.78 903.01,370.78 902.76,371.04L452.07,822.08C451.55,822.6 451.55,823.44 452.07,823.97L497.95,869.95C498.14,870.14 498.46,870.14 498.66,869.95C575.93,792.7 653.19,715.45 730.44,638.19C740.22,628.41 756.89,633.67 759.77,647.35C761.37,654.97 757.6,660 751.94,665.66C671.07,746.55 590.2,827.44 509.31,908.31C507.1,910.52 503.34,911.46 500.09,912.48C468.47,922.42 436.85,932.36 405.23,942.291C398.94,944.27 394.41,945.15 391.66,944.92C381.39,944.08 373.71,933.23 376.95,922.92C386.48,892.57 395.57,861.93 405.72,831.8C407.82,825.55 409.06,816.02 414.17,810.93C421.15,803.96 428.01,797.13 434.74,790.42C435.45,789.71 435.3,789.4 434.31,789.47C427.33,789.98 418.37,789.56 413.6,789.58C373.81,789.79 334.03,789.83 294.25,789.71C292.35,789.7 290.45,789.64 288.56,789.51C269.94,788.23 266.21,763.19 283.25,756.5C285.4,755.66 288.29,755.24 291.93,755.24C351.04,755.25 410.16,755.26 469.27,755.25C469.65,755.25 470.02,755.1 470.3,754.82L528.19,696.93C528.98,696.14 528.81,695.75 527.7,695.75C449.65,695.74 371.2,695.74 292.35,695.75C287.84,695.75 284.5,695.28 282.35,694.35C268.95,688.53 269.04,668.93 282.43,662.99C284.67,662 288.5,661.51 293.91,661.5C383.42,661.49 472.63,661.49 561.53,661.5C562.89,661.5 564.05,661.02 565,660.07L622.15,602.86C622.56,602.45 622.47,602.25 621.89,602.25C513.08,602.26 404.66,602.26 296.62,602.25C290.02,602.25 285.65,601.88 283.51,601.13C269.11,596.13 268.51,575.33 282.62,569.17C284.77,568.23 288.14,567.76 292.72,567.76C413.97,567.75 535.02,567.74 655.85,567.75C656.75,567.75 657.6,567.4 658.23,566.77L716.08,508.92C716.32,508.68 716.27,508.56 715.93,508.56ZM1005.73,332.86C1007.14,334.26 1009.38,336.97 1011.54,338.68C1011.76,338.86 1012.09,338.84 1012.29,338.63C1021.85,329 1035.49,320.01 1026.19,304.08C1020.07,293.61 1005.03,287.03 995,296.74C990.89,300.71 986.82,304.75 982.81,308.84C982.43,309.23 982.44,309.86 982.83,310.25C990.37,317.64 998,325.17 1005.73,332.86ZM995.654,372.972C995.85,372.78 995.85,372.47 995.654,372.279L948.971,325.596C948.78,325.4 948.47,325.4 948.278,325.596L928.225,345.649C928.03,345.84 928.03,346.15 928.225,346.342L974.908,393.025C975.1,393.22 975.41,393.22 975.601,393.025L995.654,372.972ZM465.29,887.11C465.53,887.04 465.61,886.73 465.43,886.55L434.78,855.9C434.6,855.72 434.29,855.8 434.22,856.04L420.2,900.71C420.12,900.97 420.36,901.21 420.62,901.13L465.29,887.11ZM630.87,883.73C605,889.98 590.25,912.36 590.25,938.5L590.25,1047.33C590.25,1048 590.53,1048.15 591.09,1047.78L838.25,882.9C838.89,882.47 838.83,882.26 838.06,882.26C775.39,882.24 712.66,882.24 649.88,882.27C641.23,882.27 634.9,882.76 630.87,883.73Z" style="fill:rgb(168,206,145);fill-rule:nonzero;"/>
        </g>
        <g transform="matrix(1,0,0,1,-0.000208615,0.00875538)">
            <path d="M608.08,397.698C608.1,407.01 600.56,414.58 591.24,414.597L450.22,414.843C440.9,414.86 433.34,407.32 433.32,398.003L433.319,397.283C433.3,387.97 440.84,380.4 450.16,380.384L591.179,380.137C600.5,380.12 608.06,387.66 608.079,396.978L608.08,397.698Z" style="fill:rgb(168,206,145);fill-rule:nonzero;"/>
        </g>
        <g transform="matrix(1,0,0,1,-0.000208615,0.00875538)">
            <path d="M1005.33,494.7C1004.82,492.6 1003.71,490.78 1003.57,488.68C1002.82,477.41 1001.22,462.94 1015.03,457.98C1022.55,455.28 1031.58,458.77 1035.65,465.79C1039.3,472.08 1038.34,488.05 1035.96,494.74C1035.85,495.05 1035.94,495.12 1036.24,494.96C1041.24,492.29 1045.91,492.97 1053.03,492.98C1061.04,492.98 1066.43,494.27 1070.83,500.64C1074.32,505.7 1074.01,516.29 1070.03,521.02C1066.82,524.83 1062.7,526.89 1057.67,527.19C1049.14,527.69 1042.31,528.32 1036.26,525.48C1035.94,525.33 1035.82,525.42 1035.91,525.75C1036.09,526.44 1036.38,527.06 1036.79,527.6C1037.01,527.88 1037.14,528.18 1037.17,528.47C1037.94,535.05 1038.42,544.91 1037.28,550.14C1033.91,565.66 1011.86,568.07 1005.13,553.62C1001.97,546.85 1002.49,532.49 1005.26,525.95C1005.39,525.65 1005.29,525.56 1004.98,525.67C998.31,528.05 985.56,528.66 979,526.38C964.57,521.35 963.63,500.45 977.81,494.42C983.81,491.87 999.65,492.23 1005,494.96C1005.29,495.11 1005.4,495.02 1005.33,494.7ZM1012.68,518.56C1018.74,515.68 1022.48,516.84 1028.76,518.34C1029.07,518.42 1029.15,518.31 1029,518.01C1026.39,512.8 1026.38,507.52 1028.98,502.17C1029.13,501.88 1029.05,501.79 1028.75,501.92C1023.28,504.31 1017.88,504.26 1012.54,501.77C1012.25,501.64 1012.16,501.72 1012.29,502.02C1014.57,507.39 1014.61,512.83 1012.41,518.32C1012.29,518.62 1012.38,518.7 1012.68,518.56Z" style="fill:rgb(168,206,145);fill-rule:nonzero;"/>
        </g>
        <g transform="matrix(1,0,0,1,-0.000208615,0.00875538)">
            <path d="M899.96,957.24C896.13,949.32 896.28,932.36 902.42,925.46C910.96,915.85 926.38,918.77 931.34,930.5C933.87,936.49 933.75,951.7 930.33,957.3C930.24,957.44 930.24,957.56 930.32,957.65C930.4,957.75 930.59,957.76 930.76,957.66C936.25,954.53 944.39,955.44 950.5,955.54C968.3,955.85 975.83,978.76 959.42,987.84C953.03,991.38 937.55,991.18 930.85,988.1C930.54,987.96 930.45,988.04 930.57,988.35C931.07,989.63 931.56,990.89 932.03,992.14C933.71,996.62 933.2,1010.43 931.45,1014.61C927.08,1025 915.23,1029.26 905.66,1022.96C896.57,1016.98 897.67,1006.81 897.71,997.49C897.72,994.16 898.56,991.07 900.23,988.22C900.4,987.94 900.33,987.86 900.02,987.99C893.48,990.84 885.49,990.53 878.51,990.04C863.07,988.97 856.78,971.16 867.76,960.03C874.07,953.64 892.84,954.38 899.73,957.48C900.03,957.61 900.11,957.53 899.96,957.24ZM906.98,981.25C913.03,978.56 917.38,979.18 923.55,981.16C923.86,981.26 923.94,981.17 923.78,980.88C920.63,975.41 920.67,970.02 923.9,964.72C924.23,964.17 924.11,964.02 923.52,964.29C917.86,966.91 912.34,966.9 906.97,964.26C906.68,964.11 906.61,964.18 906.76,964.47C909.81,970 909.81,975.52 906.77,981.02C906.62,981.3 906.69,981.38 906.98,981.25Z" style="fill:rgb(168,206,145);fill-rule:nonzero;"/>
        </g>
    </g>
</svg>
