<?xml version="1.0" encoding="UTF-8" standalone="no"?>
<!DOCTYPE svg PUBLIC "-//W3C//DTD SVG 1.1//EN" "http://www.w3.org/Graphics/SVG/1.1/DTD/svg11.dtd">
<svg width="100%" height="100%" viewBox="0 0 500 500" version="1.1" xmlns="http://www.w3.org/2000/svg" xmlns:xlink="http://www.w3.org/1999/xlink" xml:space="preserve" xmlns:serif="http://www.serif.com/" style="fill-rule:evenodd;clip-rule:evenodd;stroke-linejoin:round;stroke-miterlimit:2;">
    <g id="Background_Complete">
        <g id="XMLID_68_">
            <path id="XMLID_74_" d="M136.306,126.371C117.385,126.371 102.047,111.033 102.047,92.112C102.047,73.191 117.385,57.853 136.306,57.853C155.227,57.853 170.565,73.191 170.565,92.112C170.566,111.033 155.227,126.371 136.306,126.371Z" style="fill:rgb(0,121,161);fill-rule:nonzero;"/>
            <g id="XMLID_69_">
                <g id="XMLID_71_">
                    <rect id="XMLID_73_" x="120.772" y="84.475" width="7.09" height="22.906" style="fill:white;"/>
                    <path id="XMLID_72_" d="M124.283,81.476C126.599,81.476 128.476,79.582 128.476,77.248C128.476,74.914 126.599,73.022 124.283,73.022C121.967,73.022 120.09,74.915 120.09,77.248C120.09,79.582 121.966,81.476 124.283,81.476Z" style="fill:white;fill-rule:nonzero;"/>
                </g>
                <path id="XMLID_70_" d="M139.196,95.357C139.196,92.137 140.678,90.218 143.516,90.218C146.123,90.218 147.376,92.059 147.376,95.357L147.376,107.381L154.433,107.381L154.433,92.878C154.433,86.743 150.955,83.776 146.099,83.776C141.24,83.776 139.196,87.561 139.196,87.561L139.196,84.476L132.394,84.476L132.394,107.382L139.196,107.382L139.196,95.357Z" style="fill:white;fill-rule:nonzero;"/>
            </g>
        </g>
        <path d="M182.22,23.886L186.912,32.464L195.489,37.155L186.912,41.846L182.22,50.424L177.529,41.846L168.951,37.155L177.529,32.464L182.22,23.886Z" style="fill:rgb(168,206,145);fill-rule:nonzero;"/>
        <path d="M377.87,256.273L381.389,262.706L387.822,266.224L381.389,269.743L377.87,276.176L374.352,269.743L367.918,266.224L374.352,262.706L377.87,256.273Z" style="fill:rgb(168,206,145);fill-rule:nonzero;"/>
        <path d="M387.822,224.508L389.409,227.411L392.312,228.998L389.409,230.586L387.822,233.488L386.235,230.586L383.332,228.998L386.235,227.411L387.822,224.508Z" style="fill:rgb(0,121,161);fill-rule:nonzero;"/>
        <path d="M148.714,27.112L150.301,30.015L153.203,31.602L150.301,33.19L148.714,36.092L147.126,33.19L144.223,31.602L147.126,30.015L148.714,27.112Z" style="fill:rgb(168,206,145);fill-rule:nonzero;"/>
        <g>
            <g>
                <path d="M69.133,296.758C72.712,295.202 75.224,291.458 75.188,287.084C75.137,281.355 70.742,276.747 65.369,276.792C59.999,276.836 55.685,281.517 55.735,287.246C55.774,291.66 58.4,295.382 62.058,296.85C47.12,299.299 48.01,315.557 48.01,315.557L83.405,315.262C83.405,315.261 83.999,298.806 69.133,296.758Z" style="fill:rgb(168,206,145);fill-rule:nonzero;"/>
            </g>
        </g>
        <g>
            <path d="M408.636,403.938C408.135,401.392 405.623,399.4 403.03,399.494C400.46,399.587 398.12,401.717 397.77,404.262C397.398,401.72 395.04,399.611 392.469,399.541C389.875,399.471 387.381,401.484 386.903,404.034C386.555,405.891 387.192,407.825 388.238,409.399C389.283,410.973 390.712,412.249 392.123,413.505C394.101,415.265 395.929,416.92 397.906,418.68C399.868,416.902 401.538,415.232 403.499,413.454C404.9,412.185 406.317,410.898 407.348,409.314C408.38,407.731 409,405.792 408.636,403.938Z" style="fill:rgb(168,206,145);fill-rule:nonzero;"/>
        </g>
        <g>
            <g>
                <path d="M431.688,193.15L435.481,192.398L441.47,179.222L439.969,171.651C439.969,171.651 445.76,170.128 447.036,180.178C448.312,190.228 448.558,187.556 448.558,187.556C448.558,187.556 461.015,185.135 462.264,186.012C463.172,186.648 465.964,198.945 467.424,205.625C468.159,208.988 466.711,212.538 463.73,213.958C463.307,214.161 462.869,214.316 462.426,214.404C459.322,215.02 442.958,215.641 442.958,215.641L436.407,216.94L431.688,193.15Z" style="fill:rgb(168,206,145);fill-rule:nonzero;"/>
            </g>
            <g>
                <path d="M420.418,193.225L427.895,218.703L434.391,217.415L429.35,191.997L420.418,193.225Z" style="fill:rgb(0,121,161);fill-rule:nonzero;"/>
            </g>
        </g>
    </g>
    <g id="Floor">
    </g>
    <g id="Icons">
        <g id="XMLID_45_">
            <path id="XMLID_47_" d="M393.433,183.15C373.253,192.964 348.939,184.562 339.124,164.383C329.309,144.204 337.712,119.889 357.891,110.074C378.07,100.26 402.385,108.662 412.2,128.841C422.014,149.021 413.612,173.335 393.433,183.15Z" style="fill:rgb(0,121,161);fill-rule:nonzero;"/>
            <path id="XMLID_46_" d="M365.621,155.693C366.305,155.65 366.708,155.177 366.567,154.464C366.468,153.971 366.204,152.734 366.102,152.215C365.965,151.507 365.794,151.321 365.068,151.001C363.489,150.304 362.102,149.082 361.046,146.911C357.982,140.612 359.952,132.681 367.512,129.004C374.205,125.749 379.872,128.05 382.529,133.513C386.024,140.7 385.794,148.312 381.072,150.608C378.464,151.876 375.464,150.669 374.803,147.722C374.018,144.199 373.811,140.085 372.702,137.805C371.71,135.765 369.787,134.595 367.52,135.698C364.853,136.995 364.054,140.794 365.85,144.488C366.994,146.841 368.565,148.045 368.565,148.045C368.565,148.045 371.459,160.931 371.965,163.187C372.972,167.681 376.185,172.23 376.497,172.695C376.682,172.972 377.096,172.856 377.159,172.551C377.249,172.11 378.517,166.645 377.69,162.205C377.457,160.947 376.113,154.501 376.113,154.501C377.782,155.732 381.021,155.954 383.711,154.646C391.725,150.748 393.608,140.8 388.852,131.022C385.256,123.628 375.646,119.788 366.127,124.417C354.284,130.177 352.442,141.572 355.885,148.652C357.97,152.942 361.449,155.967 365.621,155.693Z" style="fill:white;fill-rule:nonzero;"/>
        </g>
        <g id="XMLID_38_">
            <path id="XMLID_44_" d="M434.013,297.755C419.556,292.231 412.314,276.033 417.839,261.576C423.363,247.119 439.561,239.877 454.018,245.402C468.475,250.926 475.717,267.124 470.193,281.581C464.668,296.038 448.47,303.279 434.013,297.755Z" style="fill:rgb(0,121,161);fill-rule:nonzero;"/>
            <g id="XMLID_39_">
                <path id="XMLID_41_" d="M458.644,276.336C459.893,272.801 459.726,269.092 458.426,265.836C456.917,262.058 453.882,258.891 449.763,257.317C442.186,254.422 433.742,257.995 430.567,265.313C430.482,265.515 430.398,265.717 430.319,265.921C429.308,268.568 429.104,271.318 429.577,273.92L424.169,280.453L432.925,280.954C434.521,282.834 436.602,284.356 439.07,285.299C442.538,286.624 446.187,286.595 449.43,285.473C453.468,284.075 456.875,280.981 458.514,276.694C458.559,276.576 458.605,276.457 458.644,276.336ZM439.923,283.069C437.514,282.149 435.549,280.581 434.146,278.631L429.037,278.343L432.185,274.539C431.508,272.056 431.58,269.354 432.563,266.78C432.709,266.397 432.876,266.022 433.059,265.661C435.915,259.93 442.766,257.2 448.911,259.548C455.135,261.926 458.421,268.665 456.581,274.905C456.491,275.219 456.389,275.527 456.27,275.837C453.791,282.325 446.457,285.566 439.923,283.069Z" style="fill:white;"/>
                <path id="XMLID_40_" d="M449.799,276.602C449.515,276.297 448.136,274.817 447.862,274.584C447.59,274.344 447.379,274.203 447.017,274.458C446.655,274.713 445.693,275.23 445.409,275.379C445.116,275.532 444.908,275.483 444.624,275.177C444.346,274.874 443.367,274.092 442.496,272.412C441.819,271.117 441.548,269.728 441.481,269.309C441.414,268.89 441.663,268.774 441.9,268.668C442.119,268.57 442.397,268.397 442.651,268.267C442.72,268.225 442.78,268.187 442.839,268.15C442.966,268.055 443.071,267.959 443.213,267.824C443.42,267.639 443.436,267.418 443.416,267.214C443.396,267.01 443.348,265.055 443.32,264.258C443.298,263.463 442.963,263.471 442.758,263.393C442.56,263.317 442.342,263.196 442.111,263.108C441.88,263.02 441.471,262.962 441.023,263.184C440.575,263.406 439.366,263.897 438.721,265.587C438.57,265.983 438.491,266.407 438.453,266.823C438.341,268.164 438.713,269.448 438.779,269.671C438.865,269.961 439.716,274.385 442.7,277.106C445.695,279.816 445.869,279.361 446.526,279.544C447.18,279.733 448.887,279.501 449.478,278.804C450.074,278.117 450.336,277.43 450.305,277.252C450.275,277.079 450.076,276.905 449.799,276.602Z" style="fill:white;"/>
            </g>
        </g>
        <g id="XMLID_24_">
            <path id="XMLID_26_" d="M69.631,168.241C57.83,168.241 48.263,158.674 48.263,146.872C48.263,135.071 57.83,125.504 69.631,125.504C81.432,125.504 90.999,135.071 90.999,146.872C91,158.674 81.433,168.241 69.631,168.241Z" style="fill:rgb(0,121,161);fill-rule:nonzero;"/>
            <path id="XMLID_25_" d="M58.246,154.026C60.314,155.352 62.769,156.125 65.407,156.125C74.081,156.125 78.981,148.799 78.686,142.228C79.598,141.57 80.391,140.747 81.017,139.81C80.179,140.181 79.278,140.433 78.334,140.545C79.298,139.968 80.039,139.052 80.388,137.961C79.485,138.496 78.485,138.886 77.422,139.095C76.569,138.187 75.356,137.62 74.011,137.62C70.996,137.62 68.78,140.434 69.461,143.356C65.578,143.161 62.136,141.301 59.832,138.475C58.608,140.575 59.197,143.322 61.278,144.713C60.512,144.689 59.791,144.478 59.161,144.128C59.111,146.293 60.661,148.317 62.908,148.768C62.25,148.947 61.53,148.987 60.799,148.847C61.392,150.704 63.118,152.053 65.162,152.092C63.199,153.631 60.724,154.318 58.246,154.026Z" style="fill:white;fill-rule:nonzero;"/>
        </g>
        <g id="XMLID_4_">
            <path id="XMLID_21_" d="M108.032,407.613C88.259,412.323 68.412,400.113 63.701,380.34C58.991,360.567 71.201,340.72 90.973,336.009C110.746,331.299 130.593,343.509 135.303,363.282C140.015,383.056 127.805,402.903 108.032,407.613Z" style="fill:rgb(69,90,100);fill-rule:nonzero;"/>
            <g id="XMLID_5_">
                <path id="XMLID_14_" d="M95.669,355.718C100.911,354.469 101.536,354.342 103.628,353.943C105.563,353.575 106.678,353.647 107.435,353.751C108.436,353.889 109.191,354.158 110.042,354.682C110.893,355.205 111.474,355.758 112.048,356.589C112.482,357.217 113.049,358.18 113.593,360.074C114.18,362.121 114.349,362.737 115.597,367.979C116.846,373.22 116.973,373.846 117.372,375.938C117.74,377.873 117.668,378.988 117.564,379.744C117.426,380.745 117.156,381.5 116.633,382.351C116.11,383.202 115.557,383.783 114.726,384.357C114.098,384.791 113.135,385.358 111.242,385.902C109.195,386.489 108.579,386.657 103.337,387.905C98.095,389.154 97.47,389.282 95.378,389.681C93.443,390.05 92.328,389.977 91.572,389.873C90.571,389.735 89.816,389.466 88.965,388.943C88.115,388.419 87.534,387.867 86.959,387.036C86.526,386.408 85.958,385.445 85.415,383.552C84.828,381.504 84.66,380.888 83.411,375.647C82.162,370.405 82.034,369.78 81.636,367.688C81.267,365.753 81.34,364.637 81.444,363.881C81.582,362.88 81.852,362.125 82.375,361.275C82.899,360.424 83.451,359.843 84.283,359.269C84.911,358.835 85.874,358.268 87.767,357.724C89.811,357.135 90.428,356.967 95.669,355.718M94.827,352.182C89.496,353.452 88.833,353.634 86.761,354.228C84.694,354.821 83.347,355.493 82.214,356.276C81.043,357.085 80.108,358.017 79.276,359.368C78.444,360.719 78.034,361.975 77.841,363.385C77.653,364.749 77.661,366.255 78.063,368.367C78.466,370.484 78.603,371.158 79.873,376.489C81.143,381.82 81.325,382.483 81.919,384.554C82.512,386.621 83.184,387.968 83.967,389.101C84.775,390.272 85.708,391.207 87.059,392.039C88.41,392.87 89.665,393.281 91.075,393.475C92.439,393.663 93.945,393.655 96.057,393.252C98.174,392.849 98.848,392.712 104.179,391.442C109.51,390.172 110.173,389.99 112.244,389.396C114.311,388.803 115.658,388.131 116.792,387.348C117.964,386.539 118.898,385.607 119.73,384.256C120.561,382.904 120.972,381.65 121.166,380.24C121.353,378.875 121.346,377.37 120.943,375.258C120.539,373.142 120.402,372.468 119.132,367.137C117.862,361.806 117.68,361.143 117.086,359.071C116.493,357.005 115.821,355.657 115.038,354.524C114.229,353.353 113.297,352.417 111.945,351.586C110.594,350.755 109.339,350.344 107.929,350.15C106.565,349.963 105.059,349.97 102.947,350.373C100.831,350.775 100.158,350.912 94.827,352.182" style="fill:white;fill-rule:nonzero;"/>
                <path id="XMLID_8_" d="M97.102,361.732C91.535,363.058 88.097,368.647 89.423,374.214C90.749,379.781 96.338,383.219 101.905,381.893C107.472,380.567 110.91,374.979 109.584,369.412C108.257,363.843 102.669,360.405 97.102,361.732M101.062,378.355C97.448,379.216 93.821,376.984 92.96,373.371C92.099,369.757 94.331,366.13 97.945,365.269C101.559,364.408 105.186,366.639 106.047,370.254C106.907,373.867 104.676,377.495 101.062,378.355" style="fill:white;fill-rule:nonzero;"/>
                <path id="XMLID_7_" d="M109.841,358.276C110.151,359.577 109.348,360.883 108.047,361.193C106.745,361.503 105.439,360.699 105.13,359.399C104.82,358.098 105.623,356.792 106.925,356.482C108.225,356.171 109.531,356.975 109.841,358.276" style="fill:white;fill-rule:nonzero;"/>
            </g>
        </g>
        <g id="XMLID_1_">
            <path id="XMLID_3_" d="M386.807,375.222C377.328,375.222 369.644,367.538 369.644,358.059C369.644,348.58 377.328,340.896 386.807,340.896C396.286,340.896 403.97,348.58 403.97,358.059C403.97,367.537 396.286,375.222 386.807,375.222Z" style="fill:rgb(69,90,100);fill-rule:nonzero;"/>
            <path id="XMLID_2_" d="M384.191,368.433L388.369,368.433L388.369,357.97L391.284,357.97L391.595,354.467L388.369,354.467L388.369,352.472C388.369,351.646 388.535,351.32 389.334,351.32L391.595,351.32L391.595,347.684L388.702,347.684C385.593,347.684 384.191,349.053 384.191,351.674L384.191,354.467L382.018,354.467L382.018,358.014L384.191,358.014L384.191,368.433Z" style="fill:white;fill-rule:nonzero;"/>
        </g>
    </g>
    <g id="Device">
        <g>
            <g>
                <g>
                    <g>
                        <g>
                            <g>
                                <g>
                                    <g>
                                        <path d="M328.27,470.046L190.383,469.964C173.799,469.955 160.361,456.506 160.365,439.923L160.433,94.238C160.436,77.645 173.893,64.198 190.486,64.207L328.373,64.288C344.957,64.298 358.394,77.746 358.391,94.33L358.323,440.016C358.321,456.609 344.864,470.056 328.27,470.046Z" style="fill:rgb(38,50,56);fill-rule:nonzero;"/>
                                    </g>
                                </g>
                            </g>
                            <g>
                                <g>
                                    <g>
                                        <path d="M328.227,76.515L301.493,76.5C297.908,76.498 295,79.535 295.001,83.282L294.999,88.131C294.999,91.879 292.091,94.916 288.507,94.914L236.397,94.883C232.812,94.881 229.906,91.841 229.907,88.093L229.908,83.244C229.908,79.496 227.002,76.456 223.417,76.454L214.015,76.448L190.616,76.435C178.995,76.429 169.571,85.846 169.568,97.467L169.502,434.881C169.5,446.497 178.911,455.915 190.525,455.922L328.137,456.002C339.757,456.009 349.182,446.592 349.185,434.971L349.251,97.556C349.252,85.94 339.842,76.522 328.227,76.515Z" style="fill:white;fill-rule:nonzero;"/>
                                    </g>
                                </g>
                            </g>
                        </g>
                    </g>
                    <g>
                        <g>
                            <g>
                                <g>
                                    <path d="M330.24,103.927C330.241,104.017 326.764,104.12 322.476,104.155C318.186,104.19 314.709,104.146 314.709,104.055C314.708,103.965 318.184,103.863 322.474,103.827C326.762,103.792 330.24,103.836 330.24,103.927Z" style="fill:rgb(38,50,56);fill-rule:nonzero;"/>
                                </g>
                            </g>
                        </g>
                        <g>
                            <g>
                                <g>
                                    <path d="M330.273,107.901C330.274,107.991 326.797,108.094 322.509,108.129C318.219,108.164 314.742,108.12 314.742,108.029C314.741,107.939 318.217,107.837 322.507,107.801C326.795,107.766 330.272,107.81 330.273,107.901Z" style="fill:rgb(38,50,56);fill-rule:nonzero;"/>
                                </g>
                            </g>
                        </g>
                        <g>
                            <g>
                                <g>
                                    <path d="M330.306,111.874C330.307,111.964 326.83,112.067 322.542,112.102C318.252,112.137 314.775,112.093 314.775,112.002C314.774,111.912 318.25,111.81 322.54,111.774C326.828,111.739 330.305,111.784 330.306,111.874Z" style="fill:rgb(38,50,56);fill-rule:nonzero;"/>
                                </g>
                            </g>
                        </g>
                    </g>
                    <g>
                        <g>
                            <g>
                                <path d="M184.019,115.75C184.027,115.742 184.166,115.734 184.426,115.723C184.747,115.712 185.118,115.7 185.558,115.686C186.626,115.661 188.023,115.627 189.737,115.586L189.621,115.704C189.606,114.777 189.59,113.765 189.572,112.674C189.578,112.111 189.524,111.579 189.579,110.929C189.692,110.28 190.27,109.707 190.981,109.641C191.655,109.628 192.248,109.597 192.978,109.631C193.731,109.723 194.371,110.447 194.349,111.245C194.365,112.658 194.382,114.134 194.399,115.665L194.205,115.474C195.898,115.457 197.661,115.439 199.477,115.42L199.277,115.624C199.258,113.501 199.239,111.305 199.218,109.055C199.213,108.494 199.208,107.936 199.204,107.382C199.202,106.866 198.888,106.521 198.463,106.136C197.683,105.367 196.914,104.609 196.158,103.864C195.403,103.119 194.661,102.387 193.935,101.67C193.572,101.312 193.213,100.957 192.858,100.606C192.488,100.249 192.197,99.88 191.768,99.792C191.352,99.68 190.893,99.769 190.558,100.023C190.239,100.293 189.898,100.675 189.577,100.988C188.928,101.643 188.297,102.28 187.685,102.896C186.495,104.132 185.256,105.261 184.355,106.328C183.975,106.918 184.117,107.639 184.09,108.296C184.089,108.949 184.087,109.569 184.086,110.154C184.079,111.293 184.073,112.291 184.068,113.146C184.059,113.911 184.052,114.542 184.047,115.06C184.037,115.502 184.029,115.74 184.019,115.75C184.009,115.76 183.997,115.542 183.983,115.116C183.969,114.607 183.951,113.985 183.93,113.232C183.91,112.37 183.888,111.364 183.862,110.215C183.851,109.619 183.839,108.987 183.827,108.321C183.822,107.984 183.817,107.638 183.811,107.284C183.808,106.91 183.905,106.523 184.102,106.181C185.077,104.986 186.241,103.928 187.44,102.656C188.047,102.034 188.673,101.393 189.317,100.733C189.655,100.401 189.932,100.071 190.334,99.725C190.756,99.401 191.335,99.285 191.863,99.424C192.424,99.548 192.789,100.008 193.129,100.329C193.486,100.678 193.846,101.032 194.211,101.389C194.94,102.104 195.684,102.833 196.441,103.576C197.198,104.32 197.969,105.076 198.75,105.843C198.935,106.039 199.158,106.205 199.339,106.481C199.51,106.744 199.607,107.054 199.615,107.37C199.62,107.927 199.625,108.487 199.63,109.051C199.647,111.301 199.664,113.497 199.68,115.62L199.682,115.823L199.48,115.824C197.663,115.836 195.901,115.847 194.208,115.858L194.015,115.859L194.014,115.667C194.006,114.136 193.998,112.66 193.991,111.247C194.013,110.61 193.518,110.048 192.926,109.967C192.32,109.935 191.604,109.956 191.014,109.961C190.447,110.008 189.974,110.463 189.877,110.986C189.826,111.516 189.865,112.134 189.854,112.671C189.854,113.763 189.855,114.775 189.855,115.702L189.855,115.821L189.739,115.82C187.996,115.808 186.576,115.798 185.49,115.79C185.06,115.783 184.697,115.776 184.383,115.771C184.136,115.764 184.012,115.758 184.019,115.75Z" style="fill:rgb(38,50,56);fill-rule:nonzero;"/>
                            </g>
                        </g>
                    </g>
                    <g>
                        <g>
                            <g>
                                <g>
                                    <path d="M274.98,379.406C274.98,379.442 274.466,379.476 273.535,379.507C272.506,379.529 271.183,379.556 269.595,379.59C266.268,379.637 261.672,379.666 256.596,379.666C251.518,379.666 246.922,379.637 243.595,379.59C242.007,379.557 240.684,379.529 239.655,379.507C238.725,379.476 238.21,379.441 238.21,379.406C238.21,379.37 238.724,379.336 239.655,379.305C240.683,379.284 242.007,379.256 243.595,379.222C246.922,379.175 251.518,379.146 256.596,379.146C261.672,379.146 266.268,379.175 269.595,379.222C271.183,379.255 272.507,379.283 273.535,379.305C274.465,379.336 274.98,379.37 274.98,379.406Z" style="fill:rgb(69,90,100);fill-rule:nonzero;"/>
                                </g>
                                <g>
                                    <path d="M332.771,388.452C332.771,388.596 311.601,388.712 285.493,388.712C259.376,388.712 238.211,388.595 238.211,388.452C238.211,388.308 259.376,388.192 285.493,388.192C311.602,388.192 332.771,388.308 332.771,388.452Z" style="fill:rgb(69,90,100);fill-rule:nonzero;"/>
                                </g>
                                <g>
                                    <path d="M303.221,396.962C303.221,397.106 288.667,397.222 270.718,397.222C252.762,397.222 238.211,397.105 238.211,396.962C238.211,396.819 252.762,396.702 270.718,396.702C288.667,396.701 303.221,396.818 303.221,396.962Z" style="fill:rgb(69,90,100);fill-rule:nonzero;"/>
                                </g>
                            </g>
                        </g>
                        <g>
                            <path d="M334.64,413.526L331.702,410.579L328.905,413.369L328.918,404.934L334.653,404.943L334.64,413.526ZM331.703,410.212L331.795,410.303L334.381,412.898L334.393,405.201L329.177,405.193L329.165,412.742L331.703,410.212Z" style="fill:rgb(38,50,56);fill-rule:nonzero;"/>
                        </g>
                        <g>
                            <path d="M256.408,412.429L255.371,411.967C254.87,412.238 254.431,412.372 254.029,412.375C252.441,412.388 251.139,411.106 251.126,409.519C251.113,407.931 252.395,406.629 253.983,406.616C255.571,406.603 256.873,407.885 256.886,409.472C256.892,410.179 256.637,410.858 256.169,411.392L256.408,412.429ZM253.985,406.813C252.506,406.825 251.312,408.038 251.324,409.517C251.336,410.996 252.549,412.19 254.028,412.178C254.408,412.175 254.83,412.041 255.32,411.771L255.363,411.747L256.127,412.088L255.954,411.337L255.989,411.299C256.446,410.797 256.695,410.149 256.689,409.475C256.677,407.995 255.464,406.801 253.985,406.813Z" style="fill:rgb(38,50,56);fill-rule:nonzero;"/>
                        </g>
                        <g>
                            <path d="M263.074,411.984L261.886,409.084L259.658,407.054L265.063,407.011L263.074,411.984ZM260.162,407.247L262.06,408.989L263.072,411.459L264.77,407.21L260.162,407.247Z" style="fill:rgb(38,50,56);fill-rule:nonzero;"/>
                        </g>
                        <g transform="matrix(0.8382,-0.5454,0.5454,0.8382,-179.913,209.782)">
                            <rect x="261.776" y="407.952" width="3.516" height="0.197" style="fill:rgb(38,50,56);"/>
                        </g>
                        <g>
                            <path d="M247.904,407.659C247.749,406.887 246.985,406.285 246.198,406.317C245.418,406.348 244.711,406.997 244.607,407.77C244.491,406.999 243.773,406.362 242.993,406.343C242.206,406.324 241.451,406.938 241.309,407.713C241.205,408.277 241.401,408.863 241.72,409.34C242.039,409.817 242.474,410.202 242.903,410.582C243.505,411.114 244.061,411.614 244.664,412.146C245.257,411.604 245.762,411.096 246.355,410.554C246.779,410.167 247.207,409.775 247.518,409.294C247.83,408.81 248.016,408.221 247.904,407.659Z" style="fill:rgb(232,80,91);fill-rule:nonzero;"/>
                        </g>
                        <g>
                            <path d="M340.662,420.988C340.662,420.988 340.65,420.664 340.644,420.047C340.64,419.421 340.634,418.508 340.626,417.311C340.616,414.898 340.602,411.35 340.584,406.753C340.562,397.562 340.53,384.191 340.49,367.419L340.661,367.591C302.185,367.612 244.752,367.644 180.745,367.68L180.735,367.68L180.995,367.42C180.992,386.037 180.989,404.096 180.987,420.989L180.735,420.737C226.771,420.784 266.717,420.825 295.168,420.854C309.404,420.884 320.762,420.908 328.574,420.925C332.475,420.939 335.487,420.95 337.538,420.958C338.553,420.965 339.328,420.97 339.862,420.974C340.386,420.977 340.662,420.988 340.662,420.988C340.662,420.988 340.408,420.999 339.894,421.004C339.367,421.008 338.603,421.013 337.601,421.02C335.563,421.027 332.568,421.038 328.69,421.052C320.892,421.069 309.554,421.093 295.342,421.123C266.848,421.152 226.841,421.193 180.735,421.24L180.483,421.24L180.483,420.988C180.48,404.095 180.477,386.036 180.475,367.419L180.475,367.159L180.745,367.159C244.753,367.195 302.185,367.226 340.661,367.248L340.833,367.248L340.833,367.42C340.793,384.236 340.761,397.642 340.739,406.857C340.721,411.437 340.706,414.973 340.697,417.377C340.689,418.561 340.683,419.463 340.679,420.083C340.673,420.687 340.662,420.988 340.662,420.988Z" style="fill:rgb(38,50,56);fill-rule:nonzero;"/>
                        </g>
                        <g>
                            <g>
                                <g>
                                    <g>
                                        <g transform="matrix(0.0057,-1,1,0.0057,-185.951,601.395)">
                                            <rect x="191.727" y="372.053" width="35.416" height="44.3" style="fill:rgb(235,235,235);"/>
                                        </g>
                                        <g>
                                            <path d="M231.685,376.621C231.68,376.626 231.606,376.63 231.463,376.633C231.3,376.636 231.095,376.639 230.835,376.643C230.26,376.646 229.453,376.651 228.416,376.657C226.286,376.659 223.215,376.663 219.333,376.667C211.542,376.651 200.501,376.629 187.384,376.602L187.618,376.37C187.566,386.915 187.507,398.996 187.444,411.782C187.498,411.845 186.959,411.289 187.193,411.524L187.277,411.524L187.373,411.525L187.949,411.528L188.715,411.532L190.242,411.541C191.258,411.547 192.269,411.553 193.274,411.559C195.285,411.571 197.276,411.583 199.242,411.595C203.175,411.62 207.014,411.645 210.736,411.669C218.177,411.723 225.151,411.773 231.483,411.819L231.265,412.034C231.372,401.399 231.461,392.577 231.523,386.383C231.564,383.302 231.597,380.877 231.62,379.192C231.635,378.379 231.647,377.745 231.656,377.288C231.668,376.856 231.685,376.621 231.685,376.621C231.685,376.621 231.7,376.825 231.705,377.243C231.708,377.69 231.713,378.311 231.719,379.106C231.723,380.78 231.728,383.189 231.734,386.249C231.726,392.476 231.714,401.346 231.7,412.037L231.7,412.253L231.483,412.252C225.152,412.226 218.177,412.197 210.736,412.166C207.014,412.148 203.175,412.129 199.242,412.109C197.275,412.099 195.285,412.088 193.274,412.077C192.268,412.072 191.257,412.066 190.242,412.06L188.715,412.051L187.949,412.047L187.373,412.044L187.193,412.044C187.421,412.277 186.868,411.727 186.926,411.778C187.009,398.992 187.087,386.911 187.155,376.366L187.156,376.132L187.389,376.134C200.567,376.257 211.66,376.36 219.488,376.433C223.347,376.481 226.4,376.52 228.518,376.546C229.535,376.564 230.326,376.577 230.89,376.587C231.139,376.594 231.336,376.6 231.492,376.604C231.624,376.611 231.69,376.616 231.685,376.621Z" style="fill:rgb(38,50,56);fill-rule:nonzero;"/>
                                        </g>
                                    </g>
                                </g>
                            </g>
                            <g transform="matrix(0.0057,-1,1,0.0057,-185.981,601.365)">
                                <rect x="193.927" y="373.609" width="30.957" height="41.187" style="fill:rgb(224,224,224);"/>
                            </g>
                            <path d="M188.725,409.564L203.219,390.403L212.062,402.493L218.143,396.091L229.911,409.798L188.725,409.564Z" style="fill:rgb(245,245,245);fill-rule:nonzero;"/>
                            <g>
                                <g>
                                    <path d="M215.927,388.118C215.917,389.909 214.457,391.353 212.666,391.343C210.875,391.333 209.431,389.873 209.441,388.082C209.451,386.291 210.911,384.847 212.702,384.858C214.493,384.867 215.937,386.327 215.927,388.118Z" style="fill:rgb(245,245,245);fill-rule:nonzero;"/>
                                </g>
                            </g>
                        </g>
                    </g>
                    <g>
                        <g>
                            <g>
                                <g>
                                    <g>
                                        <path d="M262.087,146.872C262.087,146.89 261.924,146.908 261.614,146.925C261.243,146.938 260.796,146.954 260.258,146.974C258.996,146.995 257.312,147.023 255.269,147.057C251.056,147.104 245.236,147.133 238.809,147.133C232.379,147.133 226.559,147.104 222.346,147.057C220.303,147.023 218.619,146.995 217.357,146.974C216.819,146.955 216.372,146.938 216.001,146.925C215.691,146.908 215.528,146.89 215.528,146.872C215.528,146.854 215.691,146.836 216.001,146.819C216.372,146.806 216.819,146.79 217.357,146.77C218.618,146.749 220.303,146.721 222.346,146.687C226.559,146.64 232.379,146.611 238.809,146.611C245.237,146.611 251.056,146.64 255.269,146.687C257.312,146.721 258.997,146.749 260.258,146.77C260.796,146.789 261.243,146.805 261.614,146.819C261.924,146.837 262.087,146.854 262.087,146.872Z" style="fill:rgb(38,50,56);fill-rule:nonzero;"/>
                                    </g>
                                </g>
                            </g>
                            <g>
                                <g>
                                    <path d="M327.532,342.653L323.166,338.274L319.009,342.42L319.028,329.885L327.551,329.898L327.532,342.653ZM323.168,337.729L323.305,337.865L327.149,341.722L327.167,330.283L319.415,330.271L319.398,341.49L323.168,337.729Z" style="fill:rgb(38,50,56);fill-rule:nonzero;"/>
                                </g>
                                <g>
                                    <path d="M216.674,341.334L214.633,340.424C213.647,340.958 212.782,341.221 211.991,341.228C208.865,341.253 206.302,338.731 206.277,335.606C206.252,332.481 208.774,329.918 211.9,329.893C215.025,329.868 217.588,332.39 217.613,335.515C217.624,336.907 217.124,338.244 216.202,339.295L216.674,341.334ZM211.903,330.28C208.991,330.303 206.642,332.691 206.665,335.602C206.688,338.513 209.076,340.863 211.988,340.839C212.736,340.833 213.567,340.57 214.531,340.038L214.616,339.99L216.12,340.662L215.779,339.183L215.848,339.108C216.747,338.12 217.237,336.844 217.226,335.517C217.202,332.606 214.815,330.257 211.903,330.28Z" style="fill:rgb(38,50,56);fill-rule:nonzero;"/>
                                </g>
                                <g>
                                    <path d="M229.794,340.459L227.455,334.75L223.069,330.753L233.707,330.667L229.794,340.459ZM224.062,331.133L227.798,334.562L229.79,339.424L233.132,331.06L224.062,331.133Z" style="fill:rgb(38,50,56);fill-rule:nonzero;"/>
                                </g>
                                <g transform="matrix(0.8382,-0.5453,0.5453,0.8382,-144.12,179.639)">
                                    <rect x="227.24" y="332.522" width="6.92" height="0.389" style="fill:rgb(38,50,56);"/>
                                </g>
                                <g>
                                    <path d="M199.933,331.945C199.628,330.425 198.124,329.241 196.575,329.303C195.04,329.364 193.647,330.641 193.444,332.162C193.217,330.645 191.803,329.39 190.268,329.353C188.719,329.317 187.233,330.525 186.953,332.049C186.749,333.159 187.134,334.313 187.762,335.251C188.39,336.189 189.246,336.948 190.091,337.695C191.276,338.742 192.371,339.726 193.556,340.774C194.724,339.708 195.718,338.707 196.885,337.641C197.719,336.88 198.562,336.108 199.175,335.16C199.789,334.212 200.155,333.052 199.933,331.945Z" style="fill:rgb(232,80,91);fill-rule:nonzero;"/>
                                </g>
                            </g>
                            <circle cx="198.963" cy="146.872" r="7.216" style="fill:rgb(235,235,235);"/>
                        </g>
                        <g>
                            <g>
                                <path d="M324.807,301.255C324.807,301.399 294.547,301.515 257.228,301.515C219.896,301.515 189.643,301.398 189.643,301.255C189.643,301.112 219.896,300.995 257.228,300.995C294.547,300.994 324.807,301.111 324.807,301.255Z" style="fill:rgb(69,90,100);fill-rule:nonzero;"/>
                            </g>
                            <g>
                                <path d="M324.807,289.999C324.807,290.143 294.547,290.259 257.228,290.259C219.896,290.259 189.643,290.142 189.643,289.999C189.643,289.856 219.896,289.739 257.228,289.739C294.547,289.739 324.807,289.855 324.807,289.999Z" style="fill:rgb(69,90,100);fill-rule:nonzero;"/>
                            </g>
                            <g>
                                <path d="M263.214,312.66C263.214,312.804 246.743,312.92 226.43,312.92C206.11,312.92 189.643,312.803 189.643,312.66C189.643,312.517 206.11,312.4 226.43,312.4C246.743,312.4 263.214,312.517 263.214,312.66Z" style="fill:rgb(69,90,100);fill-rule:nonzero;"/>
                            </g>
                        </g>
                    </g>
                    <g>
                        <g>
                            <path d="M254.135,435.29C254.128,436.899 252.837,438.197 251.251,438.19C249.665,438.182 248.385,436.871 248.392,435.263C248.399,433.655 249.69,432.355 251.276,432.363C252.862,432.37 254.142,433.68 254.135,435.29Z" style="fill:rgb(38,50,56);fill-rule:nonzero;"/>
                        </g>
                        <g>
                            <path d="M263.033,435.331C263.026,436.939 261.735,438.237 260.149,438.231C258.563,438.224 257.283,436.914 257.29,435.304C257.296,433.696 258.588,432.397 260.174,432.404C261.76,432.411 263.04,433.721 263.033,435.331Z" style="fill:rgb(38,50,56);fill-rule:nonzero;"/>
                        </g>
                        <g>
                            <path d="M271.931,435.372C271.925,436.98 270.633,438.28 269.047,438.272C267.461,438.265 266.181,436.955 266.188,435.345C266.195,433.736 267.486,432.438 269.072,432.445C270.658,432.452 271.938,433.762 271.931,435.372Z" style="fill:rgb(38,50,56);fill-rule:nonzero;"/>
                        </g>
                    </g>
                </g>
                <g>
                    <rect x="181.694" y="161.154" width="159.927" height="97.804" style="fill:rgb(224,224,224);"/>
                    <path d="M196.457,258.975L242.285,197.637L270.696,235.997L289.951,215.48L327.718,258.937L196.457,258.975Z" style="fill:rgb(245,245,245);fill-rule:nonzero;"/>
                    <g>
                        <g>
                            <path d="M282.738,190.113C282.74,195.821 278.114,200.45 272.406,200.451C266.698,200.453 262.07,195.827 262.068,190.119C262.066,184.411 266.692,179.783 272.4,179.781C278.108,179.779 282.736,184.405 282.738,190.113Z" style="fill:rgb(245,245,245);fill-rule:nonzero;"/>
                        </g>
                    </g>
                </g>
                <g>
                    <path d="M341.19,349.853C341.188,347.761 341.093,259.408 340.954,128.613L341.19,128.849C292.962,128.856 238.598,128.865 181.282,128.873L181.264,128.873L181.524,128.613C181.506,211.351 181.489,287.923 181.475,349.853L181.263,349.641C278.245,349.77 339.445,349.851 341.19,349.853C339.446,349.855 278.246,349.936 181.264,350.065L181.052,350.065L181.052,349.853C181.038,287.924 181.022,211.352 181.003,128.613L181.003,128.353L181.281,128.353C238.597,128.362 292.961,128.37 341.189,128.377L341.425,128.377L341.425,128.613C341.377,194.075 341.336,249.409 341.308,288.385C341.281,307.845 341.259,323.22 341.245,333.738C341.233,338.982 341.223,343.014 341.217,345.741C341.211,347.094 341.206,348.122 341.203,348.82C341.199,349.509 341.19,349.853 341.19,349.853Z" style="fill:rgb(38,50,56);fill-rule:nonzero;"/>
                </g>
            </g>
        </g>
    </g>
    <g id="Megaphone">
        <g>
            <g>
                <g>
                    <g>
                        <path d="M266.043,377.297L269.581,365.409C270.198,362.831 271.018,359.79 272.121,356.32C273.113,353.201 275.656,349.924 277.977,347.564C281.588,343.892 283.306,343.866 285.733,341.917C285.954,341.775 286.201,341.572 286.409,341.46C286.911,341.188 287.28,340.827 287.589,340.439C289.681,338.176 287.672,334.674 283.424,335.007C280.226,335.258 275.01,336.173 266.528,344.923C266.423,345.056 266.311,345.167 266.207,345.303C261.756,351.089 257.575,334.571 256.821,328.423C256.332,324.434 252.017,321.982 248.112,323.426L227.451,333.089C225.745,332.488 223.719,332.59 221.419,333.293C218.377,334.418 216.688,337.546 217.483,340.581L225.863,374.032L201.251,455.925L254.299,455.925L266.043,377.297Z" style="fill:rgb(255,190,157);fill-rule:nonzero;"/>
                    </g>
                    <g>
                        <g>
                            <g>
                                <g>
                                    <path d="M306.796,302.084L290.398,334.217L282.199,331.939L240.983,365.465C237.476,368.318 232.335,367.861 229.386,364.434L213.694,346.2C213.694,346.2 245.336,332.57 251.188,321.287C257.04,310.004 250.277,307.445 250.277,307.445L265.169,290.522L306.796,302.084Z" style="fill:rgb(47,121,161);fill-rule:nonzero;"/>
                                </g>
                            </g>
                            <g>
                                <path d="M285.527,236.443C285.527,236.443 261.523,231.134 227.745,198.651C193.967,166.169 178.095,123.033 173.96,123.244C169.825,123.454 151.772,115.072 117.436,189.764C83.1,264.455 96.625,281.8 103.458,281.66C110.291,281.519 156.685,268.591 185.663,271.884C214.641,275.179 251.888,290.281 251.888,290.281L285.527,236.443Z" style="fill:rgb(47,121,161);fill-rule:nonzero;"/>
                            </g>
                            <g>
                                <path d="M336.52,277.155L328.331,292.725L324.662,299.7C319.631,309.267 307.992,313.221 298.174,308.699L246.725,290.773L276.688,222.369L328.09,249.762C337.957,255.019 341.724,267.259 336.52,277.155Z" style="fill:rgb(168,206,145);fill-rule:nonzero;"/>
                            </g>
                            <g opacity="0.4">
                                <path d="M336.52,277.155L328.331,292.725L324.662,299.7C319.631,309.267 307.992,313.221 298.174,308.699L246.725,290.773L276.688,222.369L328.09,249.762C337.957,255.019 341.724,267.259 336.52,277.155Z" style="fill:rgb(168,206,145);fill-rule:nonzero;"/>
                            </g>
                            <g opacity="0.5">
                                <path d="M120.209,191.124C101.935,231.585 94.328,267.64 103.219,271.655C112.109,275.671 134.13,246.125 152.404,205.664C170.677,165.204 178.284,129.149 169.394,125.134C160.504,121.119 138.484,150.663 120.209,191.124Z" style="fill:rgb(30,58,103);fill-rule:nonzero;"/>
                            </g>
                        </g>
                        <g>
                            <path d="M340.936,299.652L326.991,295.273L335.62,278.865L346.078,285.366L340.936,299.652Z" style="fill:rgb(47,121,161);fill-rule:nonzero;"/>
                        </g>
                        <g opacity="0.6">
                            <path d="M335.62,278.865L326.991,295.273L329.856,296.174L336.872,279.643L335.62,278.865Z" style="fill-rule:nonzero;"/>
                        </g>
                        <g>
                            <path d="M326.012,282.65C325.807,283.101 318.848,280.396 310.469,276.608C302.083,272.82 295.457,269.384 295.661,268.933C295.864,268.483 302.822,271.188 311.205,274.976C319.586,278.764 326.214,282.2 326.012,282.65Z" style="fill:rgb(47,121,161);fill-rule:nonzero;"/>
                        </g>
                        <g>
                            <path d="M330.3,272.878C330.08,273.323 323.783,270.668 316.233,266.951C308.68,263.231 302.738,259.858 302.957,259.413C303.175,258.97 309.47,261.624 317.024,265.344C324.574,269.061 330.518,272.434 330.3,272.878Z" style="fill:rgb(47,121,161);fill-rule:nonzero;"/>
                        </g>
                        <g>
                            <path d="M320.602,292.9C320.528,293.138 318.872,292.756 316.229,291.939C314.909,291.532 313.345,291.015 311.614,290.416C309.895,289.793 308.11,288.891 306.198,288.024C298.569,284.483 292.744,281.016 292.934,280.605C293.16,280.119 299.387,282.89 306.945,286.397C308.841,287.256 310.599,288.202 312.257,288.895C313.922,289.567 315.415,290.196 316.661,290.749C319.155,291.856 320.674,292.663 320.602,292.9Z" style="fill:rgb(47,121,161);fill-rule:nonzero;"/>
                        </g>
                        <g>
                            <path d="M157.465,182.126C157.465,182.126 136.602,169.189 125.187,197.376C113.773,225.563 135.723,230.198 135.723,230.198C144.706,216.268 152.003,200.305 157.465,182.126Z" style="fill:rgb(47,121,161);fill-rule:nonzero;"/>
                        </g>
                        <g opacity="0.5">
                            <path d="M179.653,148.533C179.775,148.554 179.478,150.468 178.836,153.918C178.176,157.362 177.243,162.362 175.905,168.501C175.023,171.524 174.059,174.826 173.025,178.365C172.502,180.139 171.96,181.971 171.404,183.859C171.124,184.804 170.84,185.761 170.552,186.731C170.24,187.694 169.834,188.638 169.471,189.611C167.968,193.49 166.392,197.557 164.758,201.773C164.348,202.827 163.934,203.89 163.516,204.962C163.11,206.039 162.537,207.052 162.05,208.113C161.03,210.215 159.996,212.349 158.949,214.507C157.899,216.665 156.861,218.797 155.838,220.899C155.306,221.938 154.862,223.016 154.268,224.002C153.683,224.993 153.103,225.977 152.528,226.951C150.224,230.842 148,234.597 145.88,238.177C145.338,239.064 144.848,239.967 144.283,240.808C143.697,241.636 143.119,242.453 142.548,243.258C141.407,244.865 140.298,246.426 139.226,247.936C137.08,250.939 135.078,253.741 133.245,256.306C129.256,261.14 125.91,264.953 123.612,267.599C121.3,270.234 119.976,271.654 119.881,271.575C119.786,271.497 120.928,269.927 123.074,267.156C125.3,264.333 128.426,260.37 132.265,255.503C134.03,252.918 135.956,250.094 138.022,247.067C139.06,245.554 140.134,243.99 141.24,242.381C141.794,241.577 142.356,240.76 142.926,239.934C143.475,239.094 143.953,238.188 144.481,237.302C146.558,233.729 148.737,229.982 150.995,226.099C151.562,225.128 152.132,224.15 152.709,223.163C153.296,222.182 153.732,221.111 154.258,220.076C155.27,217.988 156.298,215.869 157.337,213.725C158.379,211.583 159.409,209.466 160.424,207.38C160.911,206.328 161.485,205.323 161.891,204.255C162.31,203.193 162.726,202.139 163.139,201.095C164.795,196.921 166.394,192.893 167.917,189.053C168.288,188.09 168.703,187.156 169.025,186.204C169.323,185.244 169.617,184.296 169.908,183.362C170.49,181.496 171.056,179.682 171.604,177.929C172.707,174.431 173.735,171.167 174.679,168.179C176.129,162.165 177.309,157.269 178.15,153.781C179.003,150.384 179.532,148.512 179.653,148.533Z" style="fill-rule:nonzero;"/>
                        </g>
                    </g>
                    <g opacity="0.4">
                        <path d="M218.693,343.961C220.596,347.416 222.538,350.925 225.355,353.686C228.171,356.447 232.039,358.403 235.964,358.008C239.888,357.613 243.607,354.353 243.649,350.409C245.533,351.824 248.419,351.057 249.98,349.292C251.54,347.527 252.047,345.073 252.234,342.724C254.792,344.233 258.35,343.036 260.057,340.606C261.764,338.176 261.87,334.902 261.043,332.049C260.216,329.197 258.564,326.666 256.936,324.182C258.906,324.341 260.992,324.479 262.755,323.586C264.518,322.693 265.707,320.362 264.679,318.674C264.076,317.683 262.918,317.191 261.811,316.845C258.724,315.879 256.558,315.105 253.344,315.478C252.598,315.485 254.63,323.954 234.46,335.536C222.552,342.376 218.693,343.961 218.693,343.961Z" style="fill-rule:nonzero;"/>
                    </g>
                </g>
                <g>
                    <path d="M264.113,356.197C264.1,356.29 262.757,356.033 260.58,356.091C258.416,356.14 255.391,356.615 252.404,358.048C249.415,359.48 247.151,361.542 245.757,363.198C244.348,364.858 243.708,366.066 243.627,366.018C243.598,366.003 243.728,365.686 244.022,365.143C244.315,364.599 244.791,363.839 245.472,362.965C246.817,361.218 249.104,359.051 252.179,357.578C255.252,356.104 258.373,355.677 260.577,355.723C261.685,355.74 262.576,355.844 263.183,355.957C263.791,356.067 264.119,356.165 264.113,356.197Z" style="fill:rgb(235,153,110);fill-rule:nonzero;"/>
                </g>
                <path d="M220.008,338.59C223.257,341.711 225.479,345.156 228.887,348.299C230.436,349.727 232.841,352.433 234.917,352.793C236.993,353.153 238.323,352.877 239.144,350.937C239.809,349.366 238.615,347.219 237.789,345.924C235.618,342.518 233.542,339.856 231.916,337.208C231.155,335.968 232.141,335.712 232.5,336.286C234.064,337.907 236.397,339.312 237.797,341.077C239.715,343.494 240.063,346.694 245.082,345.682C245.745,345.548 246.408,345.319 246.945,344.908C248.834,343.462 248.914,340.948 248.118,338.934C247.495,337.356 246.401,336.017 245.324,334.707C247.46,337.119 249.792,339.659 253.188,339.933C255.163,340.092 257.146,339.173 257.944,337.359C258.949,335.077 257.508,332.871 256.062,331.087C253.499,327.925 250.639,325.004 247.533,322.374C246.377,321.395 244.903,320.847 243.387,320.837C241.63,320.826 239.431,321.156 238.346,322.684C236.375,325.458 236.982,327.911 236.982,327.911C236.982,327.911 232.576,325.677 229.036,328.014C225.496,330.35 224.62,334.366 224.62,334.366L220.008,338.59Z" style="fill:rgb(255,190,157);fill-rule:nonzero;"/>
                <path d="M243.453,319.87C242.089,318.497 241.771,315.985 242.829,313.911C243.578,312.442 244.524,311.015 245.482,310.692C249.673,309.278 267.984,312.446 267.817,316.51C267.645,320.683 266.313,322.52 256.375,321.085C254.627,320.833 251.884,320.488 251.884,320.488L249.486,324.088L243.453,319.87Z" style="fill:rgb(255,190,157);fill-rule:nonzero;"/>
            </g>
            <g>
                <path d="M246.732,336.887C246.587,336.976 245.193,334.133 242.348,331.584C239.532,329.001 236.567,327.892 236.641,327.739C236.662,327.682 237.427,327.879 238.58,328.422C239.731,328.961 241.25,329.889 242.698,331.198C244.141,332.51 245.213,333.931 245.863,335.024C246.516,336.118 246.788,336.861 246.732,336.887Z" style="fill:rgb(235,153,110);fill-rule:nonzero;"/>
            </g>
            <g>
                <path d="M249.814,324.399C249.723,324.484 248.514,323.498 246.865,322.489C246.045,321.984 245.284,321.56 244.716,321.305C244.15,321.039 243.775,320.966 243.777,320.888C243.773,320.821 244.207,320.767 244.843,320.959C245.479,321.139 246.297,321.528 247.139,322.046C248.829,323.079 249.936,324.289 249.814,324.399Z" style="fill:rgb(235,153,110);fill-rule:nonzero;"/>
            </g>
            <g>
                <path d="M252.888,320.621C252.876,320.731 251.282,320.777 249.361,320.224C248.407,319.932 247.602,319.472 247.104,319.042C246.601,318.614 246.392,318.256 246.441,318.214C246.537,318.125 247.675,319.207 249.514,319.727C251.331,320.253 252.915,320.448 252.888,320.621Z" style="fill:rgb(235,153,110);fill-rule:nonzero;"/>
            </g>
            <g>
                <path d="M235.091,341.918C235.032,341.96 234.384,341.134 233.421,339.748C232.438,338.395 231.187,336.375 229.147,334.89C227.106,333.403 224.703,333.05 223.093,333.286C221.45,333.515 220.593,334.193 220.542,334.097C220.525,334.074 220.717,333.887 221.126,333.635C221.531,333.376 222.183,333.093 223.033,332.923C224.717,332.577 227.284,332.889 229.45,334.467C231.606,336.043 232.821,338.143 233.728,339.545C234.613,340.983 235.149,341.877 235.091,341.918Z" style="fill:rgb(235,153,110);fill-rule:nonzero;"/>
            </g>
            <g>
                <path d="M249.1,382.418C249.116,382.561 245.764,383.043 241.616,383.494C237.466,383.945 234.09,384.195 234.075,384.052C234.059,383.909 237.41,383.427 241.56,382.976C245.708,382.525 249.084,382.275 249.1,382.418Z" style="fill:rgb(235,153,110);fill-rule:nonzero;"/>
            </g>
        </g>
    </g>
    <g id="Stars">
        <g>
            <path d="M406.632,49.844L407.76,51.908L409.824,53.036L407.76,54.166L406.632,56.229L405.503,54.166L403.438,53.036L405.503,51.908L406.632,49.844Z" style="fill:rgb(168,206,145);fill-rule:nonzero;"/>
            <path d="M430.236,101.014L431.365,103.078L433.429,104.207L431.365,105.336L430.236,107.4L429.108,105.336L427.043,104.207L429.108,103.078L430.236,101.014Z" style="fill:rgb(0,121,161);fill-rule:nonzero;"/>
            <path d="M51.903,237.533L53.032,239.598L55.096,240.727L53.032,241.855L51.903,243.919L50.775,241.855L48.711,240.727L50.775,239.598L51.903,237.533Z" style="fill:rgb(0,121,161);fill-rule:nonzero;"/>
            <path d="M375.662,62.562L378.269,67.328L383.035,69.935L378.269,72.542L375.662,77.309L373.055,72.542L368.289,69.935L373.055,67.328L375.662,62.562Z" style="fill:rgb(0,121,161);fill-rule:nonzero;"/>
            <path d="M73.061,205.097L75.662,209.853L80.418,212.454L75.662,215.055L73.061,219.811L70.46,215.055L65.704,212.454L70.46,209.853L73.061,205.097Z" style="fill:rgb(0,121,161);fill-rule:nonzero;"/>
            <path d="M436.658,318.565L439.259,323.321L444.015,325.922L439.259,328.524L436.658,333.28L434.057,328.524L429.301,325.922L434.057,323.321L436.658,318.565Z" style="fill:rgb(0,121,161);fill-rule:nonzero;"/>
        </g>
    </g>
</svg>
